<svg width="321" height="507" viewBox="0 0 321 507" fill="none" xmlns="http://www.w3.org/2000/svg">
<rect x="0.53833" y="0.038208" width="320" height="506" rx="9" fill="white"/>
<rect x="8.53833" y="7.03821" width="305" height="491" rx="9" fill="url(#paint0_linear)"/>
<path d="M237.103 174.041L190.406 166.979C186.795 166.128 184.766 168.959 181.143 177.204C165.533 212.4 141.627 263.57 140.024 269.306C138.422 275.043 142.29 277.467 151.092 276.295L205.403 271.886C205.403 271.886 168.598 357.334 163.744 367.561C158.89 377.789 165.909 384.829 176.789 371.195C187.67 357.561 259.229 256.111 264.571 249.943C269.913 243.776 277.167 232.25 263.484 232.838C249.8 233.426 208.503 236.813 208.503 236.813L232.784 195.311C240.407 183.376 245.317 176.296 237.103 174.041Z" fill="#F0E797" fill-opacity="0.9"/>
<path d="M181.956 125.026H126.575C122.239 124.636 120.384 128.66 117.628 139.936C105.701 188.103 86.9558 258.366 86.1038 266.035C85.2518 273.703 90.1622 276.061 100.162 272.851L162.359 256.662C162.359 256.662 134.669 373.389 130.835 387.447C127.001 401.505 136.373 409.174 146.597 389.577C156.821 369.981 222.001 225.99 227.113 217.044C232.225 208.097 238.615 191.909 222.853 195.317C207.09 198.725 159.803 211.079 159.803 211.079L180.678 153.142C187.424 136.357 191.875 126.324 181.956 125.026Z" fill="#F0E797" fill-opacity="0.9"/>
<path d="M99.8281 186.921L65.2973 195.877C62.5312 196.335 62.0249 199.145 62.131 206.622C62.4851 238.59 62.1623 285.44 62.8713 290.36C63.5804 295.28 67.0236 295.957 72.7394 292.337L108.902 272.183C108.902 272.183 110.517 349.456 110.4 358.844C110.283 368.231 117.367 371.498 120.573 357.623C123.778 343.749 141.127 243.41 142.868 237.004C144.608 230.598 145.974 219.469 136.697 224.144C127.421 228.818 99.9349 244.17 99.9349 244.17L103.579 204.662C105.07 193.103 106.223 186.127 99.8281 186.921Z" fill="#F0E797" fill-opacity="0.9"/>
<path d="M259.792 279.334L235.624 265.994C233.825 264.78 232.05 266.082 228.142 270.32C211.381 288.383 186.343 314.408 184.131 317.536C181.919 320.664 183.496 322.872 188.631 323.885L219.658 331.831C219.658 331.831 179.568 375.897 174.522 381.084C169.476 386.271 171.726 391.861 180.89 385.807C190.053 379.752 253.044 332.865 257.421 330.208C261.799 327.551 268.471 322.054 260.775 319.738C253.079 317.423 229.478 311.402 229.478 311.402L252.488 291.247C259.459 285.576 263.809 282.288 259.792 279.334Z" fill="#F0E797" fill-opacity="0.9"/>
<path d="M77.7102 272.962L55.9465 283.767C54.167 284.46 54.2197 286.397 55.3281 291.348C60.0005 312.529 66.2873 343.688 67.4425 346.855C68.5977 350.023 70.9858 349.988 74.2916 346.781L95.5883 328.31C95.5883 328.31 107.388 379.4 108.613 385.651C109.838 391.902 115.011 393.075 115.222 383.41C115.432 373.745 113.066 304.669 113.337 300.17C113.607 295.671 112.973 288.087 107.441 292.497C101.909 296.906 85.7263 310.967 85.7263 310.967L82.6715 284.217C82.0608 276.331 81.8606 271.535 77.7102 272.962Z" fill="#F0E797" fill-opacity="0.9"/>
<path d="M37.1074 50.957H49.5879V37.5098H54.5684V50.957H66.9902V55.9668H54.5684V68.5352H49.5879V55.9668H37.1074V50.957ZM104.49 30.127L106.658 30.127C112.732 30.127 117.068 31.1133 119.666 33.0859C122.303 35.0781 123.621 38.3789 123.621 42.9883C123.621 48.9453 120.574 52.5488 114.48 53.7988C112.469 54.209 110.135 54.4141 107.479 54.4141H104.49V30.127ZM83.0156 41.6992C83.0156 37.7734 84.3828 34.8047 87.1172 32.793C89.5586 31.0156 92.8789 30.127 97.0781 30.127H100.74V43.6328H83.0156V41.6992ZM83.0156 60.1562C83.0156 56.2305 84.3828 53.2617 87.1172 51.25C89.5586 49.4727 92.8789 48.584 97.0781 48.584H100.74V70H83.0156V60.1562ZM104.871 60.3027H122.127V70H104.871V60.3027Z" fill="white"/>
<g filter="url(#filter0_d)">
<path d="M109.195 170.523H150.797V125.699H167.398V170.523H208.805V187.223H167.398V229.117H150.797V187.223H109.195V170.523ZM167.203 245.09H174.43C194.677 245.09 209.13 248.378 217.789 254.953C226.578 261.594 230.973 272.596 230.973 287.961C230.973 307.818 220.816 319.829 200.504 323.996C193.798 325.363 186.018 326.047 177.164 326.047H167.203V245.09ZM95.6211 283.664C95.6211 270.578 100.178 260.682 109.293 253.977C117.431 248.052 128.499 245.09 142.496 245.09H154.703V290.109H95.6211V283.664ZM95.6211 345.188C95.6211 332.102 100.178 322.206 109.293 315.5C117.431 309.576 128.499 306.613 142.496 306.613H154.703V378H95.6211V345.188ZM168.473 345.676H225.992V378H168.473V345.676Z" fill="white"/>
</g>
<defs>
<filter id="filter0_d" x="95.6211" y="125.699" width="138.352" height="257.301" filterUnits="userSpaceOnUse" color-interpolation-filters="sRGB">
<feFlood flood-opacity="0" result="BackgroundImageFix"/>
<feColorMatrix in="SourceAlpha" type="matrix" values="0 0 0 0 0 0 0 0 0 0 0 0 0 0 0 0 0 0 127 0"/>
<feOffset dx="3" dy="5"/>
<feColorMatrix type="matrix" values="0 0 0 0 0.211765 0 0 0 0 0.192157 0 0 0 0 0.192157 0 0 0 1 0"/>
<feBlend mode="normal" in2="BackgroundImageFix" result="effect1_dropShadow"/>
<feBlend mode="normal" in="SourceGraphic" in2="effect1_dropShadow" result="shape"/>
</filter>
<linearGradient id="paint0_linear" x1="313.538" y1="7.03821" x2="8.53835" y2="498.038" gradientUnits="userSpaceOnUse">
<stop stop-color="#4E4948"/>
<stop offset="1" stop-color="#342F2F"/>
</linearGradient>
</defs>
</svg>
