<svg width="321" height="507" viewBox="0 0 321 507" fill="none" xmlns="http://www.w3.org/2000/svg">
<rect x="0.53833" y="0.0383301" width="320" height="506" rx="9" fill="white"/>
<rect x="8.53833" y="7.03833" width="305" height="491" rx="9" fill="url(#paint0_linear)"/>
<circle cx="157.574" cy="239.574" r="106.574" fill="#C0DAE9"/>
<circle cx="166.216" cy="243.216" r="98.2157" fill="#A6C8DA"/>
<circle cx="236.983" cy="175.211" r="20.479" fill="#CDD3EB" fill-opacity="0.8"/>
<circle cx="160.918" cy="380.002" r="16.2996" fill="#CDD3EB" fill-opacity="0.8"/>
<circle cx="229.46" cy="344.895" r="31.3454" fill="#CDD3EB" fill-opacity="0.8"/>
<path d="M34.6074 50.957H47.0879V37.5098H52.0684V50.957H64.4902V55.9668H52.0684V68.5352H47.0879V55.9668H34.6074V50.957ZM101.99 30.127H104.158C110.232 30.127 114.568 31.1133 117.166 33.0859C119.803 35.0781 121.121 38.3789 121.121 42.9883C121.121 48.9453 118.074 52.5488 111.98 53.7988C109.969 54.209 107.635 54.4141 104.979 54.4141H101.99V30.127ZM80.5156 41.6992C80.5156 37.7734 81.8828 34.8047 84.6172 32.793C87.0586 31.0156 90.3789 30.127 94.5781 30.127H98.2402V43.6328H80.5156V41.6992ZM80.5156 60.1562C80.5156 56.2305 81.8828 53.2617 84.6172 51.25C87.0586 49.4727 90.3789 48.584 94.5781 48.584H98.2402V70H80.5156V60.1562ZM102.371 60.3027H119.627V70H102.371V60.3027Z" fill="white"/>
<g filter="url(#filter0_d)">
<path d="M99.1953 154.523H140.797V109.699H157.398V154.523H198.805V171.223H157.398V213.117H140.797V171.223H99.1953V154.523ZM157.203 229.09H164.43C184.677 229.09 199.13 232.378 207.789 238.953C216.578 245.594 220.973 256.596 220.973 271.961C220.973 291.818 210.816 303.829 190.504 307.996C183.798 309.363 176.018 310.047 167.164 310.047H157.203V229.09ZM85.6211 267.664C85.6211 254.578 90.1784 244.682 99.293 237.977C107.431 232.052 118.499 229.09 132.496 229.09H144.703V274.109H85.6211V267.664ZM85.6211 329.188C85.6211 316.102 90.1784 306.206 99.293 299.5C107.431 293.576 118.499 290.613 132.496 290.613H144.703V362H85.6211V329.188ZM158.473 329.676H215.992V362H158.473V329.676Z" fill="white"/>
</g>
<defs>
<filter id="filter0_d" x="85.6211" y="109.699" width="138.352" height="257.301" filterUnits="userSpaceOnUse" color-interpolation-filters="sRGB">
<feFlood flood-opacity="0" result="BackgroundImageFix"/>
<feColorMatrix in="SourceAlpha" type="matrix" values="0 0 0 0 0 0 0 0 0 0 0 0 0 0 0 0 0 0 127 0"/>
<feOffset dx="3" dy="5"/>
<feColorMatrix type="matrix" values="0 0 0 0 0.211765 0 0 0 0 0.192157 0 0 0 0 0.192157 0 0 0 1 0"/>
<feBlend mode="normal" in2="BackgroundImageFix" result="effect1_dropShadow"/>
<feBlend mode="normal" in="SourceGraphic" in2="effect1_dropShadow" result="shape"/>
</filter>
<linearGradient id="paint0_linear" x1="313.538" y1="7.03833" x2="8.53835" y2="498.038" gradientUnits="userSpaceOnUse">
<stop stop-color="#4E4948"/>
<stop offset="1" stop-color="#342F2F"/>
</linearGradient>
</defs>
</svg>
