<svg width="321" height="507" viewBox="0 0 321 507" fill="none" xmlns="http://www.w3.org/2000/svg">
<rect x="0.53833" y="0.0383301" width="320" height="506" rx="9" fill="white"/>
<rect x="8.53833" y="7.03833" width="305" height="491" rx="9" fill="url(#paint0_linear)"/>
<path d="M34.1074 50.957H46.5879V37.5098H51.5684V50.957H63.9902V55.9668H51.5684V68.5352H46.5879V55.9668H34.1074V50.957ZM101.49 30.127H103.658C109.732 30.127 114.068 31.1133 116.666 33.0859C119.303 35.0781 120.621 38.3789 120.621 42.9883C120.621 48.9453 117.574 52.5488 111.48 53.7988C109.469 54.209 107.135 54.4141 104.479 54.4141H101.49V30.127ZM80.0156 41.6992C80.0156 37.7734 81.3828 34.8047 84.1172 32.793C86.5586 31.0156 89.8789 30.127 94.0781 30.127H97.7402V43.6328H80.0156V41.6992ZM80.0156 60.1562C80.0156 56.2305 81.3828 53.2617 84.1172 51.25C86.5586 49.4727 89.8789 48.584 94.0781 48.584H97.7402V70H80.0156V60.1562ZM101.871 60.3027H119.127V70H101.871V60.3027Z" fill="white"/>
<path fill-rule="evenodd" clip-rule="evenodd" d="M275.06 325.828C254.03 378.347 211.314 408 162.897 408C106.331 408 57.7438 367.629 43.086 306.536C28.4283 245.443 48.1035 212.945 68.487 182.798C68.9389 182.129 69.3941 181.456 69.8523 180.777L65.7099 209.716C69.8523 280.812 122.748 240.441 110.32 214.361C97.8932 188.28 105.22 146.462 125.934 135.404C127.324 173.214 139.954 197.569 162.897 191.138C185.839 184.707 190.775 162.422 176.28 118C176.28 118 208.605 133.975 220.253 161.128C229.942 183.711 228.363 196.655 227.008 207.773C226.734 210.022 226.468 212.196 226.308 214.361C226.126 216.801 225.474 220.386 224.698 224.655C221.385 242.883 215.805 273.576 234.911 280.812C234.911 280.812 269.325 293.317 277.61 224.007C279.665 206.808 292.302 287.243 275.06 325.828Z" fill="#FF5B51" fill-opacity="0.8"/>
<path fill-rule="evenodd" clip-rule="evenodd" d="M228.186 359.847C214.507 391.901 186.725 410 155.234 410C118.443 410 86.8415 385.36 77.308 348.072C67.7745 310.784 80.5714 290.949 93.8289 272.549C94.1229 272.141 94.4189 271.73 94.717 271.316L92.0227 288.978C94.717 332.372 129.12 307.731 121.038 291.813C112.955 275.895 117.72 250.371 131.193 243.623C132.097 266.699 140.312 281.564 155.234 277.639C170.156 273.714 173.366 260.113 163.938 233C163.938 233 184.962 242.75 192.539 259.323C198.84 273.106 197.814 281.007 196.932 287.792C196.754 289.165 196.581 290.492 196.476 291.813C196.358 293.303 195.935 295.491 195.43 298.096C193.275 309.222 189.646 327.955 202.072 332.372C202.072 332.372 224.455 340.004 229.844 297.701C231.181 287.204 239.4 336.297 228.186 359.847Z" fill="#FF5B51" fill-opacity="0.8"/>
<g filter="url(#filter0_d)">
<path d="M104.195 168.523H145.797V123.699H162.398V168.523H203.805V185.223H162.398V227.117H145.797V185.223H104.195V168.523ZM162.203 243.09H169.43C189.677 243.09 204.13 246.378 212.789 252.953C221.578 259.594 225.973 270.596 225.973 285.961C225.973 305.818 215.816 317.829 195.504 321.996C188.798 323.363 181.018 324.047 172.164 324.047H162.203V243.09ZM90.6211 281.664C90.6211 268.578 95.1784 258.682 104.293 251.977C112.431 246.052 123.499 243.09 137.496 243.09H149.703V288.109H90.6211V281.664ZM90.6211 343.188C90.6211 330.102 95.1784 320.206 104.293 313.5C112.431 307.576 123.499 304.613 137.496 304.613H149.703V376H90.6211V343.188ZM163.473 343.676H220.992V376H163.473V343.676Z" fill="white"/>
</g>
<defs>
<filter id="filter0_d" x="90.6211" y="123.699" width="138.352" height="257.301" filterUnits="userSpaceOnUse" color-interpolation-filters="sRGB">
<feFlood flood-opacity="0" result="BackgroundImageFix"/>
<feColorMatrix in="SourceAlpha" type="matrix" values="0 0 0 0 0 0 0 0 0 0 0 0 0 0 0 0 0 0 127 0"/>
<feOffset dx="3" dy="5"/>
<feColorMatrix type="matrix" values="0 0 0 0 0.211765 0 0 0 0 0.192157 0 0 0 0 0.192157 0 0 0 1 0"/>
<feBlend mode="normal" in2="BackgroundImageFix" result="effect1_dropShadow"/>
<feBlend mode="normal" in="SourceGraphic" in2="effect1_dropShadow" result="shape"/>
</filter>
<linearGradient id="paint0_linear" x1="313.538" y1="7.03833" x2="8.53835" y2="498.038" gradientUnits="userSpaceOnUse">
<stop stop-color="#4E4948"/>
<stop offset="1" stop-color="#342F2F"/>
</linearGradient>
</defs>
</svg>
