<svg width="320" height="506" viewBox="0 0 320 506" fill="none" xmlns="http://www.w3.org/2000/svg">
<rect width="320" height="506" rx="9" fill="white"/>
<rect x="6" y="7" width="305" height="491" rx="9" fill="url(#paint0_linear)"/>
<path d="M249.337 151.558L194.529 143.269C190.291 142.272 187.91 145.594 183.658 155.27C165.336 196.579 137.278 256.637 135.397 263.37C133.516 270.103 138.056 272.948 148.387 271.572L212.131 266.398C212.131 266.398 168.933 366.686 163.237 378.69C157.54 390.694 165.777 398.957 178.547 382.955C191.318 366.953 275.306 247.883 281.575 240.644C287.845 233.405 296.36 219.878 280.299 220.568C264.239 221.258 215.77 225.233 215.77 225.233L244.268 176.522C253.215 162.515 258.978 154.205 249.337 151.558Z" fill="#A1D776"/>
<path d="M184.611 94.0301H119.611C114.523 93.5723 112.345 98.2955 109.111 111.53C95.112 168.064 73.1112 250.53 72.1112 259.53C71.1112 268.53 76.8745 271.298 88.6112 267.53L161.611 248.53C161.611 248.53 129.111 385.53 124.611 402.03C120.111 418.53 131.111 427.53 143.111 404.53C155.111 381.53 231.611 212.53 237.611 202.03C243.611 191.53 251.111 172.53 232.611 176.53C214.111 180.53 158.611 195.03 158.611 195.03L183.111 127.03C191.029 107.33 196.253 95.5541 184.611 94.0301Z" fill="#FDF5B2"/>
<path d="M88.2193 166.675L47.691 177.187C44.4445 177.724 43.8503 181.022 43.9748 189.798C44.3903 227.319 44.0115 282.306 44.8437 288.08C45.6759 293.854 49.7172 294.649 56.4257 290.401L98.8688 266.746C98.8688 266.746 100.764 357.44 100.627 368.458C100.49 379.476 108.805 383.31 112.567 367.025C116.329 350.741 136.692 232.975 138.734 225.457C140.777 217.938 142.38 204.876 131.492 210.363C120.604 215.849 88.3447 233.867 88.3447 233.867L92.6217 187.498C94.3718 173.931 95.7247 165.743 88.2193 166.675Z" fill="#A1D776"/>
<path d="M275.967 275.139L247.601 259.482C245.49 258.057 243.406 259.585 238.82 264.559C219.147 285.76 189.76 316.305 187.164 319.976C184.569 323.647 186.42 326.239 192.446 327.428L228.861 336.754C228.861 336.754 181.809 388.473 175.887 394.561C169.964 400.649 172.605 407.211 183.36 400.104C194.115 392.998 268.047 337.968 273.184 334.849C278.322 331.731 286.153 325.279 277.12 322.561C268.087 319.843 240.388 312.777 240.388 312.777L267.395 289.122C275.576 282.466 280.681 278.606 275.967 275.139Z" fill="#BFF494"/>
<path d="M62.2598 267.661L36.7161 280.342C34.6276 281.156 34.6894 283.429 35.9903 289.24C41.4743 314.099 48.853 350.67 50.2088 354.388C51.5647 358.106 54.3675 358.065 58.2475 354.3L83.2431 332.622C83.2431 332.622 97.0926 392.586 98.5303 399.922C99.9681 407.258 106.04 408.635 106.286 397.291C106.533 385.948 103.756 304.874 104.074 299.594C104.391 294.313 103.647 285.413 97.154 290.588C90.6611 295.763 71.6683 312.266 71.6683 312.266L68.0828 280.87C67.3661 271.615 67.1311 265.986 62.2598 267.661Z" fill="#C8FE9E"/>
<g filter="url(#filter0_d)">
<path d="M172.771 169.862H182.292C215.739 169.862 236.328 185.447 244.06 216.615C246.664 227.195 247.966 239.687 247.966 254.091C247.966 280.784 242.473 301.129 231.486 315.126C220.581 329.042 204.183 336 182.292 336H172.771V169.862ZM90.0068 253.725C84.3102 251.039 80.0378 247.092 77.1895 241.884C74.3411 236.675 72.917 229.514 72.917 220.399C72.917 211.203 74.2191 203.35 76.8232 196.84C79.5088 190.248 83.6999 184.958 89.3965 180.971C99.9759 173.565 118.042 169.862 143.596 169.862H152.629V260.438H140.178C115.926 260.438 99.2028 258.201 90.0068 253.725ZM78.7764 278.993H152.629V336H144.694C121.338 336 104.493 332.257 94.1572 324.77C83.9033 317.364 78.7764 305.035 78.7764 287.782V278.993Z" fill="white"/>
</g>
<path d="M59.0449 32.127H61.3301C69.3574 32.127 74.2988 35.8672 76.1543 43.3477C76.7793 45.8867 77.0918 48.8848 77.0918 52.3418C77.0918 58.748 75.7734 63.6309 73.1367 66.9902C70.5195 70.3301 66.584 72 61.3301 72H59.0449V32.127ZM39.1816 52.2539C37.8145 51.6094 36.7891 50.6621 36.1055 49.4121C35.4219 48.1621 35.0801 46.4434 35.0801 44.2559C35.0801 42.0488 35.3926 40.1641 36.0176 38.6016C36.6621 37.0195 37.668 35.75 39.0352 34.793C41.5742 33.0156 45.9102 32.127 52.043 32.127H54.2109V53.8652H51.2227C45.4023 53.8652 41.3887 53.3281 39.1816 52.2539ZM36.4863 58.3184H54.2109V72H52.3066C46.7012 72 42.6582 71.1016 40.1777 69.3047C37.7168 67.5273 36.4863 64.5684 36.4863 60.4277V58.3184Z" fill="white"/>
<defs>
<filter id="filter0_d" x="72.917" y="169.862" width="178.049" height="171.138" filterUnits="userSpaceOnUse" color-interpolation-filters="sRGB">
<feFlood flood-opacity="0" result="BackgroundImageFix"/>
<feColorMatrix in="SourceAlpha" type="matrix" values="0 0 0 0 0 0 0 0 0 0 0 0 0 0 0 0 0 0 127 0"/>
<feOffset dx="3" dy="5"/>
<feColorMatrix type="matrix" values="0 0 0 0 0.566986 0 0 0 0 0.754167 0 0 0 0 0.417934 0 0 0 1 0"/>
<feBlend mode="normal" in2="BackgroundImageFix" result="effect1_dropShadow"/>
<feBlend mode="normal" in="SourceGraphic" in2="effect1_dropShadow" result="shape"/>
</filter>
<linearGradient id="paint0_linear" x1="311" y1="6.99999" x2="5.99999" y2="498" gradientUnits="userSpaceOnUse">
<stop stop-color="#F9FB90"/>
<stop offset="1" stop-color="#C9C569"/>
</linearGradient>
</defs>
</svg>
