<svg width="320" height="506" viewBox="0 0 320 506" fill="none" xmlns="http://www.w3.org/2000/svg">
<rect width="320" height="506" rx="9" fill="white"/>
<rect x="8" y="7" width="305" height="491" rx="9" fill="url(#paint0_linear)"/>
<circle cx="156.5" cy="247.5" r="127.5" fill="#C0DAE9"/>
<circle cx="173.5" cy="255.5" r="117.5" fill="#A6C8DA"/>
<circle cx="242.5" cy="373.5" r="37.5" fill="#C0DAE9"/>
<circle cx="251.5" cy="170.5" r="24.5" fill="#C0DAE9"/>
<circle cx="160.5" cy="415.5" r="19.5" fill="#C0DAE9"/>
<g filter="url(#filter0_d)">
<path d="M170.742 169.862H242.397L203.335 335.756H131.558L170.742 169.862ZM71.377 169.984H144.131V198.915C144.131 207.948 143.317 214.703 141.689 219.179C140.062 223.573 138.068 227.195 135.708 230.043C133.429 232.891 130.337 235.333 126.431 237.367C118.049 241.843 106.533 244.081 91.8848 244.081H71.377V169.984Z" fill="white"/>
</g>
<path d="M65.5781 30.127H82.7754L73.4004 69.9414H56.1738L65.5781 30.127ZM41.7305 30.1562H59.1914V37.0996C59.1914 39.2676 58.9961 40.8887 58.6055 41.9629C58.2148 43.0176 57.7363 43.8867 57.1699 44.5703C56.623 45.2539 55.8809 45.8398 54.9434 46.3281C52.9316 47.4023 50.168 47.9395 46.6523 47.9395H41.7305V30.1562Z" fill="white"/>
<defs>
<filter id="filter0_d" x="71.377" y="169.862" width="174.021" height="170.894" filterUnits="userSpaceOnUse" color-interpolation-filters="sRGB">
<feFlood flood-opacity="0" result="BackgroundImageFix"/>
<feColorMatrix in="SourceAlpha" type="matrix" values="0 0 0 0 0 0 0 0 0 0 0 0 0 0 0 0 0 0 127 0"/>
<feOffset dx="3" dy="5"/>
<feColorMatrix type="matrix" values="0 0 0 0 0.698039 0 0 0 0 0.65098 0 0 0 0 0.772549 0 0 0 1 0"/>
<feBlend mode="normal" in2="BackgroundImageFix" result="effect1_dropShadow"/>
<feBlend mode="normal" in="SourceGraphic" in2="effect1_dropShadow" result="shape"/>
</filter>
<linearGradient id="paint0_linear" x1="313" y1="6.99999" x2="7.99999" y2="498" gradientUnits="userSpaceOnUse">
<stop stop-color="#BED6E3"/>
<stop offset="1" stop-color="#779FB6"/>
</linearGradient>
</defs>
</svg>
