<svg width="320" height="506" viewBox="0 0 320 506" fill="none" xmlns="http://www.w3.org/2000/svg">
<rect width="320" height="506" rx="9" fill="white"/>
<rect x="8" y="7" width="305" height="491" rx="9" fill="url(#paint0_linear)"/>
<path d="M65.0508 58.0996H59.7188V53.207H65.0508V36.127H67.3066C72.1504 36.127 75.8223 37.1816 78.3223 39.291C80.6465 41.2441 81.8086 43.9688 81.8086 47.4648C81.8086 51.7422 79.0156 54.5254 73.4297 55.8145C78.2148 56.791 81.2129 58.793 82.4238 61.8203C82.7949 62.7383 82.9805 63.8906 82.9805 65.2773C82.9805 66.6641 82.6582 68.0605 82.0137 69.4668C81.3691 70.873 80.4121 72.0547 79.1426 73.0117C76.5449 75.0039 72.7461 76 67.7461 76H65.0508V58.0996ZM43.9863 47.6992C43.9863 43.7734 45.3535 40.8047 48.0879 38.793C50.5293 37.0156 53.8496 36.127 58.0488 36.127H61.7109V49.6328H43.9863V47.6992ZM43.9863 62.4941H61.7109V76H58.0488C51.4863 76 47.1699 73.9102 45.0996 69.7305C44.3574 68.2656 43.9863 66.498 43.9863 64.4277V62.4941Z" fill="white"/>
<path fill-rule="evenodd" clip-rule="evenodd" d="M277.06 308.828C256.03 361.347 213.314 391 164.897 391C108.331 391 59.7438 350.629 45.086 289.536C30.4283 228.443 50.1035 195.945 70.487 165.798C70.9389 165.129 71.3941 164.456 71.8523 163.777L67.7099 192.716C71.8523 263.812 124.748 223.441 112.32 197.361C99.8932 171.28 107.22 129.462 127.934 118.404C129.324 156.214 141.954 180.569 164.897 174.138C187.839 167.707 192.775 145.422 178.28 101C178.28 101 210.605 116.975 222.253 144.128C231.942 166.711 230.363 179.655 229.008 190.773C228.734 193.022 228.468 195.196 228.308 197.361C228.126 199.801 227.474 203.386 226.698 207.655C223.385 225.883 217.805 256.576 236.911 263.812C236.911 263.812 271.325 276.317 279.61 207.007C281.665 189.808 294.302 270.243 277.06 308.828Z" fill="#FF685F"/>
<path fill-rule="evenodd" clip-rule="evenodd" d="M230.186 342.847C216.507 374.901 188.725 393 157.234 393C120.443 393 88.8415 368.36 79.308 331.072C69.7745 293.784 82.5714 273.949 95.8289 255.549C96.1229 255.141 96.4189 254.73 96.717 254.316L94.0227 271.978C96.717 315.372 131.12 290.731 123.038 274.813C114.955 258.895 119.72 233.371 133.193 226.623C134.097 249.699 142.312 264.564 157.234 260.639C172.156 256.714 175.366 243.113 165.938 216C165.938 216 186.962 225.75 194.539 242.323C200.84 256.106 199.814 264.007 198.932 270.792C198.754 272.165 198.581 273.492 198.476 274.813C198.358 276.303 197.935 278.491 197.43 281.096C195.275 292.222 191.646 310.955 204.072 315.372C204.072 315.372 226.455 323.004 231.844 280.701C233.181 270.204 241.4 319.297 230.186 342.847Z" fill="#FF5B51"/>
<g filter="url(#filter0_d)">
<path d="M170.925 265.415H148.708V245.029H170.925V173.862H180.324C200.507 173.862 215.806 178.257 226.223 187.046C235.907 195.184 240.749 206.536 240.749 221.104C240.749 238.926 229.112 250.522 205.837 255.894C225.775 259.963 238.267 268.304 243.312 280.918C244.859 284.743 245.632 289.544 245.632 295.322C245.632 301.1 244.289 306.919 241.604 312.778C238.918 318.638 234.93 323.561 229.641 327.549C218.817 335.85 202.989 340 182.155 340H170.925V265.415ZM83.1562 222.08C83.1562 205.723 88.8529 193.353 100.246 184.971C110.419 177.565 124.253 173.862 141.75 173.862H157.009V230.137H83.1562V222.08ZM83.1562 283.726H157.009V340H141.75C114.406 340 96.4212 331.292 87.7949 313.877C84.7025 307.773 83.1562 300.409 83.1562 291.782V283.726Z" fill="white"/>
</g>
<defs>
<filter id="filter0_d" x="83.1562" y="173.862" width="165.476" height="171.138" filterUnits="userSpaceOnUse" color-interpolation-filters="sRGB">
<feFlood flood-opacity="0" result="BackgroundImageFix"/>
<feColorMatrix in="SourceAlpha" type="matrix" values="0 0 0 0 0 0 0 0 0 0 0 0 0 0 0 0 0 0 127 0"/>
<feOffset dx="3" dy="5"/>
<feColorMatrix type="matrix" values="0 0 0 0 0.8125 0 0 0 0 0.27701 0 0 0 0 0.24375 0 0 0 1 0"/>
<feBlend mode="normal" in2="BackgroundImageFix" result="effect1_dropShadow"/>
<feBlend mode="normal" in="SourceGraphic" in2="effect1_dropShadow" result="shape"/>
</filter>
<linearGradient id="paint0_linear" x1="313" y1="7" x2="8.00002" y2="498" gradientUnits="userSpaceOnUse">
<stop stop-color="#F45349"/>
<stop offset="1" stop-color="#D05048"/>
</linearGradient>
</defs>
</svg>
