<svg width="320" height="506" viewBox="0 0 320 506" fill="none" xmlns="http://www.w3.org/2000/svg">
<rect width="320" height="506" rx="9" fill="white"/>
<rect x="8" y="7" width="305" height="491" rx="9" fill="url(#paint0_linear)"/>
<path d="M276.844 242.777C266.884 179.4 180.284 145.882 174.141 143.698C211.319 190.583 178.73 223.692 179.222 263.076C179.714 302.459 208.263 314.389 219.98 314.784C219.98 314.784 249.762 256.67 210.544 179.476C246.337 221.549 240.451 310.097 235.495 315.335C248.096 309.884 284.703 292.783 276.844 242.777Z" fill="#6CE587"/>
<path d="M77.7486 158.961C27.8093 199.233 42.0058 291.003 43.1805 297.415C65.2413 241.794 110.2 253.5 144.077 233.41C177.955 213.321 174.037 182.628 168.529 172.279C168.529 172.279 103.308 175.49 56.0043 248.011C74.5876 195.992 154.248 156.883 161.261 158.561C150.247 150.364 117.153 127.185 77.7486 158.961Z" fill="#6CE587"/>
<path d="M106.282 376.674C166.525 398.733 237.869 339.293 242.76 334.983C183.722 344.725 170.597 300.161 135.926 281.473C101.256 262.784 76.9669 281.952 70.9335 292.004C70.9335 292.004 107.282 346.252 193.809 349.44C139.65 360.308 65.0936 312.176 62.92 305.3C61.5679 318.963 58.748 359.269 106.282 376.674Z" fill="#6CE587"/>
<path d="M135.866 120.736C110.455 114.207 83.623 143.255 81.7926 145.348C105.5 138.266 112.552 156.778 127.405 163.111C142.258 169.445 151.434 160.015 153.511 155.398C153.511 155.398 136.618 133.862 101.206 136.733C122.88 129.407 155.124 146.441 156.273 149.29C156.303 143.351 155.916 125.887 135.866 120.736Z" fill="#7BFD98"/>
<path d="M81.9287 384.892C108.152 385.737 128.022 351.548 129.353 349.108C107.755 361.177 96.8439 344.642 80.9688 341.691C65.0937 338.74 58.1894 349.941 57.1659 354.899C57.1659 354.899 78.3395 372.244 112.279 361.739C92.717 373.604 57.5402 363.992 55.7993 361.461C57.0615 367.265 61.2378 384.226 81.9287 384.892Z" fill="#5CDC7C"/>
<path d="M284.561 276.565C298.279 254.2 278.413 220.008 276.952 217.643C276.744 242.385 256.976 243.677 246.552 256.008C236.128 268.34 242.44 279.884 246.241 283.228C246.241 283.228 271.795 273.421 279.472 238.732C280.095 261.603 254.327 287.405 251.266 287.665C256.933 289.442 273.737 294.211 284.561 276.565Z" fill="#4EC769"/>
<g filter="url(#filter0_d)">
<path d="M170.254 169.862H244.106V226.869H236.172C212.816 226.869 196.011 223.126 185.757 215.639C175.422 208.233 170.254 195.904 170.254 178.651V169.862ZM140.591 336C96.8083 336 74.917 307.191 74.917 249.574C74.917 221.905 80.3695 201.723 91.2744 189.027C102.261 176.251 118.7 169.862 140.591 169.862H150.112V336H140.591ZM170.254 245.424H182.705C206.224 245.424 222.948 248.272 232.876 253.969C244.269 260.398 249.966 271.913 249.966 288.515C249.966 307.232 244.473 319.968 233.486 326.723C223.395 332.908 205.329 336 179.287 336H170.254V245.424Z" fill="white"/>
</g>
<path d="M61.4609 31.127H79.1855V44.8086H77.2812C71.6758 44.8086 67.6426 43.9102 65.1816 42.1133C62.7012 40.3359 61.4609 37.377 61.4609 33.2363V31.127ZM54.3418 71C43.834 71 38.5801 64.0859 38.5801 50.2578C38.5801 43.6172 39.8887 38.7734 42.5059 35.7266C45.1426 32.6602 49.0879 31.127 54.3418 31.127H56.627V71H54.3418ZM61.4609 49.2617H64.4492C70.0938 49.2617 74.1074 49.9453 76.4902 51.3125C79.2246 52.8555 80.5918 55.6191 80.5918 59.6035C80.5918 64.0957 79.2734 67.1523 76.6367 68.7734C74.2148 70.2578 69.8789 71 63.6289 71H61.4609V49.2617Z" fill="white"/>
<defs>
<filter id="filter0_d" x="74.917" y="169.862" width="178.049" height="171.138" filterUnits="userSpaceOnUse" color-interpolation-filters="sRGB">
<feFlood flood-opacity="0" result="BackgroundImageFix"/>
<feColorMatrix in="SourceAlpha" type="matrix" values="0 0 0 0 0 0 0 0 0 0 0 0 0 0 0 0 0 0 127 0"/>
<feOffset dx="3" dy="5"/>
<feColorMatrix type="matrix" values="0 0 0 0 0.180392 0 0 0 0 0.733333 0 0 0 0 0.364706 0 0 0 1 0"/>
<feBlend mode="normal" in2="BackgroundImageFix" result="effect1_dropShadow"/>
<feBlend mode="normal" in="SourceGraphic" in2="effect1_dropShadow" result="shape"/>
</filter>
<linearGradient id="paint0_linear" x1="313" y1="6.99999" x2="7.99999" y2="498" gradientUnits="userSpaceOnUse">
<stop stop-color="#6EE788"/>
<stop offset="1" stop-color="#2CBA5B"/>
</linearGradient>
</defs>
</svg>
