<svg width="320" height="506" viewBox="0 0 320 506" fill="none" xmlns="http://www.w3.org/2000/svg">
<rect width="320" height="506" rx="9" fill="white"/>
<rect x="8" y="7" width="305" height="491" rx="9" fill="url(#paint0_linear)"/>
<path d="M276.844 242.777C266.884 179.4 180.284 145.882 174.141 143.698C211.319 190.583 178.73 223.692 179.222 263.076C179.714 302.459 208.263 314.389 219.98 314.784C219.98 314.784 249.762 256.67 210.544 179.476C246.337 221.549 240.451 310.097 235.495 315.335C248.096 309.884 284.703 292.783 276.844 242.777Z" fill="#6CE587"/>
<path d="M77.7486 158.961C27.8093 199.233 42.0058 291.003 43.1805 297.415C65.2413 241.794 110.2 253.5 144.077 233.41C177.955 213.321 174.037 182.628 168.529 172.279C168.529 172.279 103.308 175.49 56.0043 248.011C74.5876 195.992 154.248 156.883 161.261 158.561C150.247 150.364 117.153 127.185 77.7486 158.961Z" fill="#6CE587"/>
<path d="M106.282 376.674C166.525 398.733 237.869 339.293 242.76 334.983C183.722 344.725 170.597 300.161 135.926 281.473C101.256 262.784 76.9669 281.952 70.9335 292.004C70.9335 292.004 107.282 346.252 193.809 349.44C139.65 360.308 65.0936 312.176 62.92 305.3C61.5679 318.963 58.748 359.269 106.282 376.674Z" fill="#6CE587"/>
<path d="M135.866 120.736C110.455 114.207 83.623 143.255 81.7926 145.348C105.5 138.266 112.552 156.778 127.405 163.111C142.258 169.445 151.434 160.015 153.511 155.398C153.511 155.398 136.618 133.862 101.206 136.733C122.88 129.407 155.124 146.441 156.273 149.29C156.303 143.351 155.916 125.887 135.866 120.736Z" fill="#7BFD98"/>
<path d="M81.9288 384.892C108.152 385.737 128.022 351.548 129.354 349.108C107.755 361.177 96.8441 344.642 80.969 341.691C65.0939 338.74 58.1895 349.941 57.166 354.899C57.166 354.899 78.3396 372.244 112.279 361.739C92.7171 373.604 57.5404 363.992 55.7994 361.461C57.0616 367.265 61.2379 384.226 81.9288 384.892Z" fill="#5CDC7C"/>
<path d="M284.561 276.565C298.279 254.2 278.413 220.008 276.952 217.643C276.744 242.385 256.976 243.677 246.552 256.008C236.128 268.34 242.44 279.884 246.241 283.228C246.241 283.228 271.795 273.421 279.472 238.732C280.095 261.603 254.327 287.405 251.266 287.665C256.933 289.442 273.737 294.211 284.561 276.565Z" fill="#4EC769"/>
<g filter="url(#filter0_d)">
<path d="M220.913 252.016C237.433 258.607 245.693 270.082 245.693 286.439C245.693 301.576 239.956 313.539 228.481 322.328C216.6 331.443 200.365 336 179.775 336H168.545V169.862H177.944C198.208 169.862 213.955 174.867 225.186 184.877C235.602 194.154 240.811 205.954 240.811 220.277C240.811 234.519 234.259 245.098 221.157 252.016H220.913ZM97.3779 252.016C84.3571 245.18 77.8467 234.763 77.8467 220.766C77.8467 206.117 83.055 194.154 93.4717 184.877C104.702 174.867 120.449 169.862 140.713 169.862H150.112V336H138.882C118.293 336 102.057 331.443 90.1758 322.328C78.7012 313.539 72.9639 301.291 72.9639 285.585C72.9639 269.797 81.1833 258.607 97.6221 252.016H97.3779Z" fill="white"/>
</g>
<path d="M76.1191 51.8438C80.084 53.4258 82.0664 56.1797 82.0664 60.1055C82.0664 63.7383 80.6895 66.6094 77.9355 68.7188C75.084 70.9062 71.1875 72 66.2461 72H63.5508V32.127H65.8066C70.6699 32.127 74.4492 33.3281 77.1445 35.7305C79.6445 37.957 80.8945 40.7891 80.8945 44.2266C80.8945 47.6445 79.3223 50.1836 76.1777 51.8438H76.1191ZM46.4707 51.8438C43.3457 50.2031 41.7832 47.7031 41.7832 44.3438C41.7832 40.8281 43.0332 37.957 45.5332 35.7305C48.2285 33.3281 52.0078 32.127 56.8711 32.127H59.127V72H56.4316C51.4902 72 47.5938 70.9062 44.7422 68.7188C41.9883 66.6094 40.6113 63.6699 40.6113 59.9004C40.6113 56.1113 42.584 53.4258 46.5293 51.8438H46.4707Z" fill="white"/>
<defs>
<filter id="filter0_d" x="72.9639" y="169.862" width="175.729" height="171.138" filterUnits="userSpaceOnUse" color-interpolation-filters="sRGB">
<feFlood flood-opacity="0" result="BackgroundImageFix"/>
<feColorMatrix in="SourceAlpha" type="matrix" values="0 0 0 0 0 0 0 0 0 0 0 0 0 0 0 0 0 0 127 0"/>
<feOffset dx="3" dy="5"/>
<feColorMatrix type="matrix" values="0 0 0 0 0.180392 0 0 0 0 0.733333 0 0 0 0 0.364706 0 0 0 1 0"/>
<feBlend mode="normal" in2="BackgroundImageFix" result="effect1_dropShadow"/>
<feBlend mode="normal" in="SourceGraphic" in2="effect1_dropShadow" result="shape"/>
</filter>
<linearGradient id="paint0_linear" x1="313" y1="6.99999" x2="7.99999" y2="498" gradientUnits="userSpaceOnUse">
<stop stop-color="#6EE788"/>
<stop offset="1" stop-color="#2CBA5B"/>
</linearGradient>
</defs>
</svg>
