<svg width="320" height="506" viewBox="0 0 320 506" fill="none" xmlns="http://www.w3.org/2000/svg">
<rect width="320" height="506" rx="9" fill="white"/>
<rect x="6" y="7" width="305" height="491" rx="9" fill="url(#paint0_linear)"/>
<path d="M249.337 151.558L194.529 143.269C190.291 142.272 187.91 145.594 183.658 155.27C165.336 196.579 137.278 256.637 135.397 263.37C133.516 270.103 138.056 272.948 148.387 271.572L212.131 266.398C212.131 266.398 168.933 366.686 163.237 378.69C157.54 390.694 165.777 398.957 178.547 382.955C191.318 366.953 275.306 247.883 281.575 240.644C287.845 233.405 296.36 219.878 280.299 220.568C264.239 221.258 215.77 225.233 215.77 225.233L244.268 176.522C253.215 162.515 258.978 154.205 249.337 151.558Z" fill="#A1D776"/>
<path d="M184.611 94.0301H119.611C114.523 93.5723 112.345 98.2955 109.111 111.53C95.112 168.064 73.1112 250.53 72.1112 259.53C71.1112 268.53 76.8745 271.298 88.6112 267.53L161.611 248.53C161.611 248.53 129.111 385.53 124.611 402.03C120.111 418.53 131.111 427.53 143.111 404.53C155.111 381.53 231.611 212.53 237.611 202.03C243.611 191.53 251.111 172.53 232.611 176.53C214.111 180.53 158.611 195.03 158.611 195.03L183.111 127.03C191.029 107.33 196.253 95.5541 184.611 94.0301Z" fill="#FDF5B2"/>
<path d="M88.2193 166.675L47.691 177.187C44.4445 177.724 43.8503 181.022 43.9748 189.798C44.3903 227.319 44.0115 282.306 44.8437 288.08C45.6759 293.854 49.7172 294.649 56.4257 290.401L98.8688 266.746C98.8688 266.746 100.764 357.44 100.627 368.458C100.49 379.476 108.805 383.31 112.567 367.025C116.329 350.741 136.692 232.975 138.734 225.457C140.777 217.938 142.38 204.876 131.492 210.363C120.604 215.849 88.3447 233.867 88.3447 233.867L92.6217 187.498C94.3718 173.931 95.7247 165.743 88.2193 166.675Z" fill="#A1D776"/>
<path d="M275.966 275.139L247.601 259.482C245.49 258.057 243.406 259.585 238.82 264.559C219.147 285.76 189.76 316.305 187.164 319.976C184.569 323.647 186.42 326.239 192.446 327.428L228.861 336.754C228.861 336.754 181.809 388.473 175.886 394.561C169.964 400.649 172.605 407.211 183.36 400.104C194.115 392.998 268.046 337.968 273.184 334.849C278.322 331.731 286.153 325.279 277.12 322.561C268.087 319.843 240.388 312.777 240.388 312.777L267.394 289.122C275.576 282.466 280.681 278.606 275.966 275.139Z" fill="#BFF494"/>
<path d="M62.2598 267.661L36.7161 280.342C34.6276 281.156 34.6894 283.429 35.9903 289.24C41.4743 314.099 48.853 350.67 50.2088 354.388C51.5647 358.106 54.3675 358.065 58.2475 354.3L83.2431 332.622C83.2431 332.622 97.0926 392.586 98.5303 399.922C99.9681 407.258 106.04 408.635 106.286 397.291C106.533 385.948 103.756 304.874 104.074 299.594C104.391 294.313 103.647 285.413 97.154 290.588C90.6611 295.763 71.6683 312.266 71.6683 312.266L68.0828 280.87C67.3661 271.615 67.1311 265.986 62.2598 267.661Z" fill="#C8FE9E"/>
<g filter="url(#filter0_d)">
<path d="M168.254 169.862H242.106V226.869H234.172C210.816 226.869 194.011 223.126 183.757 215.639C173.422 208.233 168.254 195.904 168.254 178.651V169.862ZM138.591 336C94.8083 336 72.917 307.191 72.917 249.574C72.917 221.905 78.3695 201.723 89.2744 189.027C100.261 176.251 116.7 169.862 138.591 169.862H148.112V336H138.591ZM168.254 245.424H180.705C204.224 245.424 220.948 248.272 230.876 253.969C242.269 260.398 247.966 271.913 247.966 288.515C247.966 307.232 242.473 319.968 231.486 326.723C221.395 332.908 203.329 336 177.287 336H168.254V245.424Z" fill="white"/>
</g>
<path d="M63.9609 34.127H81.6855V47.8086H79.7812C74.1758 47.8086 70.1426 46.9102 67.6816 45.1133C65.2012 43.3359 63.9609 40.377 63.9609 36.2363V34.127ZM56.8418 74C46.334 74 41.0801 67.0859 41.0801 53.2578C41.0801 46.6172 42.3887 41.7734 45.0059 38.7266C47.6426 35.6602 51.5879 34.127 56.8418 34.127H59.127V74H56.8418ZM63.9609 52.2617H66.9492C72.5938 52.2617 76.6074 52.9453 78.9902 54.3125C81.7246 55.8555 83.0918 58.6191 83.0918 62.6035C83.0918 67.0957 81.7734 70.1523 79.1367 71.7734C76.7148 73.2578 72.3789 74 66.1289 74H63.9609V52.2617Z" fill="white"/>
<defs>
<filter id="filter0_d" x="72.917" y="169.862" width="178.049" height="171.138" filterUnits="userSpaceOnUse" color-interpolation-filters="sRGB">
<feFlood flood-opacity="0" result="BackgroundImageFix"/>
<feColorMatrix in="SourceAlpha" type="matrix" values="0 0 0 0 0 0 0 0 0 0 0 0 0 0 0 0 0 0 127 0"/>
<feOffset dx="3" dy="5"/>
<feColorMatrix type="matrix" values="0 0 0 0 0.566986 0 0 0 0 0.754167 0 0 0 0 0.417934 0 0 0 1 0"/>
<feBlend mode="normal" in2="BackgroundImageFix" result="effect1_dropShadow"/>
<feBlend mode="normal" in="SourceGraphic" in2="effect1_dropShadow" result="shape"/>
</filter>
<linearGradient id="paint0_linear" x1="311" y1="6.99999" x2="5.99999" y2="498" gradientUnits="userSpaceOnUse">
<stop stop-color="#F9FB90"/>
<stop offset="1" stop-color="#C9C569"/>
</linearGradient>
</defs>
</svg>
