<svg width="320" height="506" viewBox="0 0 320 506" fill="none" xmlns="http://www.w3.org/2000/svg">
<rect width="320" height="506" rx="9" fill="white"/>
<rect x="8" y="7" width="305" height="491" rx="9" fill="url(#paint0_linear)"/>
<path d="M62.5449 35.127H64.8301C72.8574 35.127 77.7988 38.8672 79.6543 46.3477C80.2793 48.8867 80.5918 51.8848 80.5918 55.3418C80.5918 61.748 79.2734 66.6309 76.6367 69.9902C74.0195 73.3301 70.084 75 64.8301 75H62.5449V35.127ZM42.6816 55.2539C41.3145 54.6094 40.2891 53.6621 39.6055 52.4121C38.9219 51.1621 38.5801 49.4434 38.5801 47.2559C38.5801 45.0488 38.8926 43.1641 39.5176 41.6016C40.1621 40.0195 41.168 38.75 42.5352 37.793C45.0742 36.0156 49.4102 35.127 55.543 35.127H57.7109V56.8652H54.7227C48.9023 56.8652 44.8887 56.3281 42.6816 55.2539ZM39.9863 61.3184H57.7109V75H55.8066C50.2012 75 46.1582 74.1016 43.6777 72.3047C41.2168 70.5273 39.9863 67.5684 39.9863 63.4277V61.3184Z" fill="white"/>
<path fill-rule="evenodd" clip-rule="evenodd" d="M277.06 308.828C256.03 361.347 213.314 391 164.897 391C108.331 391 59.7438 350.629 45.086 289.536C30.4283 228.443 50.1035 195.945 70.487 165.798C70.9389 165.129 71.3941 164.456 71.8523 163.777L67.7099 192.716C71.8523 263.812 124.748 223.441 112.32 197.361C99.8932 171.28 107.22 129.462 127.934 118.404C129.324 156.214 141.954 180.569 164.897 174.138C187.839 167.707 192.775 145.422 178.28 101C178.28 101 210.605 116.975 222.253 144.128C231.942 166.711 230.363 179.655 229.008 190.773C228.734 193.022 228.468 195.196 228.308 197.361C228.126 199.801 227.474 203.386 226.698 207.655C223.385 225.883 217.805 256.576 236.911 263.812C236.911 263.812 271.325 276.317 279.61 207.007C281.665 189.808 294.302 270.243 277.06 308.828Z" fill="#FF685F"/>
<path fill-rule="evenodd" clip-rule="evenodd" d="M230.186 342.847C216.507 374.901 188.725 393 157.234 393C120.443 393 88.8415 368.36 79.308 331.072C69.7745 293.784 82.5714 273.949 95.8289 255.549C96.1229 255.141 96.4189 254.73 96.717 254.316L94.0227 271.978C96.717 315.372 131.12 290.731 123.038 274.813C114.955 258.895 119.72 233.371 133.193 226.623C134.097 249.699 142.312 264.564 157.234 260.639C172.156 256.714 175.366 243.113 165.938 216C165.938 216 186.962 225.75 194.539 242.323C200.84 256.106 199.814 264.007 198.932 270.792C198.754 272.165 198.581 273.492 198.476 274.813C198.358 276.303 197.935 278.491 197.43 281.096C195.275 292.222 191.646 310.955 204.072 315.372C204.072 315.372 226.455 323.004 231.844 280.701C233.181 270.204 241.4 319.297 230.186 342.847Z" fill="#FF5B51"/>
<g filter="url(#filter0_d)">
<path d="M177.15 173.862H186.672C220.119 173.862 240.708 189.447 248.439 220.615C251.044 231.195 252.346 243.687 252.346 258.091C252.346 284.784 246.853 305.129 235.866 319.126C224.961 333.042 208.563 340 186.672 340H177.15V173.862ZM94.3867 257.725C88.6901 255.039 84.4176 251.092 81.5693 245.884C78.721 240.675 77.2969 233.514 77.2969 224.399C77.2969 215.203 78.599 207.35 81.2031 200.84C83.8887 194.248 88.0798 188.958 93.7764 184.971C104.356 177.565 122.422 173.862 147.976 173.862H157.009V264.438H144.558C120.306 264.438 103.583 262.201 94.3867 257.725ZM83.1562 282.993H157.009V340H149.074C125.718 340 108.872 336.257 98.5371 328.77C88.2832 321.364 83.1562 309.035 83.1562 291.782V282.993Z" fill="white"/>
</g>
<defs>
<filter id="filter0_d" x="77.2969" y="173.862" width="178.049" height="171.138" filterUnits="userSpaceOnUse" color-interpolation-filters="sRGB">
<feFlood flood-opacity="0" result="BackgroundImageFix"/>
<feColorMatrix in="SourceAlpha" type="matrix" values="0 0 0 0 0 0 0 0 0 0 0 0 0 0 0 0 0 0 127 0"/>
<feOffset dx="3" dy="5"/>
<feColorMatrix type="matrix" values="0 0 0 0 0.8125 0 0 0 0 0.27701 0 0 0 0 0.24375 0 0 0 1 0"/>
<feBlend mode="normal" in2="BackgroundImageFix" result="effect1_dropShadow"/>
<feBlend mode="normal" in="SourceGraphic" in2="effect1_dropShadow" result="shape"/>
</filter>
<linearGradient id="paint0_linear" x1="313" y1="7" x2="8.00002" y2="498" gradientUnits="userSpaceOnUse">
<stop stop-color="#F45349"/>
<stop offset="1" stop-color="#D05048"/>
</linearGradient>
</defs>
</svg>
