<svg width="320" height="506" viewBox="0 0 320 506" fill="none" xmlns="http://www.w3.org/2000/svg">
<rect width="320" height="506" rx="9" fill="white"/>
<rect x="8" y="7" width="305" height="491" rx="9" fill="url(#paint0_linear)"/>
<path fill-rule="evenodd" clip-rule="evenodd" d="M274.06 308.828C253.03 361.347 210.314 391 161.897 391C105.331 391 56.7438 350.629 42.086 289.536C27.4283 228.443 47.1035 195.945 67.487 165.798C67.9389 165.129 68.3941 164.456 68.8523 163.777L64.7099 192.716C68.8523 263.812 121.748 223.441 109.32 197.361C96.8932 171.28 104.22 129.462 124.934 118.404C126.324 156.214 138.954 180.569 161.897 174.138C184.839 167.707 189.775 145.422 175.28 101C175.28 101 207.605 116.975 219.253 144.128C228.942 166.711 227.363 179.655 226.008 190.773C225.734 193.022 225.468 195.196 225.308 197.361C225.126 199.801 224.474 203.386 223.698 207.655C220.385 225.883 214.805 256.576 233.911 263.812C233.911 263.812 268.325 276.317 276.61 207.007C278.665 189.808 291.302 270.243 274.06 308.828Z" fill="#FF685F"/>
<path fill-rule="evenodd" clip-rule="evenodd" d="M227.186 342.847C213.507 374.901 185.725 393 154.234 393C117.443 393 85.8415 368.36 76.308 331.072C66.7745 293.784 79.5714 273.949 92.8289 255.549C93.1229 255.141 93.4189 254.73 93.717 254.316L91.0227 271.978C93.717 315.372 128.12 290.731 120.038 274.813C111.955 258.895 116.72 233.371 130.193 226.623C131.097 249.699 139.312 264.564 154.234 260.639C169.156 256.714 172.366 243.113 162.938 216C162.938 216 183.962 225.75 191.539 242.323C197.84 256.106 196.814 264.007 195.932 270.792C195.754 272.165 195.581 273.492 195.476 274.813C195.358 276.303 194.935 278.491 194.43 281.096C192.275 292.222 188.646 310.955 201.072 315.372C201.072 315.372 223.455 323.004 228.844 280.701C230.181 270.204 238.4 319.297 227.186 342.847Z" fill="#FF5B51"/>
<g filter="url(#filter0_d)">
<path d="M124.369 193.511L196.391 173.491V345H124.369V193.511Z" fill="white"/>
</g>
<path d="M45.8574 37.6426L63.1426 32.8379V74H45.8574V37.6426Z" fill="white"/>
<defs>
<filter id="filter0_d" x="124.369" y="173.491" width="75.0215" height="176.509" filterUnits="userSpaceOnUse" color-interpolation-filters="sRGB">
<feFlood flood-opacity="0" result="BackgroundImageFix"/>
<feColorMatrix in="SourceAlpha" type="matrix" values="0 0 0 0 0 0 0 0 0 0 0 0 0 0 0 0 0 0 127 0"/>
<feOffset dx="3" dy="5"/>
<feColorMatrix type="matrix" values="0 0 0 0 0.8125 0 0 0 0 0.27701 0 0 0 0 0.24375 0 0 0 1 0"/>
<feBlend mode="normal" in2="BackgroundImageFix" result="effect1_dropShadow"/>
<feBlend mode="normal" in="SourceGraphic" in2="effect1_dropShadow" result="shape"/>
</filter>
<linearGradient id="paint0_linear" x1="313" y1="7" x2="8.00002" y2="498" gradientUnits="userSpaceOnUse">
<stop stop-color="#F45349"/>
<stop offset="1" stop-color="#D05048"/>
</linearGradient>
</defs>
</svg>
