<svg width="320" height="506" viewBox="0 0 320 506" fill="none" xmlns="http://www.w3.org/2000/svg">
<rect width="320" height="506" rx="9" fill="white"/>
<rect x="8" y="7" width="305" height="491" rx="9" fill="url(#paint0_linear)"/>
<circle cx="156.5" cy="247.5" r="127.5" fill="#C0DAE9"/>
<circle cx="173.5" cy="255.5" r="117.5" fill="#A6C8DA"/>
<circle cx="242.5" cy="373.5" r="37.5" fill="#C0DAE9"/>
<circle cx="251.5" cy="170.5" r="24.5" fill="#C0DAE9"/>
<circle cx="160.5" cy="415.5" r="19.5" fill="#C0DAE9"/>
<g filter="url(#filter0_d)">
<path d="M171.841 169.862H243.74V204.164H171.841V169.862ZM80.7764 169.862H154.629V252.992L80.7764 252.87V169.862ZM170.254 229.921H182.705C204.84 229.921 221.564 234.519 232.876 243.715C244.269 252.911 249.966 266.216 249.966 283.632C249.966 302.756 244.473 316.306 233.486 324.281C222.744 332.094 204.678 336 179.287 336H170.254V229.921ZM80.7764 279.726H154.629V336H139.37C112.026 336 94.0413 327.292 85.415 309.877C82.3226 303.773 80.7764 296.409 80.7764 287.782V279.726Z" fill="white"/>
</g>
<path d="M63.3418 30.127H80.5977V38.3594H63.3418V30.127ZM41.4863 30.127H59.2109V50.0781L41.4863 50.0488V30.127ZM62.9609 44.541H65.9492C71.2617 44.541 75.2754 45.6445 77.9902 47.8516C80.7246 50.0586 82.0918 53.252 82.0918 57.4316C82.0918 62.0215 80.7734 65.2734 78.1367 67.1875C75.5586 69.0625 71.2227 70 65.1289 70H62.9609V44.541ZM41.4863 56.4941H59.2109V70H55.5488C48.9863 70 44.6699 67.9102 42.5996 63.7305C41.8574 62.2656 41.4863 60.498 41.4863 58.4277V56.4941Z" fill="white"/>
<defs>
<filter id="filter0_d" x="80.7764" y="169.862" width="172.189" height="171.138" filterUnits="userSpaceOnUse" color-interpolation-filters="sRGB">
<feFlood flood-opacity="0" result="BackgroundImageFix"/>
<feColorMatrix in="SourceAlpha" type="matrix" values="0 0 0 0 0 0 0 0 0 0 0 0 0 0 0 0 0 0 127 0"/>
<feOffset dx="3" dy="5"/>
<feColorMatrix type="matrix" values="0 0 0 0 0.698039 0 0 0 0 0.65098 0 0 0 0 0.772549 0 0 0 1 0"/>
<feBlend mode="normal" in2="BackgroundImageFix" result="effect1_dropShadow"/>
<feBlend mode="normal" in="SourceGraphic" in2="effect1_dropShadow" result="shape"/>
</filter>
<linearGradient id="paint0_linear" x1="313" y1="6.99999" x2="7.99999" y2="498" gradientUnits="userSpaceOnUse">
<stop stop-color="#BED6E3"/>
<stop offset="1" stop-color="#779FB6"/>
</linearGradient>
</defs>
</svg>
