<svg width="320" height="506" viewBox="0 0 320 506" fill="none" xmlns="http://www.w3.org/2000/svg">
<rect width="320" height="506" rx="9" fill="white"/>
<rect x="8" y="7" width="305" height="491" rx="9" fill="url(#paint0_linear)"/>
<path d="M276.844 242.777C266.884 179.4 180.284 145.882 174.141 143.698C211.319 190.583 178.73 223.692 179.222 263.076C179.714 302.459 208.263 314.389 219.98 314.784C219.98 314.784 249.762 256.67 210.544 179.476C246.337 221.549 240.451 310.097 235.495 315.335C248.096 309.884 284.703 292.783 276.844 242.777Z" fill="#6CE587"/>
<path d="M77.7486 158.961C27.8093 199.233 42.0058 291.003 43.1805 297.415C65.2413 241.794 110.2 253.5 144.077 233.41C177.955 213.321 174.037 182.628 168.529 172.279C168.529 172.279 103.308 175.49 56.0043 248.011C74.5876 195.992 154.248 156.883 161.261 158.561C150.247 150.364 117.153 127.185 77.7486 158.961Z" fill="#6CE587"/>
<path d="M106.282 376.674C166.525 398.733 237.869 339.293 242.76 334.983C183.722 344.725 170.597 300.161 135.926 281.473C101.256 262.784 76.9669 281.952 70.9335 292.004C70.9335 292.004 107.282 346.252 193.809 349.44C139.65 360.308 65.0936 312.176 62.92 305.3C61.5679 318.963 58.748 359.269 106.282 376.674Z" fill="#6CE587"/>
<path d="M135.866 120.736C110.455 114.207 83.623 143.255 81.7926 145.348C105.5 138.266 112.552 156.778 127.405 163.111C142.258 169.445 151.434 160.015 153.511 155.398C153.511 155.398 136.618 133.862 101.206 136.733C122.88 129.407 155.124 146.441 156.273 149.29C156.303 143.351 155.916 125.887 135.866 120.736Z" fill="#7BFD98"/>
<path d="M81.9288 384.892C108.152 385.737 128.022 351.548 129.354 349.108C107.755 361.177 96.8441 344.642 80.969 341.691C65.0939 338.74 58.1895 349.941 57.166 354.899C57.166 354.899 78.3396 372.244 112.279 361.739C92.7171 373.604 57.5404 363.992 55.7994 361.461C57.0616 367.265 61.2379 384.226 81.9288 384.892Z" fill="#5CDC7C"/>
<path d="M284.561 276.565C298.279 254.2 278.413 220.008 276.952 217.643C276.744 242.385 256.976 243.677 246.552 256.008C236.128 268.34 242.44 279.884 246.241 283.228C246.241 283.228 271.795 273.421 279.472 238.732C280.095 261.603 254.327 287.405 251.266 287.665C256.933 289.442 273.737 294.211 284.561 276.565Z" fill="#4EC769"/>
<g filter="url(#filter0_d)">
<path d="M174.771 169.862H184.292C217.739 169.862 238.328 185.447 246.06 216.615C248.664 227.195 249.966 239.687 249.966 254.091C249.966 280.784 244.473 301.129 233.486 315.126C222.581 329.042 206.183 336 184.292 336H174.771V169.862ZM92.0068 253.725C86.3102 251.039 82.0378 247.092 79.1895 241.884C76.3411 236.675 74.917 229.514 74.917 220.399C74.917 211.203 76.2191 203.35 78.8232 196.84C81.5088 190.248 85.6999 184.958 91.3965 180.971C101.976 173.565 120.042 169.862 145.596 169.862H154.629V260.438H142.178C117.926 260.438 101.203 258.201 92.0068 253.725ZM80.7764 278.993H154.629V336H146.694C123.338 336 106.493 332.257 96.1572 324.77C85.9033 317.364 80.7764 305.035 80.7764 287.782V278.993Z" fill="white"/>
</g>
<path d="M63.0449 34.127H65.3301C73.3574 34.127 78.2988 37.8672 80.1543 45.3477C80.7793 47.8867 81.0918 50.8848 81.0918 54.3418C81.0918 60.748 79.7734 65.6309 77.1367 68.9902C74.5195 72.3301 70.584 74 65.3301 74H63.0449V34.127ZM43.1816 54.2539C41.8145 53.6094 40.7891 52.6621 40.1055 51.4121C39.4219 50.1621 39.0801 48.4434 39.0801 46.2559C39.0801 44.0488 39.3926 42.1641 40.0176 40.6016C40.6621 39.0195 41.668 37.75 43.0352 36.793C45.5742 35.0156 49.9102 34.127 56.043 34.127H58.2109V55.8652H55.2227C49.4023 55.8652 45.3887 55.3281 43.1816 54.2539ZM40.4863 60.3184H58.2109V74H56.3066C50.7012 74 46.6582 73.1016 44.1777 71.3047C41.7168 69.5273 40.4863 66.5684 40.4863 62.4277V60.3184Z" fill="white"/>
<defs>
<filter id="filter0_d" x="74.917" y="169.862" width="178.049" height="171.138" filterUnits="userSpaceOnUse" color-interpolation-filters="sRGB">
<feFlood flood-opacity="0" result="BackgroundImageFix"/>
<feColorMatrix in="SourceAlpha" type="matrix" values="0 0 0 0 0 0 0 0 0 0 0 0 0 0 0 0 0 0 127 0"/>
<feOffset dx="3" dy="5"/>
<feColorMatrix type="matrix" values="0 0 0 0 0.180392 0 0 0 0 0.733333 0 0 0 0 0.364706 0 0 0 1 0"/>
<feBlend mode="normal" in2="BackgroundImageFix" result="effect1_dropShadow"/>
<feBlend mode="normal" in="SourceGraphic" in2="effect1_dropShadow" result="shape"/>
</filter>
<linearGradient id="paint0_linear" x1="313" y1="6.99999" x2="7.99999" y2="498" gradientUnits="userSpaceOnUse">
<stop stop-color="#6EE788"/>
<stop offset="1" stop-color="#2CBA5B"/>
</linearGradient>
</defs>
</svg>
