<svg width="364" height="507" viewBox="0 0 364 507" fill="none" xmlns="http://www.w3.org/2000/svg">
<rect x="15.5383" y="0.038208" width="320" height="506" rx="9" fill="white"/>
<rect x="23.5383" y="7.03821" width="305" height="491" rx="9" fill="url(#paint0_linear)"/>
<path d="M239.522 213.76L248.827 223.065C268.645 242.883 277.749 264.232 276.137 287.112C274.607 307.816 264.657 327.352 246.289 345.721C227.599 364.411 207.619 373.756 186.351 373.756C164.115 373.756 142.847 363.605 122.545 343.304L116.261 337.02L239.522 213.76ZM87.5007 187.899C96.3626 179.037 105.748 171.988 115.657 166.751C125.647 161.434 135.959 158.373 146.593 157.567C169.473 155.956 190.822 165.06 210.64 184.878L219.945 194.183L96.6848 317.443L90.4009 311.159C70.0992 290.858 59.9484 269.589 59.9484 247.354C59.9484 226.086 69.1325 206.267 87.5007 187.899Z" fill="#363131"/>
<path fill-rule="evenodd" clip-rule="evenodd" d="M166.577 215.769C157.259 238.95 138.332 252.038 116.879 252.038C91.8149 252.038 70.2866 234.219 63.7919 207.254C57.2972 180.289 66.0151 165.945 75.0468 152.638C75.247 152.343 75.4487 152.046 75.6518 151.747L73.8163 164.52C75.6518 195.9 99.0891 178.081 93.5827 166.57C88.0764 155.058 91.3228 136.6 100.501 131.72C101.117 148.408 106.713 159.158 116.879 156.32C127.044 153.481 129.232 143.645 122.809 124.038C122.809 124.038 137.131 131.089 142.293 143.074C146.586 153.041 145.886 158.755 145.286 163.662C145.164 164.654 145.047 165.614 144.975 166.57C144.895 167.647 144.606 169.229 144.262 171.113C142.794 179.159 140.322 192.706 148.787 195.9C148.787 195.9 164.036 201.419 167.707 170.827C168.618 163.236 174.217 198.738 166.577 215.769Z" fill="#FF5B51"/>
<path fill-rule="evenodd" clip-rule="evenodd" d="M145.958 230.937C139.888 245.062 127.56 253.038 113.586 253.038C97.2597 253.038 83.2367 242.179 79.0063 225.748C74.7758 209.316 80.4544 200.575 86.3374 192.466C86.4679 192.286 86.5992 192.105 86.7315 191.923L85.5359 199.706C86.7315 218.829 101.998 207.97 98.4113 200.956C94.8246 193.941 96.9392 182.693 102.918 179.719C103.319 189.889 106.964 196.439 113.586 194.71C120.207 192.98 121.632 186.986 117.448 175.038C117.448 175.038 126.778 179.335 130.14 186.638C132.936 192.712 132.481 196.194 132.089 199.184C132.01 199.789 131.934 200.374 131.887 200.956C131.835 201.612 131.647 202.576 131.423 203.724C130.466 208.627 128.856 216.882 134.37 218.829C134.37 218.829 144.303 222.192 146.694 203.55C147.287 198.924 150.934 220.559 145.958 230.937Z" fill="#FF5B51"/>
<circle cx="236.736" cy="326.448" r="52.7613" fill="#C0DAE9"/>
<circle cx="243.771" cy="329.758" r="48.6232" fill="#A6C8DA"/>
<circle cx="272.324" cy="378.588" r="15.518" fill="#C0DAE9"/>
<circle cx="276.048" cy="294.584" r="10.1384" fill="#C0DAE9"/>
<circle cx="238.391" cy="395.969" r="8.06938" fill="#C0DAE9"/>
<path d="M58.4353 39.0792L60.0304 37.4841C63.4278 34.0867 67.0877 32.5261 71.0099 32.8023C74.5592 33.0647 77.9083 34.7703 81.0572 37.9191C84.2612 41.1232 85.8633 44.5483 85.8633 48.1943C85.8633 52.006 84.1231 55.652 80.6429 59.1323L79.5656 60.2096L58.4353 39.0792ZM54.0021 65.14C52.4829 63.6208 51.2744 62.0119 50.3767 60.3131C49.4652 58.6006 48.9404 56.8329 48.8023 55.0098C48.5261 51.0876 50.0867 47.4278 53.4842 44.0304L55.0793 42.4352L76.2096 63.5656L75.1324 64.6428C71.6521 68.1231 68.0061 69.8632 64.1943 69.8632C60.5483 69.8632 57.1509 68.2888 54.0021 65.14Z" fill="white"/>
<path d="M275.945 147.229L253.414 143.821C251.672 143.411 250.694 144.777 248.946 148.755C241.414 165.736 229.88 190.424 229.107 193.192C228.333 195.96 230.2 197.129 234.447 196.564L260.65 194.437C260.65 194.437 242.893 235.663 240.551 240.598C238.209 245.532 241.595 248.929 246.845 242.351C252.094 235.773 286.62 186.825 289.197 183.85C291.775 180.874 295.275 175.313 288.673 175.597C282.071 175.881 262.146 177.515 262.146 177.515L273.861 157.491C277.539 151.733 279.908 148.317 275.945 147.229Z" fill="#A1D776"/>
<path d="M249.337 123.58H222.617C220.526 123.392 219.63 125.333 218.301 130.774C212.546 154.013 203.502 187.914 203.091 191.613C202.68 195.313 205.049 196.451 209.874 194.902L239.883 187.091C239.883 187.091 226.523 243.409 224.673 250.192C222.823 256.975 227.345 260.675 232.278 251.22C237.211 241.765 268.658 172.293 271.125 167.976C273.591 163.66 276.674 155.85 269.069 157.494C261.464 159.138 238.649 165.099 238.649 165.099L248.721 137.145C251.975 129.047 254.123 124.206 249.337 123.58Z" fill="#FDF5B2"/>
<path d="M209.713 153.443L193.053 157.764C191.718 157.985 191.474 159.34 191.525 162.948C191.696 178.372 191.54 200.976 191.882 203.35C192.224 205.723 193.885 206.05 196.643 204.304L214.091 194.58C214.091 194.58 214.87 231.862 214.814 236.391C214.757 240.92 218.175 242.496 219.722 235.802C221.268 229.108 229.639 180.697 230.478 177.607C231.318 174.516 231.977 169.146 227.501 171.402C223.026 173.657 209.764 181.064 209.764 181.064L211.523 162.002C212.242 156.426 212.798 153.059 209.713 153.443Z" fill="#A1D776"/>
<path d="M286.892 198.03L275.231 191.593C274.363 191.008 273.507 191.636 271.621 193.681C263.534 202.396 251.454 214.952 250.387 216.461C249.32 217.97 250.081 219.036 252.558 219.525L267.528 223.358C267.528 223.358 248.186 244.619 245.751 247.122C243.316 249.624 244.402 252.322 248.823 249.4C253.244 246.479 283.636 223.857 285.748 222.575C287.86 221.293 291.079 218.641 287.366 217.524C283.653 216.407 272.266 213.502 272.266 213.502L283.368 203.778C286.731 201.042 288.83 199.455 286.892 198.03Z" fill="#BFF494"/>
<path d="M199.041 194.956L188.541 200.169C187.682 200.503 187.708 201.438 188.243 203.827C190.497 214.046 193.53 229.079 194.088 230.607C194.645 232.136 195.797 232.119 197.392 230.571L207.667 221.66C207.667 221.66 213.36 246.31 213.951 249.325C214.543 252.341 217.038 252.907 217.14 248.244C217.241 243.581 216.1 210.253 216.23 208.083C216.361 205.912 216.055 202.253 213.386 204.381C210.717 206.508 202.909 213.292 202.909 213.292L201.435 200.386C201.14 196.581 201.044 194.267 199.041 194.956Z" fill="#C8FE9E"/>
<path d="M162.86 320.985C158.305 292.001 118.7 276.672 115.891 275.674C132.893 297.116 117.989 312.257 118.214 330.269C118.439 348.28 131.496 353.736 136.855 353.917C136.855 353.917 150.475 327.339 132.539 292.036C148.908 311.277 146.216 351.773 143.95 354.169C149.713 351.676 166.454 343.855 162.86 320.985Z" fill="#6CE587"/>
<path d="M71.8073 282.654C48.9684 301.072 55.4609 343.041 55.9981 345.973C66.0872 320.536 86.6481 325.89 102.142 316.702C117.635 307.514 115.843 293.477 113.324 288.744C113.324 288.744 83.4966 290.213 61.8628 323.379C70.3616 299.589 106.793 281.703 110 282.471C104.963 278.722 89.8281 268.121 71.8073 282.654Z" fill="#6CE587"/>
<path d="M84.8565 382.221C112.407 392.309 145.035 365.125 147.272 363.154C120.272 367.61 114.27 347.229 98.4138 338.682C82.5578 330.135 71.4497 338.902 68.6905 343.499C68.6905 343.499 85.3139 368.308 124.885 369.766C100.117 374.736 66.0197 352.724 65.0256 349.58C64.4072 355.828 63.1176 374.261 84.8565 382.221Z" fill="#6CE587"/>
<path d="M98.3862 265.172C86.7647 262.186 74.4938 275.471 73.6567 276.428C84.4987 273.189 87.7241 281.655 94.5169 284.552C101.31 287.448 105.506 283.136 106.456 281.024C106.456 281.024 98.7301 271.175 82.5351 272.488C92.4475 269.137 107.194 276.928 107.719 278.231C107.733 275.515 107.556 267.528 98.3862 265.172Z" fill="#7BFD98"/>
<path d="M73.719 385.98C85.7116 386.366 94.7989 370.73 95.4079 369.614C85.53 375.134 80.5402 367.572 73.28 366.222C66.0198 364.873 62.8622 369.995 62.3941 372.262C62.3941 372.262 72.0775 380.195 87.599 375.391C78.6528 380.817 62.5653 376.421 61.7691 375.264C62.3464 377.918 64.2563 385.675 73.719 385.98Z" fill="#5CDC7C"/>
<path d="M166.389 336.438C172.663 326.21 163.578 310.573 162.91 309.491C162.814 320.806 153.774 321.397 149.007 327.037C144.239 332.676 147.126 337.956 148.864 339.485C148.864 339.485 160.551 335 164.062 319.136C164.347 329.595 152.562 341.395 151.163 341.514C153.754 342.327 161.439 344.508 166.389 336.438Z" fill="#4EC769"/>
<g filter="url(#filter0_d)">
<path d="M140.271 218.584L145.588 213.267C156.913 201.942 169.112 196.74 182.186 197.661C194.017 198.536 205.181 204.221 215.677 214.717C226.357 225.397 231.698 236.814 231.698 248.968C231.698 261.674 225.897 273.827 214.296 285.428L210.705 289.019L140.271 218.584ZM125.493 305.453C120.43 300.389 116.401 295.026 113.409 289.364C110.371 283.656 108.621 277.763 108.161 271.686C107.24 258.612 112.442 246.413 123.767 235.088L129.084 229.771L199.519 300.205L195.928 303.796C184.327 315.397 172.174 321.198 159.468 321.198C147.314 321.198 135.99 315.949 125.493 305.453Z" fill="white"/>
</g>
<defs>
<filter id="filter0_d" x="108.057" y="197.557" width="126.64" height="128.64" filterUnits="userSpaceOnUse" color-interpolation-filters="sRGB">
<feFlood flood-opacity="0" result="BackgroundImageFix"/>
<feColorMatrix in="SourceAlpha" type="matrix" values="0 0 0 0 0 0 0 0 0 0 0 0 0 0 0 0 0 0 127 0"/>
<feOffset dx="3" dy="5"/>
<feColorMatrix type="matrix" values="0 0 0 0 0.208333 0 0 0 0 0.186632 0 0 0 0 0.186632 0 0 0 1 0"/>
<feBlend mode="normal" in2="BackgroundImageFix" result="effect1_dropShadow"/>
<feBlend mode="normal" in="SourceGraphic" in2="effect1_dropShadow" result="shape"/>
</filter>
<linearGradient id="paint0_linear" x1="328.538" y1="7.03821" x2="23.5384" y2="498.038" gradientUnits="userSpaceOnUse">
<stop stop-color="#4E4948"/>
<stop offset="1" stop-color="#342F2F"/>
</linearGradient>
</defs>
</svg>
