<svg width="364" height="570" viewBox="0 0 364 570" fill="none" xmlns="http://www.w3.org/2000/svg">
<rect x="43.5383" y="63.0383" width="320" height="506" rx="9" fill="white"/>
<rect x="51.5383" y="70.0383" width="305" height="491" rx="9" fill="url(#paint0_linear)"/>
<circle cx="200.574" cy="302.574" r="106.574" fill="#C0DAE9"/>
<circle cx="209.216" cy="306.216" r="98.2157" fill="#A6C8DA"/>
<circle cx="279.983" cy="238.211" r="20.479" fill="#CDD3EB" fill-opacity="0.8"/>
<circle cx="203.918" cy="443.002" r="16.2996" fill="#CDD3EB" fill-opacity="0.8"/>
<circle cx="272.46" cy="407.895" r="31.3454" fill="#CDD3EB" fill-opacity="0.8"/>
<path d="M73.1074 109.957H85.5879V96.5098H90.5684V109.957H102.99V114.967H90.5684V127.535H85.5879V114.967H73.1074V109.957ZM140.49 89.127H142.658C148.732 89.127 153.068 90.1133 155.666 92.0859C158.303 94.0781 159.621 97.3789 159.621 101.988C159.621 107.945 156.574 111.549 150.48 112.799C148.469 113.209 146.135 113.414 143.479 113.414H140.49V89.127ZM119.016 100.699C119.016 96.7734 120.383 93.8047 123.117 91.793C125.559 90.0156 128.879 89.127 133.078 89.127H136.74V102.633L119.016 102.633V100.699ZM119.016 119.156C119.016 115.23 120.383 112.262 123.117 110.25C125.559 108.473 128.879 107.584 133.078 107.584H136.74V129H119.016L119.016 119.156ZM140.871 119.303H158.127V129H140.871V119.303Z" fill="white"/>
<g filter="url(#filter0_d)">
<path d="M142.195 217.523H183.797V172.699H200.398V217.523H241.805V234.223H200.398V276.117H183.797V234.223H142.195V217.523ZM200.203 292.09H207.43C227.677 292.09 242.13 295.378 250.789 301.953C259.578 308.594 263.973 319.596 263.973 334.961C263.973 354.818 253.816 366.829 233.504 370.996C226.798 372.363 219.018 373.047 210.164 373.047H200.203V292.09ZM128.621 330.664C128.621 317.578 133.178 307.682 142.293 300.977C150.431 295.052 161.499 292.09 175.496 292.09H187.703V337.109H128.621V330.664ZM128.621 392.188C128.621 379.102 133.178 369.206 142.293 362.5C150.431 356.576 161.499 353.613 175.496 353.613H187.703V425H128.621V392.188ZM201.473 392.676H258.992V425H201.473V392.676Z" fill="white"/>
</g>
<defs>
<filter id="filter0_d" x="128.621" y="172.699" width="138.352" height="257.301" filterUnits="userSpaceOnUse" color-interpolation-filters="sRGB">
<feFlood flood-opacity="0" result="BackgroundImageFix"/>
<feColorMatrix in="SourceAlpha" type="matrix" values="0 0 0 0 0 0 0 0 0 0 0 0 0 0 0 0 0 0 127 0"/>
<feOffset dx="3" dy="5"/>
<feColorMatrix type="matrix" values="0 0 0 0 0.211765 0 0 0 0 0.192157 0 0 0 0 0.192157 0 0 0 1 0"/>
<feBlend mode="normal" in2="BackgroundImageFix" result="effect1_dropShadow"/>
<feBlend mode="normal" in="SourceGraphic" in2="effect1_dropShadow" result="shape"/>
</filter>
<linearGradient id="paint0_linear" x1="356.538" y1="70.0383" x2="51.5384" y2="561.038" gradientUnits="userSpaceOnUse">
<stop stop-color="#4E4948"/>
<stop offset="1" stop-color="#342F2F"/>
</linearGradient>
</defs>
</svg>
