<svg width="321" height="507" viewBox="0 0 321 507" fill="none" xmlns="http://www.w3.org/2000/svg">
<rect x="0.53833" y="0.038208" width="320" height="506" rx="9" fill="white"/>
<rect x="8.53833" y="7.03821" width="305" height="491" rx="9" fill="url(#paint0_linear)"/>
<path d="M267.392 260.657C258.355 203.154 179.781 172.742 174.208 170.761C207.94 213.3 178.371 243.341 178.817 279.075C179.264 314.808 205.167 325.632 215.798 325.991C215.798 325.991 242.82 273.263 207.237 203.223C239.712 241.397 234.372 321.738 229.875 326.491C241.308 321.546 274.523 306.029 267.392 260.657Z" fill="#5CDC7C" fill-opacity="0.8"/>
<path d="M86.748 184.609C41.4369 221.149 54.3177 304.414 55.3835 310.232C75.3998 259.766 116.192 270.387 146.93 252.159C177.668 233.931 174.113 206.083 169.116 196.693C169.116 196.693 109.939 199.606 67.0188 265.406C83.88 218.209 156.158 182.723 162.521 184.246C152.527 176.809 122.5 155.778 86.748 184.609Z" fill="#5CDC7C" fill-opacity="0.8"/>
<path d="M112.637 382.145C167.297 402.16 232.029 348.228 236.467 344.318C182.9 353.158 170.991 312.723 139.534 295.767C108.077 278.81 86.0387 296.202 80.5645 305.323C80.5645 305.323 113.545 354.543 192.052 357.435C142.913 367.296 75.2658 323.625 73.2936 317.386C72.0668 329.783 69.5083 366.353 112.637 382.145Z" fill="#5CDC7C" fill-opacity="0.8"/>
<path d="M139.479 149.926C116.423 144.003 92.078 170.359 90.4172 172.257C111.927 165.831 118.326 182.628 131.803 188.375C145.279 194.121 153.604 185.565 155.489 181.376C155.489 181.376 140.161 161.836 108.032 164.441C127.697 157.794 156.952 173.249 157.995 175.834C158.022 170.445 157.672 154.6 139.479 149.926Z" fill="#5CDC7C" fill-opacity="0.8"/>
<path d="M90.5408 389.602C114.333 390.368 132.362 359.348 133.57 357.134C113.973 368.085 104.074 353.082 89.6698 350.405C75.266 347.727 69.0015 357.89 68.0728 362.388C68.0728 362.388 87.2842 378.126 118.078 368.594C100.329 379.36 68.4125 370.639 66.8329 368.342C67.9781 373.608 71.7674 388.997 90.5408 389.602Z" fill="#5CDC7C" fill-opacity="0.8"/>
<path d="M274.394 291.314C286.84 271.022 268.816 239.999 267.49 237.853C267.301 260.301 249.365 261.474 239.907 272.662C230.449 283.851 236.177 294.326 239.625 297.36C239.625 297.36 262.811 288.461 269.777 256.987C270.342 277.738 246.962 301.15 244.185 301.385C249.327 302.997 264.573 307.325 274.394 291.314Z" fill="#5CDC7C" fill-opacity="0.8"/>
<g filter="url(#filter0_d)">
<path d="M111.195 161.523H152.797V116.699H169.398V161.523H210.805V178.223H169.398V220.117H152.797V178.223H111.195V161.523ZM169.203 236.09H176.43C196.677 236.09 211.13 239.378 219.789 245.953C228.578 252.594 232.973 263.596 232.973 278.961C232.973 298.818 222.816 310.829 202.504 314.996C195.798 316.363 188.018 317.047 179.164 317.047H169.203V236.09ZM97.6211 274.664C97.6211 261.578 102.178 251.682 111.293 244.977C119.431 239.052 130.499 236.09 144.496 236.09H156.703V281.109H97.6211V274.664ZM97.6211 336.188C97.6211 323.102 102.178 313.206 111.293 306.5C119.431 300.576 130.499 297.613 144.496 297.613H156.703V369H97.6211V336.188ZM170.473 336.676H227.992V369H170.473V336.676Z" fill="white"/>
</g>
<path d="M37.1074 50.957H49.5879V37.5098H54.5684V50.957H66.9902V55.9668H54.5684V68.5352H49.5879V55.9668H37.1074V50.957ZM104.49 30.127L106.658 30.127C112.732 30.127 117.068 31.1133 119.666 33.0859C122.303 35.0781 123.621 38.3789 123.621 42.9883C123.621 48.9453 120.574 52.5488 114.48 53.7988C112.469 54.209 110.135 54.4141 107.479 54.4141H104.49V30.127ZM83.0156 41.6992C83.0156 37.7734 84.3828 34.8047 87.1172 32.793C89.5586 31.0156 92.8789 30.127 97.0781 30.127H100.74V43.6328H83.0156V41.6992ZM83.0156 60.1562C83.0156 56.2305 84.3828 53.2617 87.1172 51.25C89.5586 49.4727 92.8789 48.584 97.0781 48.584H100.74V70H83.0156V60.1562ZM104.871 60.3027H122.127V70H104.871V60.3027Z" fill="white"/>
<defs>
<filter id="filter0_d" x="97.6211" y="116.699" width="138.352" height="257.301" filterUnits="userSpaceOnUse" color-interpolation-filters="sRGB">
<feFlood flood-opacity="0" result="BackgroundImageFix"/>
<feColorMatrix in="SourceAlpha" type="matrix" values="0 0 0 0 0 0 0 0 0 0 0 0 0 0 0 0 0 0 127 0"/>
<feOffset dx="3" dy="5"/>
<feColorMatrix type="matrix" values="0 0 0 0 0.211765 0 0 0 0 0.192157 0 0 0 0 0.192157 0 0 0 1 0"/>
<feBlend mode="normal" in2="BackgroundImageFix" result="effect1_dropShadow"/>
<feBlend mode="normal" in="SourceGraphic" in2="effect1_dropShadow" result="shape"/>
</filter>
<linearGradient id="paint0_linear" x1="313.538" y1="7.03821" x2="8.53835" y2="498.038" gradientUnits="userSpaceOnUse">
<stop stop-color="#4E4948"/>
<stop offset="1" stop-color="#342F2F"/>
</linearGradient>
</defs>
</svg>
