<svg width="369" height="570" viewBox="0 0 369 570" fill="none" xmlns="http://www.w3.org/2000/svg">
<rect x="48.5383" y="63.0382" width="320" height="506" rx="9" fill="white"/>
<rect x="56.5383" y="70.0382" width="305" height="491" rx="9" fill="url(#paint0_linear)"/>
<path d="M285.103 237.041L238.406 229.979C234.795 229.128 232.766 231.959 229.143 240.204C213.533 275.4 189.627 326.57 188.024 332.306C186.422 338.043 190.29 340.467 199.092 339.295L253.403 334.886C253.403 334.886 216.598 420.334 211.744 430.561C206.89 440.789 213.909 447.829 224.789 434.195C235.67 420.561 307.229 319.111 312.571 312.943C317.913 306.776 325.167 295.25 311.484 295.838C297.8 296.426 256.503 299.813 256.503 299.813L280.784 258.311C288.407 246.376 293.317 239.296 285.103 237.041Z" fill="#F0E797" fill-opacity="0.9"/>
<path d="M229.956 188.026H174.575C170.239 187.636 168.384 191.66 165.628 202.936C153.701 251.103 134.956 321.366 134.104 329.035C133.252 336.703 138.162 339.061 148.162 335.851L210.359 319.662C210.359 319.662 182.669 436.389 178.835 450.447C175.001 464.506 184.373 472.174 194.597 452.577C204.821 432.981 270.001 288.99 275.113 280.044C280.225 271.097 286.615 254.909 270.853 258.317C255.09 261.725 207.803 274.079 207.803 274.079L228.678 216.142C235.424 199.357 239.875 189.324 229.956 188.026Z" fill="#F0E797" fill-opacity="0.9"/>
<path d="M147.828 249.921L113.297 258.877C110.531 259.335 110.025 262.145 110.131 269.622C110.485 301.59 110.162 348.44 110.871 353.36C111.58 358.28 115.024 358.957 120.739 355.337L156.902 335.183C156.902 335.183 158.517 412.456 158.4 421.844C158.283 431.231 165.367 434.498 168.573 420.623C171.778 406.749 189.127 306.41 190.868 300.004C192.608 293.598 193.974 282.469 184.697 287.144C175.421 291.818 147.935 307.17 147.935 307.17L151.579 267.662C153.07 256.103 154.223 249.127 147.828 249.921Z" fill="#F0E797" fill-opacity="0.9"/>
<path d="M307.792 342.334L283.624 328.994C281.825 327.78 280.05 329.082 276.142 333.32C259.381 351.383 234.343 377.408 232.131 380.536C229.919 383.664 231.496 385.872 236.631 386.885L267.658 394.831C267.658 394.831 227.568 438.897 222.522 444.084C217.476 449.271 219.726 454.862 228.89 448.807C238.053 442.752 301.044 395.865 305.421 393.208C309.799 390.551 316.471 385.054 308.775 382.738C301.079 380.423 277.478 374.402 277.478 374.402L300.488 354.247C307.459 348.576 311.809 345.288 307.792 342.334Z" fill="#F0E797" fill-opacity="0.9"/>
<path d="M125.71 335.962L103.946 346.767C102.167 347.46 102.22 349.397 103.328 354.348C108.001 375.529 114.287 406.688 115.443 409.855C116.598 413.023 118.986 412.988 122.292 409.781L143.588 391.31C143.588 391.31 155.388 442.4 156.613 448.651C157.838 454.902 163.011 456.075 163.222 446.41C163.432 436.745 161.066 367.669 161.337 363.17C161.607 358.671 160.973 351.087 155.441 355.497C149.909 359.906 133.726 373.967 133.726 373.967L130.671 347.217C130.061 339.331 129.861 334.535 125.71 335.962Z" fill="#F0E797" fill-opacity="0.9"/>
<path d="M73.1074 109.957H85.5879V96.5098H90.5684V109.957H102.99V114.967H90.5684V127.535H85.5879V114.967H73.1074V109.957ZM140.49 89.127H142.658C148.732 89.127 153.068 90.1133 155.666 92.0859C158.303 94.0781 159.621 97.3789 159.621 101.988C159.621 107.945 156.574 111.549 150.48 112.799C148.469 113.209 146.135 113.414 143.479 113.414H140.49V89.127ZM119.016 100.699C119.016 96.7734 120.383 93.8047 123.117 91.793C125.559 90.0156 128.879 89.127 133.078 89.127H136.74V102.633L119.016 102.633V100.699ZM119.016 119.156C119.016 115.23 120.383 112.262 123.117 110.25C125.559 108.473 128.879 107.584 133.078 107.584H136.74V129H119.016L119.016 119.156ZM140.871 119.303H158.127V129H140.871V119.303Z" fill="white"/>
<g filter="url(#filter0_d)">
<path d="M157.195 233.523H198.797V188.699H215.398V233.523H256.805V250.223H215.398V292.117H198.797V250.223H157.195V233.523ZM215.203 308.09H222.43C242.677 308.09 257.13 311.378 265.789 317.953C274.578 324.594 278.973 335.596 278.973 350.961C278.973 370.818 268.816 382.829 248.504 386.996C241.798 388.363 234.018 389.047 225.164 389.047H215.203V308.09ZM143.621 346.664C143.621 333.578 148.178 323.682 157.293 316.977C165.431 311.052 176.499 308.09 190.496 308.09H202.703V353.109H143.621V346.664ZM143.621 408.188C143.621 395.102 148.178 385.206 157.293 378.5C165.431 372.576 176.499 369.613 190.496 369.613H202.703V441H143.621V408.188ZM216.473 408.676H273.992V441H216.473V408.676Z" fill="white"/>
</g>
<defs>
<filter id="filter0_d" x="143.621" y="188.699" width="138.352" height="257.301" filterUnits="userSpaceOnUse" color-interpolation-filters="sRGB">
<feFlood flood-opacity="0" result="BackgroundImageFix"/>
<feColorMatrix in="SourceAlpha" type="matrix" values="0 0 0 0 0 0 0 0 0 0 0 0 0 0 0 0 0 0 127 0"/>
<feOffset dx="3" dy="5"/>
<feColorMatrix type="matrix" values="0 0 0 0 0.211765 0 0 0 0 0.192157 0 0 0 0 0.192157 0 0 0 1 0"/>
<feBlend mode="normal" in2="BackgroundImageFix" result="effect1_dropShadow"/>
<feBlend mode="normal" in="SourceGraphic" in2="effect1_dropShadow" result="shape"/>
</filter>
<linearGradient id="paint0_linear" x1="361.538" y1="70.0382" x2="56.5384" y2="561.038" gradientUnits="userSpaceOnUse">
<stop stop-color="#4E4948"/>
<stop offset="1" stop-color="#342F2F"/>
</linearGradient>
</defs>
</svg>
