<svg width="367" height="570" viewBox="0 0 367 570" fill="none" xmlns="http://www.w3.org/2000/svg">
<rect x="46.5383" y="63.0383" width="320" height="506" rx="9" fill="white"/>
<rect x="54.5383" y="70.0383" width="305" height="491" rx="9" fill="url(#paint0_linear)"/>
<path d="M73.1074 109.957H85.5879V96.5098H90.5684V109.957H102.99V114.967H90.5684V127.535H85.5879V114.967H73.1074V109.957ZM140.49 89.127H142.658C148.732 89.127 153.068 90.1133 155.666 92.0859C158.303 94.0781 159.621 97.3789 159.621 101.988C159.621 107.945 156.574 111.549 150.48 112.799C148.469 113.209 146.135 113.414 143.479 113.414H140.49V89.127ZM119.016 100.699C119.016 96.7734 120.383 93.8047 123.117 91.793C125.559 90.0156 128.879 89.127 133.078 89.127H136.74V102.633L119.016 102.633V100.699ZM119.016 119.156C119.016 115.23 120.383 112.262 123.117 110.25C125.559 108.473 128.879 107.584 133.078 107.584H136.74V129H119.016L119.016 119.156ZM140.871 119.303H158.127V129H140.871V119.303Z" fill="white"/>
<path fill-rule="evenodd" clip-rule="evenodd" d="M321.06 388.828C300.03 441.347 257.314 471 208.897 471C152.331 471 103.744 430.629 89.086 369.536C74.4283 308.443 94.1035 275.945 114.487 245.798C114.939 245.129 115.394 244.456 115.852 243.777L111.71 272.716C115.852 343.812 168.748 303.441 156.32 277.361C143.893 251.28 151.22 209.462 171.934 198.404C173.324 236.214 185.954 260.569 208.897 254.138C231.839 247.707 236.775 225.422 222.28 181C222.28 181 254.605 196.975 266.253 224.128C275.942 246.711 274.363 259.655 273.008 270.773C272.734 273.022 272.468 275.196 272.308 277.361C272.126 279.801 271.474 283.386 270.698 287.655C267.385 305.883 261.805 336.576 280.911 343.812C280.911 343.812 315.325 356.317 323.61 287.007C325.665 269.808 338.302 350.243 321.06 388.828Z" fill="#FF5B51" fill-opacity="0.8"/>
<path fill-rule="evenodd" clip-rule="evenodd" d="M274.186 422.847C260.507 454.901 232.725 473 201.234 473C164.443 473 132.841 448.36 123.308 411.072C113.775 373.784 126.571 353.949 139.829 335.549C140.123 335.141 140.419 334.73 140.717 334.316L138.023 351.978C140.717 395.372 175.12 370.731 167.038 354.813C158.955 338.895 163.72 313.371 177.193 306.623C178.097 329.699 186.312 344.564 201.234 340.639C216.156 336.714 219.366 323.113 209.938 296C209.938 296 230.962 305.75 238.539 322.323C244.84 336.106 243.814 344.007 242.932 350.792C242.753 352.165 242.581 353.492 242.476 354.813C242.358 356.303 241.935 358.491 241.43 361.096C239.275 372.222 235.646 390.955 248.072 395.372C248.072 395.372 270.455 403.004 275.844 360.701C277.181 350.204 285.4 399.297 274.186 422.847Z" fill="#FF5B51" fill-opacity="0.8"/>
<g filter="url(#filter0_d)">
<path d="M150.195 231.523H191.797V186.699H208.398V231.523H249.805V248.223H208.398V290.117H191.797V248.223H150.195V231.523ZM208.203 306.09H215.43C235.677 306.09 250.13 309.378 258.789 315.953C267.578 322.594 271.973 333.596 271.973 348.961C271.973 368.818 261.816 380.829 241.504 384.996C234.798 386.363 227.018 387.047 218.164 387.047H208.203V306.09ZM136.621 344.664C136.621 331.578 141.178 321.682 150.293 314.977C158.431 309.052 169.499 306.09 183.496 306.09H195.703V351.109H136.621V344.664ZM136.621 406.188C136.621 393.102 141.178 383.206 150.293 376.5C158.431 370.576 169.499 367.613 183.496 367.613H195.703V439H136.621V406.188ZM209.473 406.676H266.992V439H209.473V406.676Z" fill="white"/>
</g>
<defs>
<filter id="filter0_d" x="136.621" y="186.699" width="138.352" height="257.301" filterUnits="userSpaceOnUse" color-interpolation-filters="sRGB">
<feFlood flood-opacity="0" result="BackgroundImageFix"/>
<feColorMatrix in="SourceAlpha" type="matrix" values="0 0 0 0 0 0 0 0 0 0 0 0 0 0 0 0 0 0 127 0"/>
<feOffset dx="3" dy="5"/>
<feColorMatrix type="matrix" values="0 0 0 0 0.211765 0 0 0 0 0.192157 0 0 0 0 0.192157 0 0 0 1 0"/>
<feBlend mode="normal" in2="BackgroundImageFix" result="effect1_dropShadow"/>
<feBlend mode="normal" in="SourceGraphic" in2="effect1_dropShadow" result="shape"/>
</filter>
<linearGradient id="paint0_linear" x1="359.538" y1="70.0383" x2="54.5384" y2="561.038" gradientUnits="userSpaceOnUse">
<stop stop-color="#4E4948"/>
<stop offset="1" stop-color="#342F2F"/>
</linearGradient>
</defs>
</svg>
