<svg width="389" height="565" viewBox="0 0 389 565" fill="none" xmlns="http://www.w3.org/2000/svg">
<rect x="69" y="59" width="320" height="506" rx="9" fill="white"/>
<rect x="77" y="66" width="305" height="491" rx="9" fill="url(#paint0_linear)"/>
<circle cx="225.5" cy="306.5" r="127.5" fill="#C0DAE9"/>
<circle cx="242.5" cy="314.5" r="117.5" fill="#A6C8DA"/>
<circle cx="311.5" cy="432.5" r="37.5" fill="#C0DAE9"/>
<circle cx="320.5" cy="229.5" r="24.5" fill="#C0DAE9"/>
<circle cx="229.5" cy="474.5" r="19.5" fill="#C0DAE9"/>
<g filter="url(#filter0_d)">
<path d="M240.841 228.862H312.74V263.164H240.841V228.862ZM149.776 228.862H223.629V311.992L149.776 311.87V228.862ZM239.254 288.921H251.705C273.84 288.921 290.564 293.519 301.876 302.715C313.269 311.911 318.966 325.216 318.966 342.632C318.966 361.756 313.473 375.306 302.486 383.281C291.744 391.094 273.678 395 248.287 395H239.254V288.921ZM149.776 338.726H223.629V395H208.37C181.026 395 163.041 386.292 154.415 368.877C151.323 362.773 149.776 355.409 149.776 346.782V338.726Z" fill="white"/>
</g>
<path d="M118.342 89.127H135.598V97.3594H118.342V89.127ZM96.4863 89.127H114.211V109.078L96.4863 109.049V89.127ZM117.961 103.541H120.949C126.262 103.541 130.275 104.645 132.99 106.852C135.725 109.059 137.092 112.252 137.092 116.432C137.092 121.021 135.773 124.273 133.137 126.188C130.559 128.062 126.223 129 120.129 129H117.961V103.541ZM96.4863 115.494H114.211V129H110.549C103.986 129 99.6699 126.91 97.5996 122.73C96.8574 121.266 96.4863 119.498 96.4863 117.428V115.494Z" fill="white"/>
<defs>
<filter id="filter0_d" x="149.776" y="228.862" width="172.189" height="171.138" filterUnits="userSpaceOnUse" color-interpolation-filters="sRGB">
<feFlood flood-opacity="0" result="BackgroundImageFix"/>
<feColorMatrix in="SourceAlpha" type="matrix" values="0 0 0 0 0 0 0 0 0 0 0 0 0 0 0 0 0 0 127 0"/>
<feOffset dx="3" dy="5"/>
<feColorMatrix type="matrix" values="0 0 0 0 0.698039 0 0 0 0 0.65098 0 0 0 0 0.772549 0 0 0 1 0"/>
<feBlend mode="normal" in2="BackgroundImageFix" result="effect1_dropShadow"/>
<feBlend mode="normal" in="SourceGraphic" in2="effect1_dropShadow" result="shape"/>
</filter>
<linearGradient id="paint0_linear" x1="382" y1="66" x2="77" y2="557" gradientUnits="userSpaceOnUse">
<stop stop-color="#BED6E3"/>
<stop offset="1" stop-color="#779FB6"/>
</linearGradient>
</defs>
</svg>
