<svg width="389" height="565" viewBox="0 0 389 565" fill="none" xmlns="http://www.w3.org/2000/svg">
<rect x="69" y="59" width="320" height="506" rx="9" fill="white"/>
<rect x="77" y="66" width="305" height="491" rx="9" fill="url(#paint0_linear)"/>
<circle cx="225.5" cy="306.5" r="127.5" fill="#C0DAE9"/>
<circle cx="242.5" cy="314.5" r="117.5" fill="#A6C8DA"/>
<circle cx="311.5" cy="432.5" r="37.5" fill="#C0DAE9"/>
<circle cx="320.5" cy="229.5" r="24.5" fill="#CDD3EB"/>
<circle cx="229.5" cy="474.5" r="19.5" fill="#C0DAE9"/>
<g filter="url(#filter0_d)">
<path d="M243.771 228.862H253.292C286.739 228.862 307.328 244.447 315.06 275.615C317.664 286.195 318.966 298.687 318.966 313.091C318.966 339.784 313.473 360.129 302.486 374.126C291.581 388.042 275.183 395 253.292 395H243.771V228.862ZM161.007 312.725C155.31 310.039 151.038 306.092 148.189 300.884C145.341 295.675 143.917 288.514 143.917 279.399C143.917 270.203 145.219 262.35 147.823 255.84C150.509 249.248 154.7 243.958 160.396 239.971C170.976 232.565 189.042 228.862 214.596 228.862H223.629V319.438H211.178C186.926 319.438 170.203 317.201 161.007 312.725ZM149.776 337.993H223.629V395H215.694C192.338 395 175.493 391.257 165.157 383.77C154.903 376.364 149.776 364.035 149.776 346.782V337.993Z" fill="white"/>
</g>
<path d="M119.045 89.127H121.33C129.357 89.127 134.299 92.8672 136.154 100.348C136.779 102.887 137.092 105.885 137.092 109.342C137.092 115.748 135.773 120.631 133.137 123.99C130.52 127.33 126.584 129 121.33 129H119.045V89.127ZM99.1816 109.254C97.8145 108.609 96.7891 107.662 96.1055 106.412C95.4219 105.162 95.0801 103.443 95.0801 101.256C95.0801 99.0488 95.3926 97.1641 96.0176 95.6016C96.6621 94.0195 97.668 92.75 99.0352 91.793C101.574 90.0156 105.91 89.127 112.043 89.127H114.211V110.865H111.223C105.402 110.865 101.389 110.328 99.1816 109.254ZM96.4863 115.318H114.211V129H112.307C106.701 129 102.658 128.102 100.178 126.305C97.7168 124.527 96.4863 121.568 96.4863 117.428V115.318Z" fill="white"/>
<defs>
<filter id="filter0_d" x="143.917" y="228.862" width="178.049" height="171.138" filterUnits="userSpaceOnUse" color-interpolation-filters="sRGB">
<feFlood flood-opacity="0" result="BackgroundImageFix"/>
<feColorMatrix in="SourceAlpha" type="matrix" values="0 0 0 0 0 0 0 0 0 0 0 0 0 0 0 0 0 0 127 0"/>
<feOffset dx="3" dy="5"/>
<feColorMatrix type="matrix" values="0 0 0 0 0.698039 0 0 0 0 0.65098 0 0 0 0 0.772549 0 0 0 1 0"/>
<feBlend mode="normal" in2="BackgroundImageFix" result="effect1_dropShadow"/>
<feBlend mode="normal" in="SourceGraphic" in2="effect1_dropShadow" result="shape"/>
</filter>
<linearGradient id="paint0_linear" x1="382" y1="66" x2="77" y2="557" gradientUnits="userSpaceOnUse">
<stop stop-color="#BED6E3"/>
<stop offset="1" stop-color="#779FB6"/>
</linearGradient>
</defs>
</svg>
