<svg width="320" height="506" viewBox="0 0 320 506" fill="none" xmlns="http://www.w3.org/2000/svg">
<rect width="320" height="506" rx="9" fill="white"/>
<rect x="8" y="7" width="305" height="491" rx="9" fill="url(#paint0_linear)"/>
<path d="M276.844 242.777C266.884 179.4 180.284 145.882 174.141 143.698C211.319 190.583 178.73 223.692 179.222 263.076C179.714 302.459 208.263 314.389 219.98 314.784C219.98 314.784 249.762 256.67 210.544 179.476C246.337 221.549 240.451 310.097 235.495 315.335C248.096 309.884 284.703 292.783 276.844 242.777Z" fill="#6CE587"/>
<path d="M77.7486 158.961C27.8093 199.233 42.0058 291.003 43.1805 297.415C65.2413 241.794 110.2 253.5 144.077 233.41C177.955 213.321 174.037 182.628 168.529 172.279C168.529 172.279 103.308 175.49 56.0043 248.011C74.5876 195.992 154.248 156.883 161.261 158.561C150.247 150.364 117.153 127.185 77.7486 158.961Z" fill="#6CE587"/>
<path d="M106.282 376.674C166.525 398.733 237.869 339.293 242.76 334.983C183.722 344.725 170.597 300.161 135.926 281.473C101.256 262.784 76.9669 281.952 70.9335 292.004C70.9335 292.004 107.282 346.252 193.809 349.44C139.65 360.308 65.0936 312.176 62.92 305.3C61.5679 318.963 58.748 359.269 106.282 376.674Z" fill="#6CE587"/>
<path d="M135.866 120.736C110.455 114.207 83.623 143.255 81.7926 145.348C105.5 138.266 112.552 156.778 127.405 163.111C142.258 169.445 151.434 160.015 153.511 155.398C153.511 155.398 136.618 133.862 101.206 136.733C122.88 129.407 155.124 146.441 156.273 149.29C156.303 143.351 155.916 125.887 135.866 120.736Z" fill="#7BFD98"/>
<path d="M81.9287 384.892C108.152 385.737 128.022 351.548 129.353 349.108C107.755 361.177 96.8439 344.642 80.9688 341.691C65.0937 338.74 58.1894 349.941 57.1659 354.899C57.1659 354.899 78.3395 372.244 112.279 361.739C92.717 373.604 57.5402 363.992 55.7993 361.461C57.0615 367.265 61.2378 384.226 81.9287 384.892Z" fill="#5CDC7C"/>
<path d="M284.561 276.565C298.279 254.2 278.413 220.008 276.952 217.643C276.744 242.385 256.976 243.677 246.552 256.008C236.128 268.34 242.44 279.884 246.241 283.228C246.241 283.228 271.795 273.421 279.472 238.732C280.096 261.603 254.327 287.405 251.266 287.665C256.933 289.442 273.737 294.211 284.561 276.565Z" fill="#4EC769"/>
<g filter="url(#filter0_d)">
<path d="M168.545 261.415H146.328V241.029H168.545V169.862H177.944C198.127 169.862 213.426 174.257 223.843 183.046C233.527 191.184 238.369 202.536 238.369 217.104C238.369 234.926 226.732 246.522 203.457 251.894C223.395 255.963 235.887 264.304 240.933 276.918C242.479 280.743 243.252 285.544 243.252 291.322C243.252 297.1 241.909 302.919 239.224 308.778C236.538 314.638 232.55 319.561 227.261 323.549C216.437 331.85 200.609 336 179.775 336H168.545V261.415ZM80.7764 218.08C80.7764 201.723 86.473 189.353 97.8662 180.971C108.039 173.565 121.873 169.862 139.37 169.862H154.629V226.137H80.7764V218.08ZM80.7764 279.726H154.629V336H139.37C112.026 336 94.0413 327.292 85.415 309.877C82.3226 303.773 80.7764 296.409 80.7764 287.782V279.726Z" fill="white"/>
</g>
<path d="M56.0508 53.0996H50.7188V48.207H56.0508V31.127H58.3066C63.1504 31.127 66.8223 32.1816 69.3223 34.291C71.6465 36.2441 72.8086 38.9688 72.8086 42.4648C72.8086 46.7422 70.0156 49.5254 64.4297 50.8145C69.2148 51.791 72.2129 53.793 73.4238 56.8203C73.7949 57.7383 73.9805 58.8906 73.9805 60.2773C73.9805 61.6641 73.6582 63.0605 73.0137 64.4668C72.3691 65.873 71.4121 67.0547 70.1426 68.0117C67.5449 70.0039 63.7461 71 58.7461 71H56.0508V53.0996ZM34.9863 42.6992C34.9863 38.7734 36.3535 35.8047 39.0879 33.793C41.5293 32.0156 44.8496 31.127 49.0488 31.127H52.7109V44.6328H34.9863V42.6992ZM34.9863 57.4941H52.7109V71H49.0488C42.4863 71 38.1699 68.9102 36.0996 64.7305C35.3574 63.2656 34.9863 61.498 34.9863 59.4277V57.4941Z" fill="white"/>
<defs>
<filter id="filter0_d" x="80.7764" y="169.862" width="165.476" height="171.138" filterUnits="userSpaceOnUse" color-interpolation-filters="sRGB">
<feFlood flood-opacity="0" result="BackgroundImageFix"/>
<feColorMatrix in="SourceAlpha" type="matrix" values="0 0 0 0 0 0 0 0 0 0 0 0 0 0 0 0 0 0 127 0"/>
<feOffset dx="3" dy="5"/>
<feColorMatrix type="matrix" values="0 0 0 0 0.180392 0 0 0 0 0.733333 0 0 0 0 0.364706 0 0 0 1 0"/>
<feBlend mode="normal" in2="BackgroundImageFix" result="effect1_dropShadow"/>
<feBlend mode="normal" in="SourceGraphic" in2="effect1_dropShadow" result="shape"/>
</filter>
<linearGradient id="paint0_linear" x1="313" y1="6.99999" x2="7.99999" y2="498" gradientUnits="userSpaceOnUse">
<stop stop-color="#6EE788"/>
<stop offset="1" stop-color="#2CBA5B"/>
</linearGradient>
</defs>
</svg>
