<svg width="320" height="506" viewBox="0 0 320 506" fill="none" xmlns="http://www.w3.org/2000/svg">
<rect width="320" height="506" rx="9" fill="white"/>
<rect x="8" y="7" width="305" height="491" rx="9" fill="url(#paint0_linear)"/>
<path d="M73.1191 54.8438C77.084 56.4258 79.0664 59.1797 79.0664 63.1055C79.0664 66.7383 77.6895 69.6094 74.9355 71.7188C72.084 73.9062 68.1875 75 63.2461 75H60.5508V35.127H62.8066C67.6699 35.127 71.4492 36.3281 74.1445 38.7305C76.6445 40.957 77.8945 43.7891 77.8945 47.2266C77.8945 50.6445 76.3223 53.1836 73.1777 54.8438H73.1191ZM43.4707 54.8438C40.3457 53.2031 38.7832 50.7031 38.7832 47.3438C38.7832 43.8281 40.0332 40.957 42.5332 38.7305C45.2285 36.3281 49.0078 35.127 53.8711 35.127H56.127V75H53.4316C48.4902 75 44.5938 73.9062 41.7422 71.7188C38.9883 69.6094 37.6113 66.6699 37.6113 62.9004C37.6113 59.1113 39.584 56.4258 43.5293 54.8438H43.4707Z" fill="white"/>
<path fill-rule="evenodd" clip-rule="evenodd" d="M277.06 308.828C256.03 361.347 213.314 391 164.897 391C108.331 391 59.7438 350.629 45.086 289.536C30.4283 228.443 50.1035 195.945 70.487 165.798C70.9389 165.129 71.3941 164.456 71.8523 163.777L67.7099 192.716C71.8523 263.812 124.748 223.441 112.32 197.361C99.8932 171.28 107.22 129.462 127.934 118.404C129.324 156.214 141.954 180.569 164.897 174.138C187.839 167.707 192.775 145.422 178.28 101C178.28 101 210.605 116.975 222.253 144.128C231.942 166.711 230.363 179.655 229.008 190.773C228.734 193.022 228.468 195.196 228.308 197.361C228.126 199.801 227.474 203.386 226.698 207.655C223.385 225.883 217.805 256.576 236.911 263.812C236.911 263.812 271.325 276.317 279.61 207.007C281.665 189.808 294.302 270.243 277.06 308.828Z" fill="#FF685F"/>
<path fill-rule="evenodd" clip-rule="evenodd" d="M230.186 342.847C216.507 374.901 188.725 393 157.234 393C120.443 393 88.8415 368.36 79.308 331.072C69.7745 293.784 82.5714 273.949 95.8289 255.549C96.1229 255.141 96.4189 254.73 96.717 254.316L94.0227 271.978C96.717 315.372 131.12 290.731 123.038 274.813C114.955 258.895 119.72 233.371 133.193 226.623C134.097 249.699 142.312 264.564 157.234 260.639C172.156 256.714 175.366 243.113 165.938 216C165.938 216 186.962 225.75 194.539 242.323C200.84 256.106 199.814 264.007 198.932 270.792C198.754 272.165 198.581 273.492 198.476 274.813C198.358 276.303 197.935 278.491 197.43 281.096C195.275 292.222 191.646 310.955 204.072 315.372C204.072 315.372 226.455 323.004 231.844 280.701C233.181 270.204 241.4 319.297 230.186 342.847Z" fill="#FF5B51"/>
<g filter="url(#filter0_d)">
<path d="M223.293 256.016C239.813 262.607 248.073 274.082 248.073 290.439C248.073 305.576 242.336 317.539 230.861 326.328C218.98 335.443 202.744 340 182.155 340H170.925V173.862H180.324C200.588 173.862 216.335 178.867 227.565 188.877C237.982 198.154 243.19 209.954 243.19 224.277C243.19 238.519 236.639 249.098 223.537 256.016H223.293ZM99.7578 256.016C86.737 249.18 80.2266 238.763 80.2266 224.766C80.2266 210.117 85.4349 198.154 95.8516 188.877C107.082 178.867 122.829 173.862 143.093 173.862H152.492V340H141.262C120.673 340 104.437 335.443 92.5557 326.328C81.0811 317.539 75.3438 305.291 75.3438 289.585C75.3438 273.797 83.5632 262.607 100.002 256.016H99.7578Z" fill="white"/>
</g>
<defs>
<filter id="filter0_d" x="75.3438" y="173.862" width="175.729" height="171.138" filterUnits="userSpaceOnUse" color-interpolation-filters="sRGB">
<feFlood flood-opacity="0" result="BackgroundImageFix"/>
<feColorMatrix in="SourceAlpha" type="matrix" values="0 0 0 0 0 0 0 0 0 0 0 0 0 0 0 0 0 0 127 0"/>
<feOffset dx="3" dy="5"/>
<feColorMatrix type="matrix" values="0 0 0 0 0.8125 0 0 0 0 0.27701 0 0 0 0 0.24375 0 0 0 1 0"/>
<feBlend mode="normal" in2="BackgroundImageFix" result="effect1_dropShadow"/>
<feBlend mode="normal" in="SourceGraphic" in2="effect1_dropShadow" result="shape"/>
</filter>
<linearGradient id="paint0_linear" x1="313" y1="7" x2="8.00002" y2="498" gradientUnits="userSpaceOnUse">
<stop stop-color="#F45349"/>
<stop offset="1" stop-color="#D05048"/>
</linearGradient>
</defs>
</svg>
