<svg width="320" height="506" viewBox="0 0 320 506" fill="none" xmlns="http://www.w3.org/2000/svg">
<rect width="320" height="506" rx="9" fill="white"/>
<rect x="8" y="7" width="305" height="491" rx="9" fill="url(#paint0_linear)"/>
<path d="M64.4609 35.127H82.1855V48.8086H80.2812C74.6758 48.8086 70.6426 47.9102 68.1816 46.1133C65.7012 44.3359 64.4609 41.377 64.4609 37.2363V35.127ZM57.3418 75C46.834 75 41.5801 68.0859 41.5801 54.2578C41.5801 47.6172 42.8887 42.7734 45.5059 39.7266C48.1426 36.6602 52.0879 35.127 57.3418 35.127H59.627V75H57.3418ZM64.4609 53.2617H67.4492C73.0938 53.2617 77.1074 53.9453 79.4902 55.3125C82.2246 56.8555 83.5918 59.6191 83.5918 63.6035C83.5918 68.0957 82.2734 71.1523 79.6367 72.7734C77.2148 74.2578 72.8789 75 66.6289 75H64.4609V53.2617Z" fill="white"/>
<path fill-rule="evenodd" clip-rule="evenodd" d="M277.06 308.828C256.03 361.347 213.314 391 164.897 391C108.331 391 59.7438 350.629 45.086 289.536C30.4283 228.443 50.1035 195.945 70.487 165.798C70.9389 165.129 71.3941 164.456 71.8523 163.777L67.7099 192.716C71.8523 263.812 124.748 223.441 112.32 197.361C99.8932 171.28 107.22 129.462 127.934 118.404C129.324 156.214 141.954 180.569 164.897 174.138C187.839 167.707 192.775 145.422 178.28 101C178.28 101 210.605 116.975 222.253 144.128C231.942 166.711 230.363 179.655 229.008 190.773C228.734 193.022 228.468 195.196 228.308 197.361C228.126 199.801 227.474 203.386 226.698 207.655C223.385 225.883 217.805 256.576 236.911 263.812C236.911 263.812 271.325 276.317 279.61 207.007C281.665 189.808 294.302 270.243 277.06 308.828Z" fill="#FF685F"/>
<path fill-rule="evenodd" clip-rule="evenodd" d="M230.186 342.847C216.507 374.901 188.725 393 157.234 393C120.443 393 88.8415 368.36 79.308 331.072C69.7745 293.784 82.5714 273.949 95.8289 255.549C96.1229 255.141 96.4189 254.73 96.717 254.316L94.0227 271.978C96.717 315.372 131.12 290.731 123.038 274.813C114.955 258.895 119.72 233.371 133.193 226.623C134.097 249.699 142.312 264.564 157.234 260.639C172.156 256.714 175.366 243.113 165.938 216C165.938 216 186.962 225.75 194.539 242.323C200.84 256.106 199.814 264.007 198.932 270.792C198.754 272.165 198.581 273.492 198.476 274.813C198.358 276.303 197.935 278.491 197.43 281.096C195.275 292.222 191.646 310.955 204.072 315.372C204.072 315.372 226.455 323.004 231.844 280.701C233.181 270.204 241.4 319.297 230.186 342.847Z" fill="#FF5B51"/>
<g filter="url(#filter0_d)">
<path d="M172.634 173.862H246.486V230.869H238.552C215.196 230.869 198.391 227.126 188.137 219.639C177.801 212.233 172.634 199.904 172.634 182.651V173.862ZM142.971 340C99.1882 340 77.2969 311.191 77.2969 253.574C77.2969 225.905 82.7493 205.723 93.6543 193.027C104.641 180.251 121.079 173.862 142.971 173.862H152.492V340H142.971ZM172.634 249.424H185.085C208.604 249.424 225.327 252.272 235.256 257.969C246.649 264.398 252.346 275.913 252.346 292.515C252.346 311.232 246.853 323.968 235.866 330.723C225.775 336.908 207.709 340 181.667 340H172.634V249.424Z" fill="white"/>
</g>
<defs>
<filter id="filter0_d" x="77.2969" y="173.862" width="178.049" height="171.138" filterUnits="userSpaceOnUse" color-interpolation-filters="sRGB">
<feFlood flood-opacity="0" result="BackgroundImageFix"/>
<feColorMatrix in="SourceAlpha" type="matrix" values="0 0 0 0 0 0 0 0 0 0 0 0 0 0 0 0 0 0 127 0"/>
<feOffset dx="3" dy="5"/>
<feColorMatrix type="matrix" values="0 0 0 0 0.8125 0 0 0 0 0.27701 0 0 0 0 0.24375 0 0 0 1 0"/>
<feBlend mode="normal" in2="BackgroundImageFix" result="effect1_dropShadow"/>
<feBlend mode="normal" in="SourceGraphic" in2="effect1_dropShadow" result="shape"/>
</filter>
<linearGradient id="paint0_linear" x1="313" y1="7" x2="8.00002" y2="498" gradientUnits="userSpaceOnUse">
<stop stop-color="#F45349"/>
<stop offset="1" stop-color="#D05048"/>
</linearGradient>
</defs>
</svg>
