<svg width="320" height="507" viewBox="0 0 320 507" fill="none" xmlns="http://www.w3.org/2000/svg">
<rect y="0.0383301" width="320" height="506" rx="9" fill="white"/>
<rect x="8" y="7.03833" width="305" height="491" rx="9" fill="url(#paint0_linear)"/>
<path d="M102.039 40.709H107.459V44.4004H106.443C104.679 44.4004 103.475 44.1237 102.83 43.5703C102.303 43.1146 102.039 42.3789 102.039 41.3633V40.709ZM95.0957 40.709H100.35V46.0605H104.266V48.6094H100.35V53.9805H95.0957V40.709ZM102.029 53.0527C102.029 51.7051 102.811 50.7904 104.373 50.3086C104.972 50.1263 105.743 50.0352 106.688 50.0352H107.459V54H102.029V53.0527ZM110.076 40.709H115.33V53.9805H110.076V40.709ZM117.01 53.0527C117.01 51.7051 117.791 50.7904 119.354 50.3086C119.952 50.1263 120.724 50.0352 121.668 50.0352H122.439V54H117.01V53.0527ZM132 40.709H137.42V44.4004H136.404C134.64 44.4004 133.436 44.1237 132.791 43.5703C132.264 43.1146 132 42.3789 132 41.3633V40.709ZM125.057 40.709H130.311V46.0605H134.227V48.6094H130.311V53.9805H125.057V40.709ZM131.99 53.0527C131.99 51.7051 132.771 50.7904 134.334 50.3086C134.933 50.1263 135.704 50.0352 136.648 50.0352H137.42V54H131.99V53.0527ZM154.9 40.6992H155.779C158.175 40.6992 159.607 41.513 160.076 43.1406C160.226 43.668 160.301 44.2767 160.301 44.9668V54H154.9V40.6992ZM147.654 40.6992H153.084V54H147.654V40.6992ZM140.389 40.6992H145.818V54H140.389V40.6992ZM170.223 40.709H175.643V44.4004H174.627C172.863 44.4004 171.658 44.1237 171.014 43.5703C170.486 43.1146 170.223 42.3789 170.223 41.3633V40.709ZM163.279 40.709H168.533V46.0605H172.449V48.6094H168.533V53.9805H163.279V40.709ZM170.213 53.0527C170.213 51.7051 170.994 50.7904 172.557 50.3086C173.156 50.1263 173.927 50.0352 174.871 50.0352H175.643V54H170.213V53.0527ZM185.281 40.709H186.16C188.556 40.709 189.985 41.5195 190.447 43.1406C190.604 43.6745 190.682 44.2865 190.682 44.9766V54H185.281V40.709ZM178.191 40.709H183.445V54H178.191V40.709ZM204.783 40.709H209.158V46.2266H208.064C207.348 46.2266 206.821 46.1517 206.482 46.002C206.144 45.8457 205.877 45.6732 205.682 45.4844C205.493 45.2891 205.33 45.0352 205.193 44.7227C204.92 44.0846 204.783 43.1992 204.783 42.0664V40.709ZM198.465 40.709H203.719V54H198.465V40.709ZM192.996 40.709H197.371V42.0664C197.371 43.7396 197.068 44.8789 196.463 45.4844C195.968 45.9792 195.177 46.2266 194.09 46.2266H192.996V40.709ZM217.928 40.709H223.953V47.3984L217.928 40.709ZM211.551 44.6348H211.492C211.492 43.2936 211.857 42.304 212.586 41.666C213.315 41.028 214.438 40.709 215.955 40.709L223.953 50.416C223.953 51.7051 223.605 52.6263 222.908 53.1797C222.231 53.7201 221.124 53.9902 219.588 53.9902L211.551 44.6348ZM211.521 47.2715L217.322 54H211.521V47.2715Z" fill="white"/>
<path d="M102.039 454.709H107.459V458.4H106.443C104.679 458.4 103.475 458.124 102.83 457.57C102.303 457.115 102.039 456.379 102.039 455.363V454.709ZM95.0957 454.709H100.35V460.061H104.266V462.609H100.35V467.98H95.0957V454.709ZM102.029 467.053C102.029 465.705 102.811 464.79 104.373 464.309C104.972 464.126 105.743 464.035 106.688 464.035H107.459V468H102.029V467.053ZM110.076 454.709H115.33V467.98H110.076V454.709ZM117.01 467.053C117.01 465.705 117.791 464.79 119.354 464.309C119.952 464.126 120.724 464.035 121.668 464.035H122.439V468H117.01V467.053ZM132 454.709H137.42V458.4H136.404C134.64 458.4 133.436 458.124 132.791 457.57C132.264 457.115 132 456.379 132 455.363V454.709ZM125.057 454.709H130.311V460.061H134.227V462.609H130.311V467.98H125.057V454.709ZM131.99 467.053C131.99 465.705 132.771 464.79 134.334 464.309C134.933 464.126 135.704 464.035 136.648 464.035H137.42V468H131.99V467.053ZM154.9 454.699H155.779C158.175 454.699 159.607 455.513 160.076 457.141C160.226 457.668 160.301 458.277 160.301 458.967V468H154.9V454.699ZM147.654 454.699H153.084V468H147.654V454.699ZM140.389 454.699H145.818V468H140.389V454.699ZM170.223 454.709H175.643V458.4H174.627C172.863 458.4 171.658 458.124 171.014 457.57C170.486 457.115 170.223 456.379 170.223 455.363V454.709ZM163.279 454.709H168.533V460.061H172.449V462.609H168.533V467.98H163.279V454.709ZM170.213 467.053C170.213 465.705 170.994 464.79 172.557 464.309C173.156 464.126 173.927 464.035 174.871 464.035H175.643V468H170.213V467.053ZM185.281 454.709H186.16C188.556 454.709 189.985 455.52 190.447 457.141C190.604 457.674 190.682 458.286 190.682 458.977V468H185.281V454.709ZM178.191 454.709H183.445V468H178.191V454.709ZM204.783 454.709H209.158V460.227H208.064C207.348 460.227 206.821 460.152 206.482 460.002C206.144 459.846 205.877 459.673 205.682 459.484C205.493 459.289 205.33 459.035 205.193 458.723C204.92 458.085 204.783 457.199 204.783 456.066V454.709ZM198.465 454.709H203.719V468H198.465V454.709ZM192.996 454.709H197.371V456.066C197.371 457.74 197.068 458.879 196.463 459.484C195.968 459.979 195.177 460.227 194.09 460.227H192.996V454.709ZM217.928 454.709H223.953V461.398L217.928 454.709ZM211.551 458.635H211.492C211.492 457.294 211.857 456.304 212.586 455.666C213.315 455.028 214.438 454.709 215.955 454.709L223.953 464.416C223.953 465.705 223.605 466.626 222.908 467.18C222.231 467.72 221.124 467.99 219.588 467.99L211.551 458.635ZM211.521 461.271L217.322 468H211.521V461.271Z" fill="white"/>
<g filter="url(#filter0_d)">
<path d="M86.7559 213.127H103.016V224.201H99.9688C94.6758 224.201 91.0625 223.371 89.1289 221.711C87.5469 220.344 86.7559 218.137 86.7559 215.09V213.127ZM65.9258 213.127H81.6875V229.182H93.4355V236.828H81.6875V252.941H65.9258V213.127ZM86.7266 250.158C86.7266 246.115 89.0703 243.371 93.7578 241.926C95.5547 241.379 97.8691 241.105 100.701 241.105H103.016V253H86.7266V250.158ZM110.867 213.127H126.629V252.941H110.867V213.127ZM131.668 250.158C131.668 246.115 134.012 243.371 138.699 241.926C140.496 241.379 142.811 241.105 145.643 241.105H147.957V253H131.668V250.158Z" fill="#F05349"/>
<path d="M176.639 213.127H192.898V224.201H189.852C184.559 224.201 180.945 223.371 179.012 221.711C177.43 220.344 176.639 218.137 176.639 215.09V213.127ZM155.809 213.127H171.57V229.182H183.318V236.828H171.57V252.941H155.809V213.127ZM176.609 250.158C176.609 246.115 178.953 243.371 183.641 241.926C185.438 241.379 187.752 241.105 190.584 241.105H192.898V253H176.609V250.158ZM245.34 213.098H247.977C255.164 213.098 259.461 215.539 260.867 220.422C261.316 222.004 261.541 223.83 261.541 225.9V253H245.34V213.098ZM223.602 213.098H239.891V253H223.602V213.098ZM201.805 213.098H218.094V253H201.805V213.098Z" fill="#B6CFDE"/>
<path d="M86.7559 256.127H103.016V267.201H99.9688C94.6758 267.201 91.0625 266.371 89.1289 264.711C87.5469 263.344 86.7559 261.137 86.7559 258.09V256.127ZM65.9258 256.127H81.6875V272.182H93.4355V279.828H81.6875V295.941H65.9258V256.127ZM86.7266 293.158C86.7266 289.115 89.0703 286.371 93.7578 284.926C95.5547 284.379 97.8691 284.105 100.701 284.105H103.016V296H86.7266V293.158ZM131.932 256.127H134.568C141.756 256.127 146.043 258.559 147.43 263.422C147.898 265.023 148.133 266.859 148.133 268.93V296H131.932V256.127ZM110.662 256.127H126.424V296H110.662V256.127Z" fill="#62DF80"/>
<path d="M190.438 256.127H203.562V272.68H200.281C198.133 272.68 196.551 272.455 195.535 272.006C194.52 271.537 193.719 271.02 193.133 270.453C192.566 269.867 192.078 269.105 191.668 268.168C190.848 266.254 190.438 263.598 190.438 260.199V256.127ZM171.482 256.127H187.244V296H171.482V256.127ZM155.076 256.127H168.201V260.199C168.201 265.219 167.293 268.637 165.477 270.453C163.992 271.938 161.619 272.68 158.357 272.68H155.076V256.127ZM229.871 256.127H247.947V276.195L229.871 256.127ZM210.74 267.904H210.564C210.564 263.881 211.658 260.912 213.846 258.998C216.033 257.084 219.402 256.127 223.953 256.127L247.947 285.248C247.947 289.115 246.902 291.879 244.812 293.539C242.781 295.16 239.461 295.971 234.852 295.971L210.74 267.904ZM210.652 275.814L228.055 296H210.652V275.814Z" fill="#F4F58C"/>
</g>
<defs>
<filter id="filter0_d" x="65.9258" y="213.098" width="198.615" height="87.9023" filterUnits="userSpaceOnUse" color-interpolation-filters="sRGB">
<feFlood flood-opacity="0" result="BackgroundImageFix"/>
<feColorMatrix in="SourceAlpha" type="matrix" values="0 0 0 0 0 0 0 0 0 0 0 0 0 0 0 0 0 0 127 0"/>
<feOffset dx="3" dy="5"/>
<feColorMatrix type="matrix" values="0 0 0 0 0.211765 0 0 0 0 0.192157 0 0 0 0 0.192157 0 0 0 1 0"/>
<feBlend mode="normal" in2="BackgroundImageFix" result="effect1_dropShadow"/>
<feBlend mode="normal" in="SourceGraphic" in2="effect1_dropShadow" result="shape"/>
</filter>
<linearGradient id="paint0_linear" x1="313" y1="7.03833" x2="8.00002" y2="498.038" gradientUnits="userSpaceOnUse">
<stop stop-color="#4E4948"/>
<stop offset="1" stop-color="#342F2F"/>
</linearGradient>
</defs>
</svg>
