<svg width="389" height="565" viewBox="0 0 389 565" fill="none" xmlns="http://www.w3.org/2000/svg">
<rect x="69" y="59" width="320" height="506" rx="9" fill="white"/>
<rect x="77" y="66" width="305" height="491" rx="9" fill="url(#paint0_linear)"/>
<path d="M345.844 301.777C335.884 238.4 249.284 204.882 243.141 202.698C280.319 249.583 247.73 282.692 248.222 322.076C248.714 361.459 277.263 373.389 288.98 373.784C288.98 373.784 318.762 315.67 279.544 238.476C315.337 280.549 309.451 369.097 304.495 374.335C317.096 368.884 353.703 351.783 345.844 301.777Z" fill="#6CE587"/>
<path d="M146.749 217.961C96.8093 258.233 111.006 350.003 112.18 356.415C134.241 300.794 179.2 312.5 213.077 292.41C246.955 272.321 243.037 241.628 237.529 231.279C237.529 231.279 172.308 234.49 125.004 307.011C143.588 254.992 223.248 215.883 230.261 217.561C219.247 209.364 186.153 186.185 146.749 217.961Z" fill="#6CE587"/>
<path d="M175.282 435.674C235.525 457.733 306.869 398.293 311.76 393.983C252.722 403.725 239.597 359.161 204.926 340.473C170.256 321.784 145.967 340.952 139.934 351.004C139.934 351.004 176.282 405.252 262.809 408.44C208.65 419.308 134.094 371.176 131.92 364.3C130.568 377.963 127.748 418.269 175.282 435.674Z" fill="#6CE587"/>
<path d="M204.866 179.736C179.455 173.207 152.623 202.255 150.793 204.348C174.5 197.266 181.552 215.778 196.405 222.111C211.258 228.445 220.434 219.015 222.511 214.398C222.511 214.398 205.618 192.862 170.206 195.733C191.88 188.407 224.124 205.441 225.273 208.29C225.303 202.351 224.916 184.887 204.866 179.736Z" fill="#7BFD98"/>
<path d="M150.929 443.892C177.152 444.737 197.022 410.548 198.353 408.108C176.755 420.177 165.844 403.642 149.969 400.691C134.094 397.74 127.189 408.941 126.166 413.899C126.166 413.899 147.34 431.244 181.279 420.739C161.717 432.604 126.54 422.992 124.799 420.461C126.061 426.265 130.238 443.226 150.929 443.892Z" fill="#5CDC7C"/>
<path d="M353.561 335.565C367.279 313.2 347.413 279.008 345.952 276.643C345.744 301.385 325.976 302.677 315.552 315.008C305.128 327.34 311.44 338.884 315.241 342.228C315.241 342.228 340.795 332.421 348.472 297.732C349.095 320.603 323.327 346.405 320.266 346.665C325.933 348.442 342.737 353.211 353.561 335.565Z" fill="#4EC769"/>
<g filter="url(#filter0_d)">
<path d="M240.841 228.862H312.74V263.164H240.841V228.862ZM149.776 228.862H223.629V311.992L149.776 311.87V228.862ZM239.254 288.921H251.705C273.84 288.921 290.564 293.519 301.876 302.715C313.269 311.911 318.966 325.216 318.966 342.632C318.966 361.756 313.473 375.306 302.486 383.281C291.744 391.094 273.678 395 248.287 395H239.254V288.921ZM149.776 338.726H223.629V395H208.37C181.026 395 163.041 386.292 154.415 368.877C151.323 362.773 149.776 355.409 149.776 346.782V338.726Z" fill="white"/>
</g>
<path d="M118.342 89.127H135.598V97.3594H118.342V89.127ZM96.4863 89.127H114.211V109.078L96.4863 109.049V89.127ZM117.961 103.541H120.949C126.262 103.541 130.275 104.645 132.99 106.852C135.725 109.059 137.092 112.252 137.092 116.432C137.092 121.021 135.773 124.273 133.137 126.188C130.559 128.062 126.223 129 120.129 129H117.961V103.541ZM96.4863 115.494H114.211V129H110.549C103.986 129 99.6699 126.91 97.5996 122.73C96.8574 121.266 96.4863 119.498 96.4863 117.428V115.494Z" fill="white"/>
<defs>
<filter id="filter0_d" x="149.776" y="228.862" width="172.189" height="171.138" filterUnits="userSpaceOnUse" color-interpolation-filters="sRGB">
<feFlood flood-opacity="0" result="BackgroundImageFix"/>
<feColorMatrix in="SourceAlpha" type="matrix" values="0 0 0 0 0 0 0 0 0 0 0 0 0 0 0 0 0 0 127 0"/>
<feOffset dx="3" dy="5"/>
<feColorMatrix type="matrix" values="0 0 0 0 0.180392 0 0 0 0 0.733333 0 0 0 0 0.364706 0 0 0 1 0"/>
<feBlend mode="normal" in2="BackgroundImageFix" result="effect1_dropShadow"/>
<feBlend mode="normal" in="SourceGraphic" in2="effect1_dropShadow" result="shape"/>
</filter>
<linearGradient id="paint0_linear" x1="382" y1="66" x2="77" y2="557" gradientUnits="userSpaceOnUse">
<stop stop-color="#6EE788"/>
<stop offset="1" stop-color="#2CBA5B"/>
</linearGradient>
</defs>
</svg>
