<svg width="384" height="567" viewBox="0 0 384 567" fill="none" xmlns="http://www.w3.org/2000/svg">
<rect x="64" y="61" width="320" height="506" rx="9" fill="white"/>
<rect x="72" y="68" width="305" height="491" rx="9" fill="url(#paint0_linear)"/>
<path fill-rule="evenodd" clip-rule="evenodd" d="M338.06 369.828C317.03 422.347 274.314 452 225.897 452C169.331 452 120.744 411.629 106.086 350.536C91.4283 289.443 111.103 256.945 131.487 226.798C131.939 226.129 132.394 225.456 132.852 224.777L128.71 253.716C132.852 324.812 185.748 284.441 173.32 258.361C160.893 232.28 168.22 190.462 188.934 179.404C190.324 217.214 202.954 241.569 225.897 235.138C248.839 228.707 253.775 206.422 239.28 162C239.28 162 271.605 177.975 283.253 205.128C292.942 227.711 291.363 240.655 290.008 251.773C289.734 254.022 289.468 256.196 289.308 258.361C289.126 260.801 288.474 264.386 287.698 268.655C284.385 286.883 278.805 317.576 297.911 324.812C297.911 324.812 332.325 337.317 340.61 268.007C342.665 250.808 355.302 331.243 338.06 369.828Z" fill="#FF685F"/>
<path fill-rule="evenodd" clip-rule="evenodd" d="M291.186 403.847C277.507 435.901 249.725 454 218.234 454C181.443 454 149.841 429.36 140.308 392.072C130.775 354.784 143.571 334.949 156.829 316.549C157.123 316.141 157.419 315.73 157.717 315.316L155.023 332.978C157.717 376.372 192.12 351.731 184.038 335.813C175.955 319.895 180.72 294.371 194.193 287.623C195.097 310.699 203.312 325.564 218.234 321.639C233.156 317.714 236.366 304.113 226.938 277C226.938 277 247.962 286.75 255.539 303.323C261.84 317.106 260.814 325.007 259.932 331.792C259.753 333.165 259.581 334.492 259.476 335.813C259.358 337.303 258.935 339.491 258.43 342.096C256.275 353.222 252.646 371.955 265.072 376.372C265.072 376.372 287.455 384.004 292.844 341.701C294.181 331.204 302.4 380.297 291.186 403.847Z" fill="#FF5B51"/>
<g filter="url(#filter0_d)">
<path d="M188.369 254.511L260.391 234.491V406H188.369V254.511Z" fill="white"/>
</g>
<path d="M106.857 92.6426L124.143 87.8379V129H106.857V92.6426Z" fill="white"/>
<defs>
<filter id="filter0_d" x="188.369" y="234.491" width="75.0215" height="176.509" filterUnits="userSpaceOnUse" color-interpolation-filters="sRGB">
<feFlood flood-opacity="0" result="BackgroundImageFix"/>
<feColorMatrix in="SourceAlpha" type="matrix" values="0 0 0 0 0 0 0 0 0 0 0 0 0 0 0 0 0 0 127 0"/>
<feOffset dx="3" dy="5"/>
<feColorMatrix type="matrix" values="0 0 0 0 0.8125 0 0 0 0 0.27701 0 0 0 0 0.24375 0 0 0 1 0"/>
<feBlend mode="normal" in2="BackgroundImageFix" result="effect1_dropShadow"/>
<feBlend mode="normal" in="SourceGraphic" in2="effect1_dropShadow" result="shape"/>
</filter>
<linearGradient id="paint0_linear" x1="377" y1="68" x2="72" y2="559" gradientUnits="userSpaceOnUse">
<stop stop-color="#F45349"/>
<stop offset="1" stop-color="#D05048"/>
</linearGradient>
</defs>
</svg>
