<svg width="320" height="506" viewBox="0 0 320 506" fill="none" xmlns="http://www.w3.org/2000/svg">
<rect width="320" height="506" rx="9" fill="white"/>
<rect x="8" y="7" width="305" height="491" rx="9" fill="url(#paint0_linear)"/>
<path d="M41.8691 50.0098C41.8691 42.8809 44.7402 38.2812 50.4824 36.2109C52.4746 35.4883 54.877 35.127 57.6895 35.127H59.5938V65.0098H41.8691V50.0098ZM64.1934 45.1172H79.8086V75H64.1934V45.1172Z" fill="white"/>
<path fill-rule="evenodd" clip-rule="evenodd" d="M277.06 308.828C256.03 361.347 213.314 391 164.897 391C108.331 391 59.7438 350.629 45.086 289.536C30.4283 228.443 50.1035 195.945 70.487 165.798C70.9389 165.129 71.3941 164.456 71.8523 163.777L67.7099 192.716C71.8523 263.812 124.748 223.441 112.32 197.361C99.8932 171.28 107.22 129.462 127.934 118.404C129.324 156.214 141.954 180.569 164.897 174.138C187.839 167.707 192.775 145.422 178.28 101C178.28 101 210.605 116.975 222.253 144.128C231.942 166.711 230.363 179.655 229.008 190.773C228.734 193.022 228.468 195.196 228.308 197.361C228.126 199.801 227.474 203.386 226.698 207.655C223.385 225.883 217.805 256.576 236.911 263.812C236.911 263.812 271.325 276.317 279.61 207.007C281.665 189.808 294.302 270.243 277.06 308.828Z" fill="#FF685F"/>
<path fill-rule="evenodd" clip-rule="evenodd" d="M230.186 342.847C216.507 374.901 188.725 393 157.234 393C120.443 393 88.8415 368.36 79.308 331.072C69.7745 293.784 82.5714 273.949 95.8289 255.549C96.1229 255.141 96.4189 254.73 96.717 254.316L94.0227 271.978C96.717 315.372 131.12 290.731 123.038 274.813C114.955 258.895 119.72 233.371 133.193 226.623C134.097 249.699 142.312 264.564 157.234 260.639C172.156 256.714 175.366 243.113 165.938 216C165.938 216 186.962 225.75 194.539 242.323C200.84 256.106 199.814 264.007 198.932 270.792C198.754 272.165 198.581 273.492 198.476 274.813C198.358 276.303 197.935 278.491 197.43 281.096C195.275 292.222 191.646 310.955 204.072 315.372C204.072 315.372 226.455 323.004 231.844 280.701C233.181 270.204 241.4 319.297 230.186 342.847Z" fill="#FF5B51"/>
<g filter="url(#filter0_d)">
<path d="M82.668 235.874C82.668 206.17 94.6309 187.005 118.557 178.379C126.857 175.368 136.867 173.862 148.586 173.862H156.521V298.374H82.668V235.874ZM175.686 215.488H240.749V340H175.686V215.488Z" fill="white"/>
</g>
<defs>
<filter id="filter0_d" x="82.668" y="173.862" width="161.081" height="171.138" filterUnits="userSpaceOnUse" color-interpolation-filters="sRGB">
<feFlood flood-opacity="0" result="BackgroundImageFix"/>
<feColorMatrix in="SourceAlpha" type="matrix" values="0 0 0 0 0 0 0 0 0 0 0 0 0 0 0 0 0 0 127 0"/>
<feOffset dx="3" dy="5"/>
<feColorMatrix type="matrix" values="0 0 0 0 0.8125 0 0 0 0 0.27701 0 0 0 0 0.24375 0 0 0 1 0"/>
<feBlend mode="normal" in2="BackgroundImageFix" result="effect1_dropShadow"/>
<feBlend mode="normal" in="SourceGraphic" in2="effect1_dropShadow" result="shape"/>
</filter>
<linearGradient id="paint0_linear" x1="313" y1="7" x2="8.00002" y2="498" gradientUnits="userSpaceOnUse">
<stop stop-color="#F45349"/>
<stop offset="1" stop-color="#D05048"/>
</linearGradient>
</defs>
</svg>
