<svg width="391" height="565" viewBox="0 0 391 565" fill="none" xmlns="http://www.w3.org/2000/svg">
<rect x="71" y="59" width="320" height="506" rx="9" fill="white"/>
<rect x="77" y="66" width="305" height="491" rx="9" fill="url(#paint0_linear)"/>
<path d="M320.337 210.558L265.529 202.269C261.291 201.272 258.91 204.594 254.658 214.27C236.336 255.579 208.278 315.637 206.397 322.37C204.516 329.103 209.056 331.948 219.387 330.572L283.131 325.398C283.131 325.398 239.933 425.686 234.237 437.69C228.54 449.694 236.777 457.957 249.547 441.955C262.318 425.953 346.306 306.883 352.575 299.644C358.845 292.405 367.36 278.878 351.299 279.568C335.239 280.258 286.77 284.233 286.77 284.233L315.268 235.522C324.215 221.515 329.978 213.205 320.337 210.558Z" fill="#A1D776"/>
<path d="M255.611 153.03H190.611C185.523 152.572 183.345 157.295 180.111 170.53C166.112 227.064 144.111 309.53 143.111 318.53C142.111 327.53 147.874 330.298 159.611 326.53L232.611 307.53C232.611 307.53 200.111 444.53 195.611 461.03C191.111 477.53 202.111 486.53 214.111 463.53C226.111 440.53 302.611 271.53 308.611 261.03C314.611 250.53 322.111 231.53 303.611 235.53C285.111 239.53 229.611 254.03 229.611 254.03L254.111 186.03C262.029 166.33 267.253 154.554 255.611 153.03Z" fill="#FDF5B2"/>
<path d="M159.219 225.675L118.691 236.187C115.444 236.724 114.85 240.022 114.975 248.798C115.39 286.319 115.012 341.306 115.844 347.08C116.676 352.854 120.717 353.649 127.426 349.401L169.869 325.746C169.869 325.746 171.764 416.44 171.627 427.458C171.49 438.476 179.805 442.31 183.567 426.025C187.329 409.741 207.692 291.975 209.734 284.457C211.777 276.938 213.38 263.876 202.492 269.363C191.604 274.849 159.345 292.867 159.345 292.867L163.622 246.498C165.372 232.931 166.725 224.743 159.219 225.675Z" fill="#A1D776"/>
<path d="M346.967 334.139L318.601 318.482C316.49 317.057 314.406 318.585 309.82 323.559C290.147 344.76 260.76 375.305 258.164 378.976C255.569 382.647 257.42 385.239 263.446 386.428L299.861 395.754C299.861 395.754 252.809 447.473 246.887 453.561C240.964 459.649 243.605 466.211 254.36 459.104C265.115 451.998 339.047 396.968 344.184 393.849C349.322 390.731 357.153 384.279 348.12 381.561C339.087 378.843 311.388 371.777 311.388 371.777L338.395 348.122C346.576 341.466 351.681 337.606 346.967 334.139Z" fill="#BFF494"/>
<path d="M133.26 326.661L107.716 339.342C105.628 340.156 105.689 342.429 106.99 348.24C112.474 373.099 119.853 409.67 121.209 413.388C122.565 417.106 125.367 417.065 129.248 413.3L154.243 391.622C154.243 391.622 168.093 451.586 169.53 458.922C170.968 466.258 177.04 467.635 177.286 456.291C177.533 444.948 174.756 363.874 175.074 358.594C175.391 353.313 174.647 344.413 168.154 349.588C161.661 354.763 142.668 371.266 142.668 371.266L139.083 339.87C138.366 330.615 138.131 324.986 133.26 326.661Z" fill="#C8FE9E"/>
<g filter="url(#filter0_d)">
<path d="M289.913 311.016C306.433 317.607 314.693 329.082 314.693 345.439C314.693 360.576 308.956 372.539 297.481 381.328C285.6 390.443 269.365 395 248.775 395H237.545V228.862H246.944C267.208 228.862 282.955 233.867 294.186 243.877C304.602 253.154 309.811 264.954 309.811 279.277C309.811 293.519 303.259 304.098 290.157 311.016H289.913ZM166.378 311.016C153.357 304.18 146.847 293.763 146.847 279.766C146.847 265.117 152.055 253.154 162.472 243.877C173.702 233.867 189.449 228.862 209.713 228.862H219.112V395H207.882C187.293 395 171.057 390.443 159.176 381.328C147.701 372.539 141.964 360.291 141.964 344.585C141.964 328.797 150.183 317.607 166.622 311.016H166.378Z" fill="white"/>
</g>
<path d="M130.119 108.844C134.084 110.426 136.066 113.18 136.066 117.105C136.066 120.738 134.689 123.609 131.936 125.719C129.084 127.906 125.188 129 120.246 129H117.551V89.127H119.807C124.67 89.127 128.449 90.3281 131.145 92.7305C133.645 94.957 134.895 97.7891 134.895 101.227C134.895 104.645 133.322 107.184 130.178 108.844H130.119ZM100.471 108.844C97.3457 107.203 95.7832 104.703 95.7832 101.344C95.7832 97.8281 97.0332 94.957 99.5332 92.7305C102.229 90.3281 106.008 89.127 110.871 89.127H113.127V129H110.432C105.49 129 101.594 127.906 98.7422 125.719C95.9883 123.609 94.6113 120.67 94.6113 116.9C94.6113 113.111 96.584 110.426 100.529 108.844H100.471Z" fill="white"/>
<defs>
<filter id="filter0_d" x="141.964" y="228.862" width="175.729" height="171.138" filterUnits="userSpaceOnUse" color-interpolation-filters="sRGB">
<feFlood flood-opacity="0" result="BackgroundImageFix"/>
<feColorMatrix in="SourceAlpha" type="matrix" values="0 0 0 0 0 0 0 0 0 0 0 0 0 0 0 0 0 0 127 0"/>
<feOffset dx="3" dy="5"/>
<feColorMatrix type="matrix" values="0 0 0 0 0.566986 0 0 0 0 0.754167 0 0 0 0 0.417934 0 0 0 1 0"/>
<feBlend mode="normal" in2="BackgroundImageFix" result="effect1_dropShadow"/>
<feBlend mode="normal" in="SourceGraphic" in2="effect1_dropShadow" result="shape"/>
</filter>
<linearGradient id="paint0_linear" x1="382" y1="66" x2="77" y2="557" gradientUnits="userSpaceOnUse">
<stop stop-color="#F9FB90"/>
<stop offset="1" stop-color="#C9C569"/>
</linearGradient>
</defs>
</svg>
