<svg width="320" height="506" viewBox="0 0 320 506" fill="none" xmlns="http://www.w3.org/2000/svg">
<rect width="320" height="506" rx="9" fill="white"/>
<rect x="8" y="7" width="305" height="491" rx="9" fill="url(#paint0_linear)"/>
<circle cx="156.5" cy="247.5" r="127.5" fill="#C0DAE9"/>
<circle cx="173.5" cy="255.5" r="117.5" fill="#A6C8DA"/>
<circle cx="242.5" cy="373.5" r="37.5" fill="#C0DAE9"/>
<circle cx="251.5" cy="170.5" r="24.5" fill="#CDD3EB"/>
<circle cx="160.5" cy="415.5" r="19.5" fill="#C0DAE9"/>
<g filter="url(#filter0_d)">
<path d="M174.771 169.862H184.292C217.739 169.862 238.328 185.447 246.06 216.615C248.664 227.195 249.966 239.687 249.966 254.091C249.966 280.784 244.473 301.129 233.486 315.126C222.581 329.042 206.183 336 184.292 336H174.771V169.862ZM92.0068 253.725C86.3102 251.039 82.0378 247.092 79.1895 241.884C76.3411 236.675 74.917 229.514 74.917 220.399C74.917 211.203 76.2191 203.35 78.8232 196.84C81.5088 190.248 85.6999 184.958 91.3965 180.971C101.976 173.565 120.042 169.862 145.596 169.862H154.629V260.438H142.178C117.926 260.438 101.203 258.201 92.0068 253.725ZM80.7764 278.993H154.629V336H146.694C123.338 336 106.493 332.257 96.1572 324.77C85.9033 317.364 80.7764 305.035 80.7764 287.782V278.993Z" fill="white"/>
</g>
<path d="M59.5449 30.127H61.8301C69.8574 30.127 74.7988 33.8672 76.6543 41.3477C77.2793 43.8867 77.5918 46.8848 77.5918 50.3418C77.5918 56.748 76.2734 61.6309 73.6367 64.9902C71.0195 68.3301 67.084 70 61.8301 70H59.5449V30.127ZM39.6816 50.2539C38.3145 49.6094 37.2891 48.6621 36.6055 47.4121C35.9219 46.1621 35.5801 44.4434 35.5801 42.2559C35.5801 40.0488 35.8926 38.1641 36.5176 36.6016C37.1621 35.0195 38.168 33.75 39.5352 32.793C42.0742 31.0156 46.4102 30.127 52.543 30.127H54.7109V51.8652H51.7227C45.9023 51.8652 41.8887 51.3281 39.6816 50.2539ZM36.9863 56.3184H54.7109V70H52.8066C47.2012 70 43.1582 69.1016 40.6777 67.3047C38.2168 65.5273 36.9863 62.5684 36.9863 58.4277V56.3184Z" fill="white"/>
<defs>
<filter id="filter0_d" x="74.917" y="169.862" width="178.049" height="171.138" filterUnits="userSpaceOnUse" color-interpolation-filters="sRGB">
<feFlood flood-opacity="0" result="BackgroundImageFix"/>
<feColorMatrix in="SourceAlpha" type="matrix" values="0 0 0 0 0 0 0 0 0 0 0 0 0 0 0 0 0 0 127 0"/>
<feOffset dx="3" dy="5"/>
<feColorMatrix type="matrix" values="0 0 0 0 0.698039 0 0 0 0 0.65098 0 0 0 0 0.772549 0 0 0 1 0"/>
<feBlend mode="normal" in2="BackgroundImageFix" result="effect1_dropShadow"/>
<feBlend mode="normal" in="SourceGraphic" in2="effect1_dropShadow" result="shape"/>
</filter>
<linearGradient id="paint0_linear" x1="313" y1="6.99999" x2="7.99999" y2="498" gradientUnits="userSpaceOnUse">
<stop stop-color="#BED6E3"/>
<stop offset="1" stop-color="#779FB6"/>
</linearGradient>
</defs>
</svg>
