<svg width="389" height="565" viewBox="0 0 389 565" fill="none" xmlns="http://www.w3.org/2000/svg">
<rect x="69" y="59" width="320" height="506" rx="9" fill="white"/>
<rect x="77" y="66" width="305" height="491" rx="9" fill="url(#paint0_linear)"/>
<path d="M345.844 301.777C335.884 238.4 249.284 204.882 243.141 202.698C280.319 249.583 247.73 282.692 248.222 322.076C248.714 361.459 277.263 373.389 288.98 373.784C288.98 373.784 318.762 315.67 279.544 238.476C315.337 280.549 309.451 369.097 304.495 374.335C317.096 368.884 353.703 351.783 345.844 301.777Z" fill="#6CE587"/>
<path d="M146.749 217.961C96.8093 258.233 111.006 350.003 112.18 356.415C134.241 300.794 179.2 312.5 213.077 292.41C246.955 272.321 243.037 241.628 237.529 231.279C237.529 231.279 172.308 234.49 125.004 307.011C143.588 254.992 223.248 215.883 230.261 217.561C219.247 209.364 186.153 186.185 146.749 217.961Z" fill="#6CE587"/>
<path d="M175.282 435.674C235.525 457.733 306.869 398.293 311.76 393.983C252.722 403.725 239.597 359.161 204.926 340.473C170.256 321.784 145.967 340.952 139.934 351.004C139.934 351.004 176.282 405.252 262.809 408.44C208.65 419.308 134.094 371.176 131.92 364.3C130.568 377.963 127.748 418.269 175.282 435.674Z" fill="#6CE587"/>
<path d="M204.866 179.736C179.455 173.207 152.623 202.255 150.793 204.348C174.5 197.266 181.552 215.778 196.405 222.111C211.258 228.445 220.434 219.015 222.511 214.398C222.511 214.398 205.618 192.862 170.206 195.733C191.88 188.407 224.124 205.441 225.273 208.29C225.303 202.351 224.916 184.887 204.866 179.736Z" fill="#7BFD98"/>
<path d="M150.929 443.892C177.152 444.737 197.022 410.548 198.353 408.108C176.755 420.177 165.844 403.642 149.969 400.691C134.094 397.74 127.189 408.941 126.166 413.899C126.166 413.899 147.34 431.244 181.279 420.739C161.717 432.604 126.54 422.992 124.799 420.461C126.061 426.265 130.238 443.226 150.929 443.892Z" fill="#5CDC7C"/>
<path d="M353.561 335.565C367.279 313.2 347.413 279.008 345.952 276.643C345.744 301.385 325.976 302.677 315.552 315.008C305.128 327.34 311.44 338.884 315.241 342.228C315.241 342.228 340.795 332.421 348.472 297.732C349.095 320.603 323.327 346.405 320.266 346.665C325.933 348.442 342.737 353.211 353.561 335.565Z" fill="#4EC769"/>
<g filter="url(#filter0_d)">
<path d="M239.742 228.862H311.397L272.335 394.756H200.558L239.742 228.862ZM140.377 228.984H213.131V257.915C213.131 266.948 212.317 273.703 210.689 278.179C209.062 282.573 207.068 286.195 204.708 289.043C202.429 291.891 199.337 294.333 195.431 296.367C187.049 300.843 175.533 303.081 160.885 303.081H140.377V228.984Z" fill="white"/>
</g>
<path d="M118.078 89.127H135.275L125.9 128.941H108.674L118.078 89.127ZM94.2305 89.1562H111.691V96.0996C111.691 98.2676 111.496 99.8887 111.105 100.963C110.715 102.018 110.236 102.887 109.67 103.57C109.123 104.254 108.381 104.84 107.443 105.328C105.432 106.402 102.668 106.939 99.1523 106.939H94.2305V89.1562Z" fill="white"/>
<defs>
<filter id="filter0_d" x="140.377" y="228.862" width="174.021" height="170.894" filterUnits="userSpaceOnUse" color-interpolation-filters="sRGB">
<feFlood flood-opacity="0" result="BackgroundImageFix"/>
<feColorMatrix in="SourceAlpha" type="matrix" values="0 0 0 0 0 0 0 0 0 0 0 0 0 0 0 0 0 0 127 0"/>
<feOffset dx="3" dy="5"/>
<feColorMatrix type="matrix" values="0 0 0 0 0.180392 0 0 0 0 0.733333 0 0 0 0 0.364706 0 0 0 1 0"/>
<feBlend mode="normal" in2="BackgroundImageFix" result="effect1_dropShadow"/>
<feBlend mode="normal" in="SourceGraphic" in2="effect1_dropShadow" result="shape"/>
</filter>
<linearGradient id="paint0_linear" x1="382" y1="66" x2="77" y2="557" gradientUnits="userSpaceOnUse">
<stop stop-color="#6EE788"/>
<stop offset="1" stop-color="#2CBA5B"/>
</linearGradient>
</defs>
</svg>
