<svg width="320" height="506" viewBox="0 0 320 506" fill="none" xmlns="http://www.w3.org/2000/svg">
<rect width="320" height="506" rx="9" fill="white"/>
<rect x="6" y="7" width="305" height="491" rx="9" fill="url(#paint0_linear)"/>
<path d="M249.337 151.558L194.529 143.269C190.291 142.272 187.91 145.594 183.658 155.27C165.336 196.579 137.278 256.637 135.397 263.37C133.516 270.103 138.056 272.948 148.387 271.572L212.131 266.398C212.131 266.398 168.933 366.686 163.237 378.69C157.54 390.694 165.777 398.957 178.547 382.955C191.318 366.953 275.306 247.883 281.575 240.644C287.845 233.405 296.36 219.878 280.299 220.568C264.239 221.258 215.77 225.233 215.77 225.233L244.268 176.522C253.215 162.515 258.978 154.205 249.337 151.558Z" fill="#A1D776"/>
<path d="M184.611 94.0301H119.611C114.523 93.5723 112.345 98.2955 109.111 111.53C95.112 168.064 73.1112 250.53 72.1112 259.53C71.1112 268.53 76.8745 271.298 88.6112 267.53L161.611 248.53C161.611 248.53 129.111 385.53 124.611 402.03C120.111 418.53 131.111 427.53 143.111 404.53C155.111 381.53 231.611 212.53 237.611 202.03C243.611 191.53 251.111 172.53 232.611 176.53C214.111 180.53 158.611 195.03 158.611 195.03L183.111 127.03C191.029 107.33 196.253 95.5541 184.611 94.0301Z" fill="#FDF5B2"/>
<path d="M88.2193 166.675L47.691 177.187C44.4445 177.724 43.8503 181.022 43.9748 189.798C44.3903 227.319 44.0115 282.306 44.8437 288.08C45.6759 293.854 49.7172 294.649 56.4257 290.401L98.8688 266.746C98.8688 266.746 100.764 357.44 100.627 368.458C100.49 379.476 108.805 383.31 112.567 367.025C116.329 350.741 136.692 232.975 138.734 225.457C140.777 217.938 142.38 204.876 131.492 210.363C120.604 215.849 88.3447 233.867 88.3447 233.867L92.6217 187.498C94.3718 173.931 95.7247 165.743 88.2193 166.675Z" fill="#A1D776"/>
<path d="M275.967 275.139L247.601 259.482C245.49 258.057 243.406 259.585 238.82 264.559C219.147 285.76 189.76 316.305 187.164 319.976C184.569 323.647 186.42 326.239 192.446 327.428L228.861 336.754C228.861 336.754 181.809 388.473 175.887 394.561C169.964 400.649 172.605 407.211 183.36 400.104C194.115 392.998 268.047 337.968 273.184 334.849C278.322 331.731 286.153 325.279 277.12 322.561C268.087 319.843 240.388 312.777 240.388 312.777L267.395 289.122C275.576 282.466 280.681 278.606 275.967 275.139Z" fill="#BFF494"/>
<path d="M62.2598 267.661L36.7161 280.342C34.6276 281.156 34.6894 283.429 35.9903 289.24C41.4743 314.099 48.853 350.67 50.2088 354.388C51.5647 358.106 54.3675 358.065 58.2475 354.3L83.2431 332.622C83.2431 332.622 97.0926 392.586 98.5303 399.922C99.9681 407.258 106.04 408.635 106.286 397.291C106.533 385.948 103.756 304.874 104.074 299.594C104.391 294.313 103.647 285.413 97.154 290.588C90.6611 295.763 71.6683 312.266 71.6683 312.266L68.0828 280.87C67.3661 271.615 67.1311 265.986 62.2598 267.661Z" fill="#C8FE9E"/>
<g filter="url(#filter0_d)">
<path d="M218.913 252.016C235.433 258.607 243.693 270.082 243.693 286.439C243.693 301.576 237.956 313.539 226.481 322.328C214.6 331.443 198.365 336 177.775 336H166.545V169.862H175.944C196.208 169.862 211.955 174.867 223.186 184.877C233.602 194.154 238.811 205.954 238.811 220.277C238.811 234.519 232.259 245.098 219.157 252.016H218.913ZM95.3779 252.016C82.3571 245.18 75.8467 234.763 75.8467 220.766C75.8467 206.117 81.055 194.154 91.4717 184.877C102.702 174.867 118.449 169.862 138.713 169.862H148.112V336H136.882C116.293 336 100.057 331.443 88.1758 322.328C76.7012 313.539 70.9639 301.291 70.9639 285.585C70.9639 269.797 79.1833 258.607 95.6221 252.016H95.3779Z" fill="white"/>
</g>
<path d="M70.6191 51.8438C74.584 53.4258 76.5664 56.1797 76.5664 60.1055C76.5664 63.7383 75.1895 66.6094 72.4355 68.7188C69.584 70.9062 65.6875 72 60.7461 72H58.0508V32.127H60.3066C65.1699 32.127 68.9492 33.3281 71.6445 35.7305C74.1445 37.957 75.3945 40.7891 75.3945 44.2266C75.3945 47.6445 73.8223 50.1836 70.6777 51.8438H70.6191ZM40.9707 51.8438C37.8457 50.2031 36.2832 47.7031 36.2832 44.3438C36.2832 40.8281 37.5332 37.957 40.0332 35.7305C42.7285 33.3281 46.5078 32.127 51.3711 32.127H53.627V72H50.9316C45.9902 72 42.0938 70.9062 39.2422 68.7188C36.4883 66.6094 35.1113 63.6699 35.1113 59.9004C35.1113 56.1113 37.084 53.4258 41.0293 51.8438H40.9707Z" fill="white"/>
<defs>
<filter id="filter0_d" x="70.9639" y="169.862" width="175.729" height="171.138" filterUnits="userSpaceOnUse" color-interpolation-filters="sRGB">
<feFlood flood-opacity="0" result="BackgroundImageFix"/>
<feColorMatrix in="SourceAlpha" type="matrix" values="0 0 0 0 0 0 0 0 0 0 0 0 0 0 0 0 0 0 127 0"/>
<feOffset dx="3" dy="5"/>
<feColorMatrix type="matrix" values="0 0 0 0 0.566986 0 0 0 0 0.754167 0 0 0 0 0.417934 0 0 0 1 0"/>
<feBlend mode="normal" in2="BackgroundImageFix" result="effect1_dropShadow"/>
<feBlend mode="normal" in="SourceGraphic" in2="effect1_dropShadow" result="shape"/>
</filter>
<linearGradient id="paint0_linear" x1="311" y1="6.99999" x2="5.99999" y2="498" gradientUnits="userSpaceOnUse">
<stop stop-color="#F9FB90"/>
<stop offset="1" stop-color="#C9C569"/>
</linearGradient>
</defs>
</svg>
