<svg width="320" height="506" viewBox="0 0 320 506" fill="none" xmlns="http://www.w3.org/2000/svg">
<rect width="320" height="506" rx="9" fill="white"/>
<rect x="8" y="7" width="305" height="491" rx="9" fill="url(#paint0_linear)"/>
<circle cx="156.5" cy="247.5" r="127.5" fill="#C0DAE9"/>
<circle cx="173.5" cy="255.5" r="117.5" fill="#A6C8DA"/>
<circle cx="242.5" cy="373.5" r="37.5" fill="#C0DAE9"/>
<circle cx="251.5" cy="170.5" r="24.5" fill="#C0DAE9"/>
<circle cx="160.5" cy="415.5" r="19.5" fill="#C0DAE9"/>
<g filter="url(#filter0_d)">
<path d="M168.545 261.415H146.328V241.029H168.545V169.862H177.944C198.127 169.862 213.426 174.257 223.843 183.046C233.527 191.184 238.369 202.536 238.369 217.104C238.369 234.926 226.732 246.522 203.457 251.894C223.395 255.963 235.887 264.304 240.933 276.918C242.479 280.743 243.252 285.544 243.252 291.322C243.252 297.1 241.909 302.919 239.224 308.778C236.538 314.638 232.55 319.561 227.261 323.549C216.437 331.85 200.609 336 179.775 336H168.545V261.415ZM80.7764 218.08C80.7764 201.723 86.473 189.353 97.8662 180.971C108.039 173.565 121.873 169.862 139.37 169.862H154.629V226.137H80.7764V218.08ZM80.7764 279.726H154.629V336H139.37C112.026 336 94.0413 327.292 85.415 309.877C82.3226 303.773 80.7764 296.409 80.7764 287.782V279.726Z" fill="white"/>
</g>
<path d="M66.0508 52.0996H60.7188V47.207H66.0508V30.127H68.3066C73.1504 30.127 76.8223 31.1816 79.3223 33.291C81.6465 35.2441 82.8086 37.9688 82.8086 41.4648C82.8086 45.7422 80.0156 48.5254 74.4297 49.8145C79.2148 50.791 82.2129 52.793 83.4238 55.8203C83.7949 56.7383 83.9805 57.8906 83.9805 59.2773C83.9805 60.6641 83.6582 62.0605 83.0137 63.4668C82.3691 64.873 81.4121 66.0547 80.1426 67.0117C77.5449 69.0039 73.7461 70 68.7461 70H66.0508V52.0996ZM44.9863 41.6992C44.9863 37.7734 46.3535 34.8047 49.0879 32.793C51.5293 31.0156 54.8496 30.127 59.0488 30.127H62.7109V43.6328H44.9863V41.6992ZM44.9863 56.4941H62.7109V70H59.0488C52.4863 70 48.1699 67.9102 46.0996 63.7305C45.3574 62.2656 44.9863 60.498 44.9863 58.4277V56.4941Z" fill="white"/>
<defs>
<filter id="filter0_d" x="80.7764" y="169.862" width="165.476" height="171.138" filterUnits="userSpaceOnUse" color-interpolation-filters="sRGB">
<feFlood flood-opacity="0" result="BackgroundImageFix"/>
<feColorMatrix in="SourceAlpha" type="matrix" values="0 0 0 0 0 0 0 0 0 0 0 0 0 0 0 0 0 0 127 0"/>
<feOffset dx="3" dy="5"/>
<feColorMatrix type="matrix" values="0 0 0 0 0.698039 0 0 0 0 0.65098 0 0 0 0 0.772549 0 0 0 1 0"/>
<feBlend mode="normal" in2="BackgroundImageFix" result="effect1_dropShadow"/>
<feBlend mode="normal" in="SourceGraphic" in2="effect1_dropShadow" result="shape"/>
</filter>
<linearGradient id="paint0_linear" x1="313" y1="6.99999" x2="7.99999" y2="498" gradientUnits="userSpaceOnUse">
<stop stop-color="#BED6E3"/>
<stop offset="1" stop-color="#779FB6"/>
</linearGradient>
</defs>
</svg>
