<svg width="320" height="506" viewBox="0 0 320 506" fill="none" xmlns="http://www.w3.org/2000/svg">
<rect x="1.52588e-05" width="320" height="506" rx="9" fill="white"/>
<rect x="8.00002" y="7" width="305" height="491" rx="9" fill="url(#paint0_linear)"/>
<path d="M223.983 213.721L233.288 223.026C253.107 242.845 262.21 264.194 260.599 287.073C259.068 307.778 249.119 327.314 230.751 345.682C212.06 364.373 192.081 373.718 170.812 373.718C148.577 373.718 127.309 363.567 107.007 343.266L100.723 336.982L223.983 213.721ZM71.9624 187.861C80.8242 178.999 90.2097 171.95 100.119 166.713C110.109 161.396 120.421 158.335 131.055 157.529C153.935 155.918 175.284 165.021 195.102 184.84L204.407 194.145L81.1465 317.405L74.8626 311.121C54.5609 290.819 44.4101 269.551 44.4101 247.316C44.4101 226.047 53.5942 206.229 71.9624 187.861Z" fill="#363131"/>
<path fill-rule="evenodd" clip-rule="evenodd" d="M151.039 215.731C141.72 238.911 122.794 252 101.341 252C76.2765 252 54.7483 234.181 48.2536 207.216C41.7589 180.25 50.4767 165.906 59.5085 152.6C59.7087 152.305 59.9104 152.008 60.1134 151.708L58.278 164.481C60.1134 195.862 83.5507 178.043 78.0444 166.531C72.538 155.02 75.7845 136.562 84.9626 131.682C85.5783 148.37 91.1749 159.12 101.341 156.281C111.506 153.443 113.693 143.607 107.27 124C107.27 124 121.593 131.051 126.754 143.035C131.047 153.003 130.348 158.717 129.747 163.624C129.626 164.616 129.508 165.576 129.437 166.531C129.357 167.608 129.068 169.191 128.724 171.075C127.256 179.121 124.784 192.668 133.249 195.862C133.249 195.862 148.498 201.381 152.168 170.789C153.079 163.198 158.679 198.7 151.039 215.731Z" fill="#FF5B51"/>
<path fill-rule="evenodd" clip-rule="evenodd" d="M130.42 230.898C124.35 245.024 112.022 253 98.0475 253C81.7214 253 67.6984 242.141 63.4679 225.709C59.2374 209.278 64.916 200.537 70.7991 192.428C70.9295 192.248 71.0609 192.067 71.1931 191.885L69.9976 199.668C71.1931 218.791 86.4597 207.932 82.8729 200.917C79.2862 193.903 81.4009 182.655 87.3793 179.681C87.7804 189.85 91.4259 196.401 98.0475 194.671C104.669 192.942 106.094 186.948 101.91 175C101.91 175 111.24 179.297 114.602 186.6C117.398 192.674 116.942 196.155 116.551 199.145C116.472 199.75 116.395 200.335 116.349 200.917C116.297 201.574 116.108 202.538 115.884 203.686C114.928 208.589 113.318 216.844 118.832 218.791C118.832 218.791 128.764 222.154 131.156 203.512C131.749 198.886 135.396 220.52 130.42 230.898Z" fill="#FF5B51"/>
<circle cx="221.198" cy="326.409" r="52.7613" fill="#C0DAE9"/>
<circle cx="228.233" cy="329.72" r="48.6232" fill="#A6C8DA"/>
<circle cx="256.786" cy="378.55" r="15.518" fill="#C0DAE9"/>
<circle cx="260.51" cy="294.546" r="10.1384" fill="#C0DAE9"/>
<circle cx="222.853" cy="395.93" r="8.06938" fill="#C0DAE9"/>
<path d="M42.8969 39.041L44.4921 37.4459C47.8895 34.0485 51.5493 32.4878 55.4716 32.7641C59.0209 33.0265 62.37 34.7321 65.5188 37.8809C68.7229 41.085 70.3249 44.51 70.3249 48.1561C70.3249 51.9678 68.5848 55.6138 65.1045 59.0941L64.0273 60.1714L42.8969 39.041ZM38.4637 65.1018C36.9445 63.5826 35.7361 61.9736 34.8384 60.2749C33.9269 58.5624 33.4021 56.7946 33.264 54.9716C32.9878 51.0494 34.5484 47.3896 37.9458 43.9921L39.5409 42.397L60.6713 63.5273L59.594 64.6046C56.1138 68.0849 52.4677 69.825 48.656 69.825C45.01 69.825 41.6125 68.2506 38.4637 65.1018Z" fill="white"/>
<path d="M260.406 147.19L237.876 143.783C236.134 143.373 235.155 144.739 233.407 148.716C225.876 165.698 214.341 190.386 213.568 193.154C212.795 195.921 214.662 197.091 218.908 196.525L245.112 194.398C245.112 194.398 227.354 235.625 225.012 240.559C222.671 245.494 226.057 248.891 231.306 242.312C236.556 235.734 271.082 186.787 273.659 183.811C276.236 180.836 279.736 175.275 273.134 175.559C266.532 175.842 246.608 177.477 246.608 177.477L258.323 157.453C262.001 151.694 264.37 148.278 260.406 147.19Z" fill="#A1D776"/>
<path d="M233.799 123.542H207.079C204.987 123.353 204.092 125.295 202.763 130.736C197.008 153.975 187.964 187.875 187.553 191.575C187.142 195.275 189.511 196.413 194.336 194.864L224.344 187.053C224.344 187.053 210.984 243.371 209.134 250.154C207.285 256.937 211.806 260.636 216.739 251.182C221.672 241.727 253.12 172.254 255.586 167.938C258.053 163.622 261.136 155.811 253.531 157.456C245.926 159.1 223.111 165.061 223.111 165.061L233.183 137.107C236.437 129.009 238.585 124.168 233.799 123.542Z" fill="#FDF5B2"/>
<path d="M194.174 153.405L177.514 157.726C176.18 157.947 175.935 159.302 175.987 162.91C176.157 178.334 176.002 200.938 176.344 203.312C176.686 205.685 178.347 206.012 181.105 204.266L198.552 194.542C198.552 194.542 199.331 231.824 199.275 236.353C199.219 240.882 202.637 242.458 204.183 235.764C205.73 229.07 214.1 180.659 214.94 177.568C215.78 174.478 216.439 169.108 211.963 171.364C207.487 173.619 194.226 181.026 194.226 181.026L195.984 161.964C196.704 156.388 197.26 153.021 194.174 153.405Z" fill="#A1D776"/>
<path d="M271.353 197.992L259.693 191.555C258.825 190.97 257.968 191.598 256.083 193.643C247.996 202.358 235.916 214.914 234.849 216.423C233.782 217.932 234.543 218.998 237.02 219.487L251.989 223.32C251.989 223.32 232.647 244.581 230.213 247.084C227.778 249.586 228.864 252.284 233.285 249.362C237.706 246.441 268.098 223.819 270.21 222.537C272.321 221.255 275.541 218.603 271.828 217.486C268.114 216.369 256.728 213.464 256.728 213.464L267.83 203.74C271.193 201.004 273.292 199.417 271.353 197.992Z" fill="#BFF494"/>
<path d="M183.503 194.918L173.003 200.131C172.144 200.465 172.169 201.4 172.704 203.788C174.959 214.007 177.992 229.041 178.549 230.569C179.107 232.098 180.259 232.081 181.854 230.533L192.129 221.622C192.129 221.622 197.822 246.272 198.413 249.287C199.004 252.303 201.5 252.869 201.601 248.206C201.703 243.543 200.561 210.215 200.692 208.044C200.823 205.874 200.516 202.215 197.847 204.342C195.178 206.47 187.371 213.254 187.371 213.254L185.897 200.348C185.602 196.543 185.506 194.229 183.503 194.918Z" fill="#C8FE9E"/>
<path d="M147.322 320.947C142.767 291.963 103.162 276.634 100.353 275.635C117.355 297.077 102.451 312.219 102.676 330.23C102.901 348.242 115.958 353.698 121.316 353.878C121.316 353.878 134.936 327.301 117.001 291.997C133.37 311.239 130.678 351.735 128.411 354.13C134.174 351.638 150.916 343.817 147.322 320.947Z" fill="#6CE587"/>
<path d="M56.2689 282.615C33.43 301.033 39.9226 343.002 40.4598 345.935C50.5489 320.498 71.1098 325.851 86.6032 316.664C102.097 307.476 100.305 293.439 97.786 288.706C97.786 288.706 67.9583 290.174 46.3245 323.341C54.8233 299.551 91.2547 281.665 94.4619 282.433C89.4248 278.684 74.2897 268.083 56.2689 282.615Z" fill="#6CE587"/>
<path d="M69.3181 382.183C96.8691 392.271 129.497 365.087 131.734 363.116C104.734 367.572 98.7314 347.191 82.8754 338.644C67.0195 330.097 55.9114 338.863 53.1522 343.461C53.1522 343.461 69.7756 368.27 109.347 369.728C84.5786 374.698 50.4814 352.686 49.4873 349.541C48.8689 355.79 47.5793 374.223 69.3181 382.183Z" fill="#6CE587"/>
<path d="M82.8478 265.134C71.2264 262.148 58.9555 275.432 58.1183 276.389C68.9604 273.15 72.1858 281.617 78.9785 284.513C85.7713 287.41 89.9676 283.097 90.9176 280.986C90.9176 280.986 83.1918 271.137 66.9968 272.45C76.9092 269.099 91.6552 276.889 92.1805 278.192C92.1945 275.476 92.0176 267.49 82.8478 265.134Z" fill="#7BFD98"/>
<path d="M58.1806 385.941C70.1733 386.327 79.2606 370.692 79.8696 369.576C69.9916 375.095 65.0019 367.533 57.7417 366.184C50.4815 364.834 47.3239 369.957 46.8558 372.224C46.8558 372.224 56.5392 380.157 72.0607 375.352C63.1145 380.779 47.027 376.383 46.2308 375.225C46.808 377.88 48.718 385.636 58.1806 385.941Z" fill="#5CDC7C"/>
<path d="M150.851 336.399C157.125 326.171 148.04 310.534 147.371 309.453C147.276 320.768 138.236 321.359 133.468 326.998C128.701 332.638 131.588 337.917 133.326 339.447C133.326 339.447 145.013 334.961 148.524 319.097C148.809 329.557 137.024 341.357 135.624 341.476C138.216 342.288 145.901 344.47 150.851 336.399Z" fill="#4EC769"/>
<g filter="url(#filter0_d)">
<path d="M124.733 218.546L130.05 213.229C141.374 201.904 153.574 196.702 166.648 197.623C178.479 198.498 189.643 204.183 200.139 214.679C210.819 225.359 216.159 236.776 216.159 248.93C216.159 261.635 210.359 273.789 198.758 285.39L195.167 288.981L124.733 218.546ZM109.955 305.415C104.891 300.351 100.863 294.988 97.8708 289.326C94.8324 283.617 93.0831 277.725 92.6227 271.648C91.702 258.574 96.904 246.375 108.229 235.05L113.546 229.733L183.98 300.167L180.39 303.758C168.789 315.359 156.635 321.159 143.929 321.159C131.776 321.159 120.451 315.911 109.955 305.415Z" fill="white"/>
</g>
<defs>
<filter id="filter0_d" x="92.5189" y="197.519" width="126.64" height="128.64" filterUnits="userSpaceOnUse" color-interpolation-filters="sRGB">
<feFlood flood-opacity="0" result="BackgroundImageFix"/>
<feColorMatrix in="SourceAlpha" type="matrix" values="0 0 0 0 0 0 0 0 0 0 0 0 0 0 0 0 0 0 127 0"/>
<feOffset dx="3" dy="5"/>
<feColorMatrix type="matrix" values="0 0 0 0 0.208333 0 0 0 0 0.186632 0 0 0 0 0.186632 0 0 0 1 0"/>
<feBlend mode="normal" in2="BackgroundImageFix" result="effect1_dropShadow"/>
<feBlend mode="normal" in="SourceGraphic" in2="effect1_dropShadow" result="shape"/>
</filter>
<linearGradient id="paint0_linear" x1="313" y1="7" x2="8.00004" y2="498" gradientUnits="userSpaceOnUse">
<stop stop-color="#4E4948"/>
<stop offset="1" stop-color="#342F2F"/>
</linearGradient>
</defs>
</svg>
