<svg width="320" height="623" viewBox="0 0 320 623" fill="none" xmlns="http://www.w3.org/2000/svg">
<rect y="61.0383" width="320" height="506" rx="9" fill="white"/>
<rect x="8" y="68.0383" width="305" height="491" rx="9" fill="url(#paint0_linear)"/>
<path d="M102.501 101.709H107.921V105.4H106.905C105.141 105.4 103.936 105.124 103.292 104.57C102.764 104.115 102.501 103.379 102.501 102.363V101.709ZM95.5574 101.709H100.811V107.061H104.727V109.609H100.811V114.98H95.5574V101.709ZM102.491 114.053C102.491 112.705 103.272 111.79 104.835 111.309C105.434 111.126 106.205 111.035 107.149 111.035H107.921V115H102.491V114.053ZM110.538 101.709H115.792V114.98H110.538V101.709ZM117.471 114.053C117.471 112.705 118.253 111.79 119.815 111.309C120.414 111.126 121.186 111.035 122.13 111.035H122.901V115H117.471V114.053ZM132.462 101.709H137.882V105.4H136.866C135.102 105.4 133.897 105.124 133.253 104.57C132.725 104.115 132.462 103.379 132.462 102.363V101.709ZM125.518 101.709H130.772V107.061H134.688V109.609H130.772V114.98H125.518V101.709ZM132.452 114.053C132.452 112.705 133.233 111.79 134.796 111.309C135.395 111.126 136.166 111.035 137.11 111.035H137.882V115H132.452V114.053ZM155.362 101.699H156.241C158.637 101.699 160.069 102.513 160.538 104.141C160.688 104.668 160.762 105.277 160.762 105.967V115H155.362V101.699ZM148.116 101.699H153.546V115H148.116V101.699ZM140.85 101.699H146.28V115H140.85V101.699ZM170.684 101.709L176.104 101.709V105.4H175.089C173.324 105.4 172.12 105.124 171.475 104.57C170.948 104.115 170.684 103.379 170.684 102.363V101.709ZM163.741 101.709H168.995V107.061L172.911 107.061V109.609L168.995 109.609V114.98H163.741V101.709ZM170.675 114.053C170.675 112.705 171.456 111.79 173.018 111.309C173.617 111.126 174.389 111.035 175.333 111.035H176.104V115L170.675 115V114.053ZM185.743 101.709H186.622C189.018 101.709 190.447 102.52 190.909 104.141C191.065 104.674 191.143 105.286 191.143 105.977V115H185.743V101.709ZM178.653 101.709H183.907V115H178.653V101.709ZM205.245 101.709H209.62V107.227H208.526C207.81 107.227 207.283 107.152 206.944 107.002C206.606 106.846 206.339 106.673 206.143 106.484C205.955 106.289 205.792 106.035 205.655 105.723C205.382 105.085 205.245 104.199 205.245 103.066V101.709ZM198.927 101.709H204.18V115H198.927V101.709ZM193.458 101.709H197.833V103.066C197.833 104.74 197.53 105.879 196.925 106.484C196.43 106.979 195.639 107.227 194.552 107.227H193.458V101.709ZM218.389 101.709H224.415V108.398L218.389 101.709ZM212.012 105.635H211.954C211.954 104.294 212.318 103.304 213.048 102.666C213.777 102.028 214.9 101.709 216.417 101.709L224.415 111.416C224.415 112.705 224.066 113.626 223.37 114.18C222.693 114.72 221.586 114.99 220.05 114.99L212.012 105.635ZM211.983 108.271L217.784 115H211.983V108.271Z" fill="white"/>
<path d="M102.501 508.709H107.921V512.4H106.905C105.141 512.4 103.936 512.124 103.292 511.57C102.764 511.115 102.501 510.379 102.501 509.363V508.709ZM95.5574 508.709H100.811V514.061H104.727V516.609H100.811V521.98H95.5574V508.709ZM102.491 521.053C102.491 519.705 103.272 518.79 104.835 518.309C105.434 518.126 106.205 518.035 107.149 518.035H107.921V522H102.491V521.053ZM110.538 508.709H115.792V521.98H110.538V508.709ZM117.471 521.053C117.471 519.705 118.253 518.79 119.815 518.309C120.414 518.126 121.186 518.035 122.13 518.035H122.901V522H117.471V521.053ZM132.462 508.709H137.882V512.4H136.866C135.102 512.4 133.897 512.124 133.253 511.57C132.725 511.115 132.462 510.379 132.462 509.363V508.709ZM125.518 508.709H130.772V514.061H134.688V516.609H130.772V521.98H125.518V508.709ZM132.452 521.053C132.452 519.705 133.233 518.79 134.796 518.309C135.395 518.126 136.166 518.035 137.11 518.035H137.882V522H132.452V521.053ZM155.362 508.699H156.241C158.637 508.699 160.069 509.513 160.538 511.141C160.688 511.668 160.762 512.277 160.762 512.967V522H155.362V508.699ZM148.116 508.699H153.546V522H148.116V508.699ZM140.85 508.699H146.28V522H140.85V508.699ZM170.684 508.709H176.104V512.4H175.089C173.324 512.4 172.12 512.124 171.475 511.57C170.948 511.115 170.684 510.379 170.684 509.363V508.709ZM163.741 508.709H168.995V514.061H172.911V516.609H168.995V521.98H163.741V508.709ZM170.675 521.053C170.675 519.705 171.456 518.79 173.018 518.309C173.617 518.126 174.389 518.035 175.333 518.035H176.104V522H170.675V521.053ZM185.743 508.709H186.622C189.018 508.709 190.447 509.52 190.909 511.141C191.065 511.674 191.143 512.286 191.143 512.977V522H185.743V508.709ZM178.653 508.709H183.907V522H178.653V508.709ZM205.245 508.709H209.62V514.227H208.526C207.81 514.227 207.283 514.152 206.944 514.002C206.606 513.846 206.339 513.673 206.143 513.484C205.955 513.289 205.792 513.035 205.655 512.723C205.382 512.085 205.245 511.199 205.245 510.066V508.709ZM198.927 508.709H204.18V522H198.927V508.709ZM193.458 508.709H197.833V510.066C197.833 511.74 197.53 512.879 196.925 513.484C196.43 513.979 195.639 514.227 194.552 514.227H193.458V508.709ZM218.389 508.709H224.415V515.398L218.389 508.709ZM212.012 512.635H211.954C211.954 511.294 212.318 510.304 213.048 509.666C213.777 509.028 214.9 508.709 216.417 508.709L224.415 518.416C224.415 519.705 224.066 520.626 223.37 521.18C222.693 521.72 221.586 521.99 220.05 521.99L212.012 512.635ZM211.983 515.271L217.784 522H211.983V515.271Z" fill="white"/>
<g filter="url(#filter0_d)">
<path d="M86.7559 274.127H103.016V285.201H99.9688C94.6758 285.201 91.0625 284.371 89.1289 282.711C87.5469 281.344 86.7559 279.137 86.7559 276.09V274.127ZM65.9258 274.127H81.6875V290.182H93.4355V297.828H81.6875V313.941H65.9258V274.127ZM86.7266 311.158C86.7266 307.115 89.0703 304.371 93.7578 302.926C95.5547 302.379 97.8691 302.105 100.701 302.105H103.016V314H86.7266V311.158ZM110.867 274.127H126.629V313.941H110.867V274.127ZM131.668 311.158C131.668 307.115 134.012 304.371 138.699 302.926C140.496 302.379 142.811 302.105 145.643 302.105H147.957V314H131.668V311.158Z" fill="#F05349"/>
<path d="M176.639 274.127H192.898V285.201H189.852C184.559 285.201 180.945 284.371 179.012 282.711C177.43 281.344 176.639 279.137 176.639 276.09V274.127ZM155.809 274.127H171.57V290.182H183.318V297.828H171.57V313.941H155.809V274.127ZM176.609 311.158C176.609 307.115 178.953 304.371 183.641 302.926C185.438 302.379 187.752 302.105 190.584 302.105H192.898V314H176.609V311.158ZM245.34 274.098H247.977C255.164 274.098 259.461 276.539 260.867 281.422C261.316 283.004 261.541 284.83 261.541 286.9V314H245.34V274.098ZM223.602 274.098H239.891V314H223.602V274.098ZM201.805 274.098H218.094V314H201.805V274.098Z" fill="#B6CFDE"/>
<path d="M86.7559 317.127H103.016V328.201H99.9688C94.6758 328.201 91.0625 327.371 89.1289 325.711C87.5469 324.344 86.7559 322.137 86.7559 319.09V317.127ZM65.9258 317.127H81.6875V333.182H93.4355V340.828H81.6875V356.941H65.9258V317.127ZM86.7266 354.158C86.7266 350.115 89.0703 347.371 93.7578 345.926C95.5547 345.379 97.8691 345.105 100.701 345.105H103.016V357H86.7266V354.158ZM131.932 317.127H134.568C141.756 317.127 146.043 319.559 147.43 324.422C147.898 326.023 148.133 327.859 148.133 329.93V357H131.932V317.127ZM110.662 317.127H126.424V357H110.662V317.127Z" fill="#62DF80"/>
<path d="M190.438 317.127H203.562V333.68H200.281C198.133 333.68 196.551 333.455 195.535 333.006C194.52 332.537 193.719 332.02 193.133 331.453C192.566 330.867 192.078 330.105 191.668 329.168C190.848 327.254 190.438 324.598 190.438 321.199V317.127ZM171.482 317.127H187.244V357H171.482V317.127ZM155.076 317.127H168.201V321.199C168.201 326.219 167.293 329.637 165.477 331.453C163.992 332.938 161.619 333.68 158.357 333.68H155.076V317.127ZM229.871 317.127H247.947V337.195L229.871 317.127ZM210.74 328.904H210.564C210.564 324.881 211.658 321.912 213.846 319.998C216.033 318.084 219.402 317.127 223.953 317.127L247.947 346.248C247.947 350.115 246.902 352.879 244.812 354.539C242.781 356.16 239.461 356.971 234.852 356.971L210.74 328.904ZM210.652 336.814L228.055 357H210.652V336.814Z" fill="#F4F58C"/>
</g>
<defs>
<filter id="filter0_d" x="65.9258" y="274.098" width="198.615" height="87.9023" filterUnits="userSpaceOnUse" color-interpolation-filters="sRGB">
<feFlood flood-opacity="0" result="BackgroundImageFix"/>
<feColorMatrix in="SourceAlpha" type="matrix" values="0 0 0 0 0 0 0 0 0 0 0 0 0 0 0 0 0 0 127 0"/>
<feOffset dx="3" dy="5"/>
<feColorMatrix type="matrix" values="0 0 0 0 0.211765 0 0 0 0 0.192157 0 0 0 0 0.192157 0 0 0 1 0"/>
<feBlend mode="normal" in2="BackgroundImageFix" result="effect1_dropShadow"/>
<feBlend mode="normal" in="SourceGraphic" in2="effect1_dropShadow" result="shape"/>
</filter>
<linearGradient id="paint0_linear" x1="313" y1="68.0383" x2="8.00002" y2="559.038" gradientUnits="userSpaceOnUse">
<stop stop-color="#4E4948"/>
<stop offset="1" stop-color="#342F2F"/>
</linearGradient>
</defs>
</svg>
