<svg width="366" height="570" viewBox="0 0 366 570" fill="none" xmlns="http://www.w3.org/2000/svg">
<rect x="45.5383" y="63.0382" width="320" height="506" rx="9" fill="white"/>
<rect x="53.5383" y="70.0382" width="305" height="491" rx="9" fill="url(#paint0_linear)"/>
<path d="M312.392 323.657C303.355 266.154 224.781 235.742 219.207 233.761C252.94 276.3 223.371 306.341 223.817 342.075C224.264 377.808 250.167 388.632 260.798 388.991C260.798 388.991 287.82 336.263 252.237 266.223C284.712 304.397 279.372 384.738 274.875 389.491C286.308 384.546 319.523 369.029 312.392 323.657Z" fill="#5CDC7C" fill-opacity="0.8"/>
<path d="M131.748 247.609C86.4369 284.149 99.3177 367.414 100.383 373.232C120.4 322.766 161.192 333.387 191.93 315.159C222.668 296.931 219.113 269.083 214.116 259.693C214.116 259.693 154.939 262.606 112.019 328.406C128.88 281.209 201.158 245.723 207.521 247.246C197.527 239.809 167.5 218.778 131.748 247.609Z" fill="#5CDC7C" fill-opacity="0.8"/>
<path d="M157.637 445.145C212.297 465.16 277.029 411.228 281.467 407.318C227.9 416.158 215.991 375.723 184.534 358.767C153.077 341.81 131.039 359.202 125.565 368.323C125.565 368.323 158.545 417.543 237.052 420.435C187.913 430.296 120.266 386.625 118.294 380.386C117.067 392.783 114.508 429.353 157.637 445.145Z" fill="#5CDC7C" fill-opacity="0.8"/>
<path d="M184.479 212.926C161.423 207.003 137.078 233.359 135.417 235.257C156.927 228.831 163.326 245.628 176.803 251.375C190.279 257.121 198.604 248.565 200.489 244.376C200.489 244.376 185.161 224.836 153.032 227.441C172.697 220.794 201.952 236.249 202.995 238.834C203.022 233.445 202.672 217.6 184.479 212.926Z" fill="#5CDC7C" fill-opacity="0.8"/>
<path d="M135.541 452.602C159.333 453.368 177.362 422.348 178.57 420.134C158.973 431.085 149.074 416.082 134.67 413.405C120.266 410.727 114.001 420.89 113.073 425.388C113.073 425.388 132.284 441.126 163.078 431.594C145.329 442.36 113.412 433.639 111.833 431.342C112.978 436.608 116.767 451.997 135.541 452.602Z" fill="#5CDC7C" fill-opacity="0.8"/>
<path d="M319.394 354.314C331.84 334.022 313.816 302.999 312.49 300.853C312.301 323.301 294.365 324.474 284.907 335.662C275.449 346.851 281.177 357.326 284.625 360.36C284.625 360.36 307.811 351.461 314.777 319.987C315.342 340.738 291.962 364.15 289.185 364.385C294.327 365.997 309.573 370.325 319.394 354.314Z" fill="#5CDC7C" fill-opacity="0.8"/>
<g filter="url(#filter0_d)">
<path d="M156.195 224.523H197.797V179.699H214.398V224.523H255.805V241.223H214.398V283.117H197.797V241.223H156.195V224.523ZM214.203 299.09H221.43C241.677 299.09 256.13 302.378 264.789 308.953C273.578 315.594 277.973 326.596 277.973 341.961C277.973 361.818 267.816 373.829 247.504 377.996C240.798 379.363 233.018 380.047 224.164 380.047H214.203V299.09ZM142.621 337.664C142.621 324.578 147.178 314.682 156.293 307.977C164.431 302.052 175.499 299.09 189.496 299.09H201.703V344.109H142.621V337.664ZM142.621 399.188C142.621 386.102 147.178 376.206 156.293 369.5C164.431 363.576 175.499 360.613 189.496 360.613H201.703V432H142.621V399.188ZM215.473 399.676H272.992V432H215.473V399.676Z" fill="white"/>
</g>
<path d="M73.1074 109.957H85.5879V96.5098H90.5684V109.957H102.99V114.967H90.5684V127.535H85.5879V114.967H73.1074V109.957ZM140.49 89.127H142.658C148.732 89.127 153.068 90.1133 155.666 92.0859C158.303 94.0781 159.621 97.3789 159.621 101.988C159.621 107.945 156.574 111.549 150.48 112.799C148.469 113.209 146.135 113.414 143.479 113.414H140.49V89.127ZM119.016 100.699C119.016 96.7734 120.383 93.8047 123.117 91.793C125.559 90.0156 128.879 89.127 133.078 89.127H136.74V102.633L119.016 102.633V100.699ZM119.016 119.156C119.016 115.23 120.383 112.262 123.117 110.25C125.559 108.473 128.879 107.584 133.078 107.584H136.74V129H119.016L119.016 119.156ZM140.871 119.303H158.127V129H140.871V119.303Z" fill="white"/>
<defs>
<filter id="filter0_d" x="142.621" y="179.699" width="138.352" height="257.301" filterUnits="userSpaceOnUse" color-interpolation-filters="sRGB">
<feFlood flood-opacity="0" result="BackgroundImageFix"/>
<feColorMatrix in="SourceAlpha" type="matrix" values="0 0 0 0 0 0 0 0 0 0 0 0 0 0 0 0 0 0 127 0"/>
<feOffset dx="3" dy="5"/>
<feColorMatrix type="matrix" values="0 0 0 0 0.211765 0 0 0 0 0.192157 0 0 0 0 0.192157 0 0 0 1 0"/>
<feBlend mode="normal" in2="BackgroundImageFix" result="effect1_dropShadow"/>
<feBlend mode="normal" in="SourceGraphic" in2="effect1_dropShadow" result="shape"/>
</filter>
<linearGradient id="paint0_linear" x1="358.538" y1="70.0382" x2="53.5384" y2="561.038" gradientUnits="userSpaceOnUse">
<stop stop-color="#4E4948"/>
<stop offset="1" stop-color="#342F2F"/>
</linearGradient>
</defs>
</svg>
