<svg width="389" height="565" viewBox="0 0 389 565" fill="none" xmlns="http://www.w3.org/2000/svg">
<rect x="69" y="59" width="320" height="506" rx="9" fill="white"/>
<rect x="77" y="66" width="305" height="491" rx="9" fill="url(#paint0_linear)"/>
<circle cx="225.5" cy="306.5" r="127.5" fill="#C0DAE9"/>
<circle cx="242.5" cy="314.5" r="117.5" fill="#A6C8DA"/>
<circle cx="311.5" cy="432.5" r="37.5" fill="#C0DAE9"/>
<circle cx="320.5" cy="229.5" r="24.5" fill="#C0DAE9"/>
<circle cx="229.5" cy="474.5" r="19.5" fill="#C0DAE9"/>
<g filter="url(#filter0_d)">
<path d="M239.254 228.862H313.106V285.869H305.172C281.816 285.869 265.011 282.126 254.757 274.639C244.422 267.233 239.254 254.904 239.254 237.651V228.862ZM209.591 395C165.808 395 143.917 366.191 143.917 308.574C143.917 280.905 149.369 260.723 160.274 248.027C171.261 235.251 187.7 228.862 209.591 228.862H219.112V395H209.591ZM239.254 304.424H251.705C275.224 304.424 291.948 307.272 301.876 312.969C313.269 319.398 318.966 330.913 318.966 347.515C318.966 366.232 313.473 378.968 302.486 385.723C292.395 391.908 274.329 395 248.287 395H239.254V304.424Z" fill="white"/>
</g>
<path d="M117.961 89.127H135.686V102.809H133.781C128.176 102.809 124.143 101.91 121.682 100.113C119.201 98.3359 117.961 95.377 117.961 91.2363V89.127ZM110.842 129C100.334 129 95.0801 122.086 95.0801 108.258C95.0801 101.617 96.3887 96.7734 99.0059 93.7266C101.643 90.6602 105.588 89.127 110.842 89.127H113.127V129H110.842ZM117.961 107.262H120.949C126.594 107.262 130.607 107.945 132.99 109.312C135.725 110.855 137.092 113.619 137.092 117.604C137.092 122.096 135.773 125.152 133.137 126.773C130.715 128.258 126.379 129 120.129 129H117.961V107.262Z" fill="white"/>
<defs>
<filter id="filter0_d" x="143.917" y="228.862" width="178.049" height="171.138" filterUnits="userSpaceOnUse" color-interpolation-filters="sRGB">
<feFlood flood-opacity="0" result="BackgroundImageFix"/>
<feColorMatrix in="SourceAlpha" type="matrix" values="0 0 0 0 0 0 0 0 0 0 0 0 0 0 0 0 0 0 127 0"/>
<feOffset dx="3" dy="5"/>
<feColorMatrix type="matrix" values="0 0 0 0 0.698039 0 0 0 0 0.65098 0 0 0 0 0.772549 0 0 0 1 0"/>
<feBlend mode="normal" in2="BackgroundImageFix" result="effect1_dropShadow"/>
<feBlend mode="normal" in="SourceGraphic" in2="effect1_dropShadow" result="shape"/>
</filter>
<linearGradient id="paint0_linear" x1="382" y1="66" x2="77" y2="557" gradientUnits="userSpaceOnUse">
<stop stop-color="#BED6E3"/>
<stop offset="1" stop-color="#779FB6"/>
</linearGradient>
</defs>
</svg>
