<svg width="382" height="564" viewBox="0 0 382 564" fill="none" xmlns="http://www.w3.org/2000/svg">
<rect x="62" y="58" width="320" height="506" rx="9" fill="white"/>
<rect x="70" y="65" width="305" height="491" rx="9" fill="url(#paint0_linear)"/>
<path d="M130.119 108.844C134.084 110.426 136.066 113.18 136.066 117.105C136.066 120.738 134.689 123.609 131.936 125.719C129.084 127.906 125.188 129 120.246 129H117.551V89.127H119.807C124.67 89.127 128.449 90.3281 131.145 92.7305C133.645 94.957 134.895 97.7891 134.895 101.227C134.895 104.645 133.322 107.184 130.178 108.844H130.119ZM100.471 108.844C97.3457 107.203 95.7832 104.703 95.7832 101.344C95.7832 97.8281 97.0332 94.957 99.5332 92.7305C102.229 90.3281 106.008 89.127 110.871 89.127H113.127V129H110.432C105.49 129 101.594 127.906 98.7422 125.719C95.9883 123.609 94.6113 120.67 94.6113 116.9C94.6113 113.111 96.584 110.426 100.529 108.844H100.471Z" fill="white"/>
<path fill-rule="evenodd" clip-rule="evenodd" d="M339.06 366.828C318.03 419.347 275.314 449 226.897 449C170.331 449 121.744 408.629 107.086 347.536C92.4283 286.443 112.103 253.945 132.487 223.798C132.939 223.129 133.394 222.456 133.852 221.777L129.71 250.716C133.852 321.812 186.748 281.441 174.32 255.361C161.893 229.28 169.22 187.462 189.934 176.404C191.324 214.214 203.954 238.569 226.897 232.138C249.839 225.707 254.775 203.422 240.28 159C240.28 159 272.605 174.975 284.253 202.128C293.942 224.711 292.363 237.655 291.008 248.773C290.734 251.022 290.468 253.196 290.308 255.361C290.126 257.801 289.474 261.386 288.698 265.655C285.385 283.883 279.805 314.576 298.911 321.812C298.911 321.812 333.325 334.317 341.61 265.007C343.665 247.808 356.302 328.243 339.06 366.828Z" fill="#FF685F"/>
<path fill-rule="evenodd" clip-rule="evenodd" d="M292.186 400.847C278.507 432.901 250.725 451 219.234 451C182.443 451 150.841 426.36 141.308 389.072C131.775 351.784 144.571 331.949 157.829 313.549C158.123 313.141 158.419 312.73 158.717 312.316L156.023 329.978C158.717 373.372 193.12 348.731 185.038 332.813C176.955 316.895 181.72 291.371 195.193 284.623C196.097 307.699 204.312 322.564 219.234 318.639C234.156 314.714 237.366 301.113 227.938 274C227.938 274 248.962 283.75 256.539 300.323C262.84 314.106 261.814 322.007 260.932 328.792C260.753 330.165 260.581 331.492 260.476 332.813C260.358 334.303 259.935 336.491 259.43 339.096C257.275 350.222 253.646 368.955 266.072 373.372C266.072 373.372 288.455 381.004 293.844 338.701C295.181 328.204 303.4 377.297 292.186 400.847Z" fill="#FF5B51"/>
<g filter="url(#filter0_d)">
<path d="M285.293 314.016C301.813 320.607 310.073 332.082 310.073 348.439C310.073 363.576 304.336 375.539 292.861 384.328C280.98 393.443 264.744 398 244.155 398H232.925V231.862H242.324C262.588 231.862 278.335 236.867 289.565 246.877C299.982 256.154 305.19 267.954 305.19 282.277C305.19 296.519 298.639 307.098 285.537 314.016H285.293ZM161.758 314.016C148.737 307.18 142.227 296.763 142.227 282.766C142.227 268.117 147.435 256.154 157.852 246.877C169.082 236.867 184.829 231.862 205.093 231.862H214.492V398H203.262C182.673 398 166.437 393.443 154.556 384.328C143.081 375.539 137.344 363.291 137.344 347.585C137.344 331.797 145.563 320.607 162.002 314.016H161.758Z" fill="white"/>
</g>
<defs>
<filter id="filter0_d" x="137.344" y="231.862" width="175.729" height="171.138" filterUnits="userSpaceOnUse" color-interpolation-filters="sRGB">
<feFlood flood-opacity="0" result="BackgroundImageFix"/>
<feColorMatrix in="SourceAlpha" type="matrix" values="0 0 0 0 0 0 0 0 0 0 0 0 0 0 0 0 0 0 127 0"/>
<feOffset dx="3" dy="5"/>
<feColorMatrix type="matrix" values="0 0 0 0 0.8125 0 0 0 0 0.27701 0 0 0 0 0.24375 0 0 0 1 0"/>
<feBlend mode="normal" in2="BackgroundImageFix" result="effect1_dropShadow"/>
<feBlend mode="normal" in="SourceGraphic" in2="effect1_dropShadow" result="shape"/>
</filter>
<linearGradient id="paint0_linear" x1="375" y1="65" x2="70" y2="556" gradientUnits="userSpaceOnUse">
<stop stop-color="#F45349"/>
<stop offset="1" stop-color="#D05048"/>
</linearGradient>
</defs>
</svg>
