<svg width="389" height="565" viewBox="0 0 389 565" fill="none" xmlns="http://www.w3.org/2000/svg">
<rect x="69" y="59" width="320" height="506" rx="9" fill="white"/>
<rect x="77" y="66" width="305" height="491" rx="9" fill="url(#paint0_linear)"/>
<circle cx="225.5" cy="306.5" r="127.5" fill="#C0DAE9"/>
<circle cx="242.5" cy="314.5" r="117.5" fill="#A6C8DA"/>
<circle cx="311.5" cy="432.5" r="37.5" fill="#C0DAE9"/>
<circle cx="320.5" cy="229.5" r="24.5" fill="#C0DAE9"/>
<circle cx="229.5" cy="474.5" r="19.5" fill="#C0DAE9"/>
<g filter="url(#filter0_d)">
<path d="M239.742 228.862H311.397L272.335 394.756H200.558L239.742 228.862ZM140.377 228.984H213.131V257.915C213.131 266.948 212.317 273.703 210.689 278.179C209.062 282.573 207.068 286.195 204.708 289.043C202.429 291.891 199.337 294.333 195.431 296.367C187.049 300.843 175.533 303.081 160.885 303.081H140.377V228.984Z" fill="white"/>
</g>
<path d="M118.078 89.127H135.275L125.9 128.941H108.674L118.078 89.127ZM94.2305 89.1562H111.691V96.0996C111.691 98.2676 111.496 99.8887 111.105 100.963C110.715 102.018 110.236 102.887 109.67 103.57C109.123 104.254 108.381 104.84 107.443 105.328C105.432 106.402 102.668 106.939 99.1523 106.939H94.2305V89.1562Z" fill="white"/>
<defs>
<filter id="filter0_d" x="140.377" y="228.862" width="174.021" height="170.894" filterUnits="userSpaceOnUse" color-interpolation-filters="sRGB">
<feFlood flood-opacity="0" result="BackgroundImageFix"/>
<feColorMatrix in="SourceAlpha" type="matrix" values="0 0 0 0 0 0 0 0 0 0 0 0 0 0 0 0 0 0 127 0"/>
<feOffset dx="3" dy="5"/>
<feColorMatrix type="matrix" values="0 0 0 0 0.698039 0 0 0 0 0.65098 0 0 0 0 0.772549 0 0 0 1 0"/>
<feBlend mode="normal" in2="BackgroundImageFix" result="effect1_dropShadow"/>
<feBlend mode="normal" in="SourceGraphic" in2="effect1_dropShadow" result="shape"/>
</filter>
<linearGradient id="paint0_linear" x1="382" y1="66" x2="77" y2="557" gradientUnits="userSpaceOnUse">
<stop stop-color="#BED6E3"/>
<stop offset="1" stop-color="#779FB6"/>
</linearGradient>
</defs>
</svg>
