<svg width="382" height="564" viewBox="0 0 382 564" fill="none" xmlns="http://www.w3.org/2000/svg">
<rect x="62" y="58" width="320" height="506" rx="9" fill="white"/>
<rect x="70" y="65" width="305" height="491" rx="9" fill="url(#paint0_linear)"/>
<path d="M118.342 89.127H135.598V97.3594H118.342V89.127ZM96.4863 89.127H114.211V109.078L96.4863 109.049V89.127ZM117.961 103.541H120.949C126.262 103.541 130.275 104.645 132.99 106.852C135.725 109.059 137.092 112.252 137.092 116.432C137.092 121.021 135.773 124.273 133.137 126.188C130.559 128.062 126.223 129 120.129 129H117.961V103.541ZM96.4863 115.494H114.211V129H110.549C103.986 129 99.6699 126.91 97.5996 122.73C96.8574 121.266 96.4863 119.498 96.4863 117.428V115.494Z" fill="white"/>
<path fill-rule="evenodd" clip-rule="evenodd" d="M339.06 366.828C318.03 419.347 275.314 449 226.897 449C170.331 449 121.744 408.629 107.086 347.536C92.4283 286.443 112.103 253.945 132.487 223.798C132.939 223.129 133.394 222.456 133.852 221.777L129.71 250.716C133.852 321.812 186.748 281.441 174.32 255.361C161.893 229.28 169.22 187.462 189.934 176.404C191.324 214.214 203.954 238.569 226.897 232.138C249.839 225.707 254.775 203.422 240.28 159C240.28 159 272.605 174.975 284.253 202.128C293.942 224.711 292.363 237.655 291.008 248.773C290.734 251.022 290.468 253.196 290.308 255.361C290.126 257.801 289.474 261.386 288.698 265.655C285.385 283.883 279.805 314.576 298.911 321.812C298.911 321.812 333.325 334.317 341.61 265.007C343.665 247.808 356.302 328.243 339.06 366.828Z" fill="#FF685F"/>
<path fill-rule="evenodd" clip-rule="evenodd" d="M292.186 400.847C278.507 432.901 250.725 451 219.234 451C182.443 451 150.841 426.36 141.308 389.072C131.775 351.784 144.571 331.949 157.829 313.549C158.123 313.141 158.419 312.73 158.717 312.316L156.023 329.978C158.717 373.372 193.12 348.731 185.038 332.813C176.955 316.895 181.72 291.371 195.193 284.623C196.097 307.699 204.312 322.564 219.234 318.639C234.156 314.714 237.366 301.113 227.938 274C227.938 274 248.962 283.75 256.539 300.323C262.84 314.106 261.814 322.007 260.932 328.792C260.753 330.165 260.581 331.492 260.476 332.813C260.358 334.303 259.935 336.491 259.43 339.096C257.275 350.222 253.646 368.955 266.072 373.372C266.072 373.372 288.455 381.004 293.844 338.701C295.181 328.204 303.4 377.297 292.186 400.847Z" fill="#FF5B51"/>
<g filter="url(#filter0_d)">
<path d="M236.221 231.862H308.12V266.164H236.221V231.862ZM145.156 231.862H219.009V314.992L145.156 314.87V231.862ZM234.634 291.921H247.085C269.22 291.921 285.944 296.519 297.256 305.715C308.649 314.911 314.346 328.216 314.346 345.632C314.346 364.756 308.853 378.306 297.866 386.281C287.124 394.094 269.058 398 243.667 398H234.634V291.921ZM145.156 341.726H219.009V398H203.75C176.406 398 158.421 389.292 149.795 371.877C146.702 365.773 145.156 358.409 145.156 349.782V341.726Z" fill="white"/>
</g>
<defs>
<filter id="filter0_d" x="145.156" y="231.862" width="172.189" height="171.138" filterUnits="userSpaceOnUse" color-interpolation-filters="sRGB">
<feFlood flood-opacity="0" result="BackgroundImageFix"/>
<feColorMatrix in="SourceAlpha" type="matrix" values="0 0 0 0 0 0 0 0 0 0 0 0 0 0 0 0 0 0 127 0"/>
<feOffset dx="3" dy="5"/>
<feColorMatrix type="matrix" values="0 0 0 0 0.8125 0 0 0 0 0.27701 0 0 0 0 0.24375 0 0 0 1 0"/>
<feBlend mode="normal" in2="BackgroundImageFix" result="effect1_dropShadow"/>
<feBlend mode="normal" in="SourceGraphic" in2="effect1_dropShadow" result="shape"/>
</filter>
<linearGradient id="paint0_linear" x1="375" y1="65" x2="70" y2="556" gradientUnits="userSpaceOnUse">
<stop stop-color="#F45349"/>
<stop offset="1" stop-color="#D05048"/>
</linearGradient>
</defs>
</svg>
