<svg width="389" height="565" viewBox="0 0 389 565" fill="none" xmlns="http://www.w3.org/2000/svg">
<rect x="69" y="59" width="320" height="506" rx="9" fill="white"/>
<rect x="77" y="66" width="305" height="491" rx="9" fill="url(#paint0_linear)"/>
<circle cx="225.5" cy="306.5" r="127.5" fill="#C0DAE9"/>
<circle cx="242.5" cy="314.5" r="117.5" fill="#A6C8DA"/>
<circle cx="311.5" cy="432.5" r="37.5" fill="#C0DAE9"/>
<circle cx="320.5" cy="229.5" r="24.5" fill="#C0DAE9"/>
<circle cx="229.5" cy="474.5" r="19.5" fill="#C0DAE9"/>
<g filter="url(#filter0_d)">
<path d="M239.254 228.862H248.287C273.596 228.862 291.663 232.972 302.486 241.191C313.473 249.492 318.966 263.245 318.966 282.451C318.966 307.272 306.271 322.287 280.88 327.495C272.498 329.204 262.773 330.059 251.705 330.059H239.254V228.862ZM149.776 277.08C149.776 260.723 155.473 248.353 166.866 239.971C177.039 232.565 190.873 228.862 208.37 228.862H223.629V285.137H149.776V277.08ZM149.776 353.984C149.776 337.627 155.473 325.257 166.866 316.875C177.039 309.469 190.873 305.767 208.37 305.767H223.629V395H149.776V353.984ZM240.841 354.595H312.74V395H240.841V354.595Z" fill="white"/>
</g>
<path d="M117.961 89.127H120.129C126.203 89.127 130.539 90.1133 133.137 92.0859C135.773 94.0781 137.092 97.3789 137.092 101.988C137.092 107.945 134.045 111.549 127.951 112.799C125.939 113.209 123.605 113.414 120.949 113.414H117.961V89.127ZM96.4863 100.699C96.4863 96.7734 97.8535 93.8047 100.588 91.793C103.029 90.0156 106.35 89.127 110.549 89.127H114.211V102.633H96.4863V100.699ZM96.4863 119.156C96.4863 115.23 97.8535 112.262 100.588 110.25C103.029 108.473 106.35 107.584 110.549 107.584H114.211V129H96.4863V119.156ZM118.342 119.303H135.598V129H118.342V119.303Z" fill="white"/>
<defs>
<filter id="filter0_d" x="149.776" y="228.862" width="172.189" height="171.138" filterUnits="userSpaceOnUse" color-interpolation-filters="sRGB">
<feFlood flood-opacity="0" result="BackgroundImageFix"/>
<feColorMatrix in="SourceAlpha" type="matrix" values="0 0 0 0 0 0 0 0 0 0 0 0 0 0 0 0 0 0 127 0"/>
<feOffset dx="3" dy="5"/>
<feColorMatrix type="matrix" values="0 0 0 0 0.698039 0 0 0 0 0.65098 0 0 0 0 0.772549 0 0 0 1 0"/>
<feBlend mode="normal" in2="BackgroundImageFix" result="effect1_dropShadow"/>
<feBlend mode="normal" in="SourceGraphic" in2="effect1_dropShadow" result="shape"/>
</filter>
<linearGradient id="paint0_linear" x1="382" y1="66" x2="77" y2="557" gradientUnits="userSpaceOnUse">
<stop stop-color="#BED6E3"/>
<stop offset="1" stop-color="#779FB6"/>
</linearGradient>
</defs>
</svg>
