<svg width="389" height="565" viewBox="0 0 389 565" fill="none" xmlns="http://www.w3.org/2000/svg">
<rect x="69" y="59" width="320" height="506" rx="9" fill="white"/>
<rect x="77" y="66" width="305" height="491" rx="9" fill="url(#paint0_linear)"/>
<circle cx="225.5" cy="306.5" r="127.5" fill="#C0DAE9"/>
<circle cx="242.5" cy="314.5" r="117.5" fill="#A6C8DA"/>
<circle cx="311.5" cy="432.5" r="37.5" fill="#C0DAE9"/>
<circle cx="320.5" cy="229.5" r="24.5" fill="#C0DAE9"/>
<circle cx="229.5" cy="474.5" r="19.5" fill="#C0DAE9"/>
<g filter="url(#filter0_d)">
<path d="M237.545 320.415H215.328V300.029H237.545V228.862H246.944C267.127 228.862 282.426 233.257 292.843 242.046C302.527 250.184 307.369 261.536 307.369 276.104C307.369 293.926 295.732 305.522 272.457 310.894C292.395 314.963 304.887 323.304 309.933 335.918C311.479 339.743 312.252 344.544 312.252 350.322C312.252 356.1 310.909 361.919 308.224 367.778C305.538 373.638 301.55 378.561 296.261 382.549C285.437 390.85 269.609 395 248.775 395H237.545V320.415ZM149.776 277.08C149.776 260.723 155.473 248.353 166.866 239.971C177.039 232.565 190.873 228.862 208.37 228.862H223.629V285.137H149.776V277.08ZM149.776 338.726H223.629V395H208.37C181.026 395 163.041 386.292 154.415 368.877C151.323 362.773 149.776 355.409 149.776 346.782V338.726Z" fill="white"/>
</g>
<path d="M117.551 111.1H112.219V106.207H117.551V89.127H119.807C124.65 89.127 128.322 90.1816 130.822 92.291C133.146 94.2441 134.309 96.9688 134.309 100.465C134.309 104.742 131.516 107.525 125.93 108.814C130.715 109.791 133.713 111.793 134.924 114.82C135.295 115.738 135.48 116.891 135.48 118.277C135.48 119.664 135.158 121.061 134.514 122.467C133.869 123.873 132.912 125.055 131.643 126.012C129.045 128.004 125.246 129 120.246 129H117.551V111.1ZM96.4863 100.699C96.4863 96.7734 97.8535 93.8047 100.588 91.793C103.029 90.0156 106.35 89.127 110.549 89.127H114.211V102.633H96.4863V100.699ZM96.4863 115.494H114.211V129H110.549C103.986 129 99.6699 126.91 97.5996 122.73C96.8574 121.266 96.4863 119.498 96.4863 117.428V115.494Z" fill="white"/>
<defs>
<filter id="filter0_d" x="149.776" y="228.862" width="165.476" height="171.138" filterUnits="userSpaceOnUse" color-interpolation-filters="sRGB">
<feFlood flood-opacity="0" result="BackgroundImageFix"/>
<feColorMatrix in="SourceAlpha" type="matrix" values="0 0 0 0 0 0 0 0 0 0 0 0 0 0 0 0 0 0 127 0"/>
<feOffset dx="3" dy="5"/>
<feColorMatrix type="matrix" values="0 0 0 0 0.698039 0 0 0 0 0.65098 0 0 0 0 0.772549 0 0 0 1 0"/>
<feBlend mode="normal" in2="BackgroundImageFix" result="effect1_dropShadow"/>
<feBlend mode="normal" in="SourceGraphic" in2="effect1_dropShadow" result="shape"/>
</filter>
<linearGradient id="paint0_linear" x1="382" y1="66" x2="77" y2="557" gradientUnits="userSpaceOnUse">
<stop stop-color="#BED6E3"/>
<stop offset="1" stop-color="#779FB6"/>
</linearGradient>
</defs>
</svg>
