<svg width="459" height="618" viewBox="0 0 459 618" fill="none" xmlns="http://www.w3.org/2000/svg">
<rect x="110.538" y="111.038" width="320" height="506" rx="9" fill="white"/>
<rect x="118.538" y="118.038" width="305" height="491" rx="9" fill="url(#paint0_linear)"/>
<path d="M334.522 324.76L343.827 334.065C363.645 353.883 372.749 375.232 371.137 398.112C369.607 418.816 359.657 438.352 341.289 456.721C322.599 475.411 302.619 484.756 281.351 484.756C259.115 484.756 237.847 474.605 217.545 454.304L211.261 448.02L334.522 324.76ZM182.501 298.899C191.363 290.037 200.748 282.988 210.657 277.751C220.647 272.434 230.959 269.373 241.593 268.567C264.473 266.956 285.822 276.06 305.64 295.878L314.945 305.183L191.685 428.443L185.401 422.159C165.099 401.858 154.948 380.589 154.948 358.354C154.948 337.086 164.132 317.267 182.501 298.899Z" fill="#363131"/>
<path fill-rule="evenodd" clip-rule="evenodd" d="M261.577 326.769C252.259 349.95 233.332 363.038 211.879 363.038C186.815 363.038 165.287 345.219 158.792 318.254C152.297 291.289 161.015 276.945 170.047 263.638C170.247 263.343 170.449 263.046 170.652 262.747L168.816 275.52C170.652 306.9 194.089 289.081 188.583 277.57C183.076 266.058 186.323 247.6 195.501 242.72C196.117 259.408 201.713 270.158 211.879 267.32C222.044 264.481 224.232 254.645 217.809 235.038C217.809 235.038 232.131 242.089 237.293 254.074C241.586 264.041 240.886 269.755 240.286 274.662C240.164 275.654 240.047 276.614 239.975 277.57C239.895 278.647 239.606 280.229 239.262 282.113C237.794 290.159 235.322 303.706 243.787 306.9C243.787 306.9 259.036 312.419 262.707 281.827C263.618 274.236 269.217 309.738 261.577 326.769Z" fill="#FF5B51"/>
<path fill-rule="evenodd" clip-rule="evenodd" d="M240.958 341.937C234.888 356.062 222.56 364.038 208.586 364.038C192.26 364.038 178.237 353.179 174.006 336.748C169.776 320.316 175.454 311.575 181.337 303.466C181.468 303.286 181.599 303.105 181.731 302.923L180.536 310.706C181.731 329.829 196.998 318.97 193.411 311.956C189.825 304.941 191.939 293.693 197.918 290.719C198.319 300.889 201.964 307.439 208.586 305.71C215.207 303.98 216.632 297.986 212.448 286.038C212.448 286.038 221.778 290.335 225.14 297.638C227.936 303.712 227.481 307.194 227.089 310.184C227.01 310.789 226.934 311.374 226.887 311.956C226.835 312.612 226.647 313.576 226.423 314.724C225.466 319.627 223.856 327.882 229.37 329.829C229.37 329.829 239.303 333.192 241.694 314.55C242.287 309.924 245.934 331.559 240.958 341.937Z" fill="#FF5B51"/>
<circle cx="331.736" cy="437.448" r="52.7613" fill="#C0DAE9"/>
<circle cx="338.771" cy="440.758" r="48.6232" fill="#A6C8DA"/>
<circle cx="367.324" cy="489.588" r="15.518" fill="#C0DAE9"/>
<circle cx="371.048" cy="405.584" r="10.1384" fill="#C0DAE9"/>
<circle cx="333.391" cy="506.969" r="8.06938" fill="#C0DAE9"/>
<path d="M153.435 150.079L155.03 148.484C158.428 145.087 162.088 143.526 166.01 143.802C169.559 144.065 172.908 145.77 176.057 148.919C179.261 152.123 180.863 155.548 180.863 159.194C180.863 163.006 179.123 166.652 175.643 170.132L174.566 171.21L153.435 150.079ZM149.002 176.14C147.483 174.621 146.274 173.012 145.377 171.313C144.465 169.601 143.94 167.833 143.802 166.01C143.526 162.088 145.087 158.428 148.484 155.03L150.079 153.435L171.21 174.566L170.132 175.643C166.652 179.123 163.006 180.863 159.194 180.863C155.548 180.863 152.151 179.289 149.002 176.14Z" fill="white"/>
<path d="M370.945 258.229L348.414 254.821C346.672 254.411 345.694 255.777 343.946 259.755C336.414 276.736 324.88 301.424 324.107 304.192C323.333 306.96 325.2 308.129 329.447 307.564L355.65 305.437C355.65 305.437 337.893 346.663 335.551 351.598C333.209 356.532 336.595 359.929 341.845 353.351C347.094 346.773 381.62 297.825 384.197 294.85C386.775 291.874 390.275 286.313 383.673 286.597C377.071 286.881 357.146 288.515 357.146 288.515L368.861 268.491C372.539 262.733 374.908 259.317 370.945 258.229Z" fill="#A1D776"/>
<path d="M344.337 234.58H317.617C315.526 234.392 314.63 236.333 313.301 241.774C307.546 265.013 298.502 298.914 298.091 302.613C297.68 306.313 300.049 307.451 304.874 305.902L334.883 298.091C334.883 298.091 321.523 354.409 319.673 361.192C317.823 367.975 322.345 371.675 327.278 362.22C332.211 352.765 363.658 283.293 366.125 278.976C368.591 274.66 371.674 266.85 364.069 268.494C356.464 270.138 333.649 276.099 333.649 276.099L343.721 248.145C346.975 240.047 349.123 235.206 344.337 234.58Z" fill="#FDF5B2"/>
<path d="M304.713 264.443L288.053 268.764C286.718 268.985 286.474 270.34 286.525 273.948C286.696 289.372 286.54 311.976 286.882 314.35C287.224 316.723 288.885 317.05 291.643 315.304L309.091 305.58C309.091 305.58 309.87 342.862 309.814 347.391C309.757 351.92 313.175 353.496 314.722 346.802C316.268 340.108 324.639 291.697 325.478 288.607C326.318 285.516 326.977 280.146 322.501 282.402C318.026 284.657 304.764 292.064 304.764 292.064L306.523 273.002C307.242 267.426 307.798 264.059 304.713 264.443Z" fill="#A1D776"/>
<path d="M381.892 309.03L370.231 302.593C369.363 302.008 368.507 302.636 366.621 304.681C358.534 313.396 346.454 325.952 345.387 327.461C344.32 328.97 345.081 330.036 347.558 330.525L362.528 334.358C362.528 334.358 343.186 355.619 340.751 358.122C338.316 360.624 339.402 363.322 343.823 360.4C348.244 357.479 378.636 334.857 380.748 333.575C382.86 332.293 386.079 329.641 382.366 328.524C378.653 327.407 367.266 324.502 367.266 324.502L378.368 314.778C381.731 312.042 383.83 310.455 381.892 309.03Z" fill="#BFF494"/>
<path d="M294.041 305.956L283.541 311.169C282.682 311.503 282.708 312.438 283.243 314.827C285.497 325.046 288.53 340.079 289.088 341.607C289.645 343.136 290.797 343.119 292.392 341.571L302.667 332.66C302.667 332.66 308.36 357.31 308.951 360.325C309.543 363.341 312.038 363.907 312.14 359.244C312.241 354.581 311.1 321.253 311.23 319.083C311.361 316.912 311.055 313.253 308.386 315.381C305.717 317.508 297.909 324.292 297.909 324.292L296.435 311.386C296.14 307.581 296.044 305.267 294.041 305.956Z" fill="#C8FE9E"/>
<path d="M257.86 431.985C253.305 403.001 213.7 387.672 210.891 386.674C227.893 408.116 212.989 423.257 213.214 441.269C213.439 459.28 226.496 464.736 231.854 464.917C231.854 464.917 245.475 438.339 227.539 403.036C243.908 422.277 241.216 462.773 238.95 465.169C244.713 462.676 261.454 454.855 257.86 431.985Z" fill="#6CE587"/>
<path d="M166.807 393.654C143.968 412.072 150.461 454.041 150.998 456.973C161.087 431.536 181.648 436.89 197.142 427.702C212.635 418.514 210.843 404.477 208.324 399.744C208.324 399.744 178.497 401.213 156.863 434.379C165.362 410.589 201.793 392.703 205 393.471C199.963 389.722 184.828 379.121 166.807 393.654Z" fill="#6CE587"/>
<path d="M179.856 493.221C207.407 503.309 240.035 476.125 242.272 474.154C215.272 478.61 209.27 458.229 193.414 449.682C177.558 441.135 166.45 449.902 163.69 454.499C163.69 454.499 180.314 479.308 219.885 480.766C195.117 485.736 161.02 463.724 160.026 460.58C159.407 466.828 158.118 485.261 179.856 493.221Z" fill="#6CE587"/>
<path d="M193.386 376.172C181.765 373.186 169.494 386.471 168.657 387.428C179.499 384.189 182.724 392.655 189.517 395.552C196.31 398.448 200.506 394.136 201.456 392.024C201.456 392.024 193.73 382.175 177.535 383.488C187.448 380.137 202.194 387.928 202.719 389.231C202.733 386.515 202.556 378.528 193.386 376.172Z" fill="#7BFD98"/>
<path d="M168.719 496.98C180.712 497.366 189.799 481.73 190.408 480.614C180.53 486.134 175.54 478.572 168.28 477.222C161.02 475.873 157.862 480.995 157.394 483.262C157.394 483.262 167.078 491.195 182.599 486.391C173.653 491.817 157.565 487.421 156.769 486.264C157.346 488.918 159.256 496.675 168.719 496.98Z" fill="#5CDC7C"/>
<path d="M261.389 447.438C267.663 437.21 258.578 421.573 257.91 420.491C257.814 431.806 248.774 432.397 244.007 438.037C239.239 443.676 242.126 448.956 243.864 450.485C243.864 450.485 255.551 446 259.062 430.136C259.347 440.595 247.562 452.395 246.163 452.514C248.754 453.327 256.439 455.508 261.389 447.438Z" fill="#4EC769"/>
<g filter="url(#filter0_d)">
<path d="M235.271 329.584L240.588 324.267C251.913 312.942 264.112 307.74 277.186 308.661C289.017 309.536 300.181 315.221 310.677 325.717C321.357 336.397 326.698 347.814 326.698 359.968C326.698 372.674 320.897 384.827 309.296 396.428L305.705 400.019L235.271 329.584ZM220.493 416.453C215.43 411.389 211.401 406.026 208.409 400.364C205.371 394.656 203.621 388.763 203.161 382.686C202.24 369.612 207.442 357.413 218.767 346.088L224.084 340.771L294.519 411.205L290.928 414.796C279.327 426.397 267.174 432.198 254.468 432.198C242.314 432.198 230.99 426.949 220.493 416.453Z" fill="white"/>
</g>
<defs>
<filter id="filter0_d" x="203.057" y="308.557" width="126.64" height="128.64" filterUnits="userSpaceOnUse" color-interpolation-filters="sRGB">
<feFlood flood-opacity="0" result="BackgroundImageFix"/>
<feColorMatrix in="SourceAlpha" type="matrix" values="0 0 0 0 0 0 0 0 0 0 0 0 0 0 0 0 0 0 127 0"/>
<feOffset dx="3" dy="5"/>
<feColorMatrix type="matrix" values="0 0 0 0 0.208333 0 0 0 0 0.186632 0 0 0 0 0.186632 0 0 0 1 0"/>
<feBlend mode="normal" in2="BackgroundImageFix" result="effect1_dropShadow"/>
<feBlend mode="normal" in="SourceGraphic" in2="effect1_dropShadow" result="shape"/>
</filter>
<linearGradient id="paint0_linear" x1="423.538" y1="118.038" x2="118.538" y2="609.038" gradientUnits="userSpaceOnUse">
<stop stop-color="#4E4948"/>
<stop offset="1" stop-color="#342F2F"/>
</linearGradient>
</defs>
</svg>
